<svg width="800" height="400" viewBox="0 0 800 400" xmlns="http://www.w3.org/2000/svg">
  <rect width="800" height="400" fill="#18181b"/>
  <g transform="translate(305, 100) scale(0.39)">
    <path d="M 26.204957989935938 7.870641751725698 C 17.04503948169285 11.075328143804605, 8.49535034315067 19.955435538473235, 6.032510065161098 28.822690543514312 C 5.358196169438134 31.25050257836504, 5.009258905860539 83.88895284085453, 5.005576934402704 183.73927346188614 C 5.000161428226458 330.6008214711022, 5.055720843589938 335.1251922639588, 6.925013341364881 340.04477022766866 C 9.865585650112944 347.7837274791594, 15.049348888750991 353.4066714393304, 22.728397581492835 357.1870546786531 C 40.38685315537254 365.8802837692455, 61.43290123841495 357.200493005634, 67.38539727636933 338.76965812264564 C 68.83810146885887 334.2716205036571, 68.99999999999999 320.5460160654343, 69 201.88516538988878 L 69 70 110.75 70.01478108669599 C 143.91202142032444 70.02652170259127, 153.77999198602078 70.33136997744529, 158.7226127977122 71.496784722019 C 181.061836099015 76.76412389480771, 195.48823131508345 95.7781386529233, 193.65453651813013 117.5371228107467 C 192.31357875221292 133.44919216568053, 188.593358414726 138.8874421733153, 165.10635831653906 159.26909464003802 C 127.74535067895877 191.69039452049904, 118.91938771799424 203.37660379826906, 111.81961929536331 229.82456679480924 C 108.83060786072973 240.95919247744945, 108.15540078408736 264.4920741250566, 110.49450664990002 276.00850078214864 C 119.11441633201417 318.44803252618823, 149.04785863777073 348.61356181078344, 193 359.1536950558384 C 202.90488142678933 361.52897796081527, 227.7428031094971 360.76826396256945, 239.11888488918407 357.741206452047 C 252.69847508928186 354.12781817820184, 258.7012650120986 351.10697012421315, 301.5 326.34849196242703 C 322.4 314.2581300924417, 353 296.58428330707915, 369.5 287.07327688384356 C 386 277.562270460608, 400.88118855828833 268.9434683662038, 402.56930790730735 267.92038334072316 L 405.63861581461475 266.06022874894023 400.2580582204602 295.28011437447014 C 394.24340918710413 327.94352402244056, 393.89092174531 335.00193272671834, 397.88522569834845 342.79506027613877 C 407.7358342233509 362.01419071220704, 432.39436273744735 366.967833871975, 448.34094382211856 352.93109182449797 C 456.54191524518046 345.71230807436194, 457.18463640364627 343.49905688157344, 467.5381840116197 286.82417409195705 C 472.69501874263204 258.5958783413806, 478.0542624776905 229.425, 479.4476145339719 222 C 483.2963087254571 201.49078680944103, 482.751997598308 194.62677063218075, 476.53154713067363 185.22703536292343 C 470.3548829359598 175.89346561914095, 474.2869589210793 177.58707337546306, 385.5 146.01829807657606 C 373.4 141.71606511625956, 357.65 136.06050469034537, 350.5 133.45038601898892 C 334.67762057931316 127.67440169014694, 324.97579565962417 126.92838251128649, 316.8638752411756 130.86394538742263 C 299.76423971194185 139.1599699183414, 292.82682725848696 158.04949328607648, 300.87533184144434 174.3983274342711 C 306.5348968143801 185.89453621936448, 309.3286361069928 187.53498238979813, 344.5 200.01414634993483 C 355.5 203.91706020846726, 366.42387896845815 207.8260055840522, 368.77528659657366 208.7006916290125 L 373.0505731931474 210.29102989257674 370.17042388316685 212.04255325872373 C 366.9258380365321 214.01570371455512, 271.66035078508173 269.0507413635077, 245.46361311379417 284.08589470154766 C 226.26231494257303 295.1061395089823, 222.54797218018567 296.3652006146661, 210.8049689669363 295.8342317863555 C 181.6243172487616 294.51480640847103, 164.1911386903574 263.0594556878585, 178.13813409176453 236.89221243581625 C 180.74843030296168 231.99479518196188, 184.7350170135558 228.0234658614386, 203.73266369110365 211.3956377412933 C 216.10911747897225 200.56305674773185, 228.0571244584636 189.7235973006207, 230.2837903121955 187.30795008104627 C 250.6226515119515 165.24289104933018, 260.87174322011083 134.52704411978584, 257.90057252428034 104.54228857002218 C 253.3352180298361 58.469190613709614, 222.04861049573503 21.585924165962773, 177 9.169935753054109 L 167.5 6.551611045041206 99.5 6.284865479147765 C 35.481887213175014 6.033739777342593, 31.1899373518662 6.126598340029863, 26.204957989935938 7.870641751725698 M 10.356998522048386 391.9507964932248 C 4.898910544819713 394.2572826337518, 5 393.1782120119737, 4.9999999999999964 449.13361260141244 L 4.999999999999992 500.822212716014 8.076725281943693 503.41110635800703 C 11.942494899244995 506.66393703560277, 16.044088963011934 506.7261156721503, 19.694236298673324 503.58722349292225 L 22.5 501.1744469858445 22.77680419576198 455.33722349292225 L 23.05360839152396 409.5 40.458478544530244 410 C 59.69554025848754 410.5526344507268, 61.37695008495601 411.08374030563414, 65.34593863283436 417.8611862251524 C 67.37086380898538 421.31894900448077, 67.79359393528978 429.6486390761239, 66.10433653509637 432.8050454008711 C 65.54837886180445 433.8438618157463, 60.58889603183538 438.8470453765754, 55.083263579609536 443.9232310916025 C 42.39938547247073 455.61774964461125, 39.68013027668549 460.637201174815, 39.601985024508224 472.5 C 39.51480100176721 485.73492462729325, 45.414914891495165 495.7445300265251, 56.916976056819806 501.8750647807698 C 68.40397036071775 507.99756898150883, 80.33194371394697 507.0597396439841, 93.50234751847177 498.9985631601748 L 99.89793395024205 495.0840323903404 105.69896697512102 498.89150977295606 C 114.18250093557786 504.45963247464766, 118.05286805094921 505.1887570343204, 137.1692544193527 504.8200841927881 L 153.76622715627676 504.5 161.87797385276184 500.25 C 171.04641035092183 495.44636687693117, 172 495.2266906617926, 172 497.9182125317651 C 172 503.13826991190405, 176.87835154979624 506.6206054470035, 182.66917823266738 505.5342398128411 C 189.03896223215463 504.3392611313777, 189.9919449397147 501.17660187502076, 189.99626193956266 481.2178813691026 C 190.00046505541627 461.7856790223368, 190.577522963461 459.33414739850525, 196.33791470242193 454.2764564639551 C 203.29829610951708 448.16516064607276, 212.51208004692762 447.69073844598097, 219.92669609831967 453.0618586783605 C 226.87074867014042 458.0921044799905, 227.40524565242572 460.0006913300949, 227.98584569318157 481.8395458301418 L 228.5 501.1790916602836 231.4248836512112 503.6920084973969 C 235.56280491700682 507.24710786525077, 238.29529902592816 506.50700534396634, 253.3729851307445 497.7473130671763 L 266.1999724874084 490.2952105826472 270.8627489888025 494.9579870840405 C 277.0969002490264 501.1921383442634, 285.256200490908 505.09033003248555, 293.4468936394551 505.7478002240063 C 299.8328852151373 506.26040630363445, 300.0139607634243 506.2036572392281, 309.76700385738775 500.63307880171897 C 315.1913621186786 497.5348854607735, 319.8865631549178 495, 320.20078393791925 495 C 320.51500472092073 495, 323.4182877574175 496.7670600459089, 326.6525240190232 498.92680010201985 C 335.41116851246994 504.7755983405076, 338.0183764064598 505.14159945063926, 368.5 504.80136909997105 C 401.00849361316637 504.4385151939853, 400.7089011024811 504.5300319706667, 416.7394858550798 490.0656127083164 L 426.9789717101596 480.8265101599974 431.8569849475755 485.1632550799987 C 434.53989222815414 487.5484647859994, 440.8407894563583 493.2125, 445.85897878802916 497.75 C 453.4774201614359 504.6386754658026, 455.5378018696871 506, 458.3454569687035 506.00000000000006 C 463.34745314706134 506.0000000000001, 466.99999999999983 502.21225968667767, 466.9999999999999 497.0251222358304 C 466.9999999999999 493.2082406266493, 466.45506942485105 492.4369302443193, 458.24999999999994 484.64012100233504 C 453.4375 480.0670768836096, 447.57209385924415 474.6109773045096, 445.2157641316536 472.51545527100166 C 442.8594344040631 470.41993323749375, 441.0594344040631 468.4341967878106, 441.2157641316536 468.1027076050391 C 441.37209385924416 467.77121842226757, 445.775 463.4529742376577, 451 458.50660941701716 C 456.225 453.5602445963766, 461.04655406292176 448.6102445963766, 461.71456458427053 447.50660941701716 C 465.89628586775336 440.5978938036626, 458.4714058860046 431.90312318033455, 450.92372429131444 434.8701922074663 C 449.5906759310915 435.3942268334194, 443.8865153406715 440.13781138826573, 438.2478118681589 445.41149121823594 C 432.6091083956464 450.68517104820614, 427.6099966891847 455, 427.1386747426885 455 C 426.66735279619235 455, 420.70583745552085 449.89625335210735, 413.8908628745296 443.65834078246075 C 397.35448396592295 428.5221895577511, 395.7796761750704 427.790176839278, 390.0767252819451 432.58889364199183 C 387.57862209188823 434.69090889298917, 387 435.9354518513823, 387 439.20654070081594 C 387 443.67992843718315, 386.72079772188164 443.34928496723956, 404 459.33867940298546 L 413.5 468.1295509197768 405 476.05938183181115 C 392.83100470910955 487.4120965407646, 394.2749948826822 487, 366.6639705386401 487 C 352.7849475190137 487, 342.00750923575094 486.5731539898674, 340.39360473628557 485.9595485928346 C 337.73046681416326 484.9470253595217, 337.92332651370685 484.77053022108055, 347.578505075111 479.3843025306024 C 379.9311040769708 461.3361159026162, 381 460.5725191360837, 381 455.50868947278127 C 381.00000000000006 453.79426900805356, 379.72889899628876 450.39096005019826, 378.1753311028639 447.9457806775473 C 364.95392460139186 427.13644843551515, 334.14904939801306 425.3370925984333, 318.48016383185427 444.45890248162834 C 312.1771419635392 452.1509100176239, 310.5068960176932 457.215410306493, 310.44457633069567 468.82431724109233 L 310.3891526613914 479.1486344821846 302.58869228754617 483.6697376630172 L 294.78823191370094 488.1908408438498 290.4407152345309 486.5305090755106 C 285.63402911296913 484.69481889718384, 280.4444804793683 479.44835070426046, 279.26444906985114 475.23166035310214 C 278.844002081433 473.729247158896, 278.5 467.163746914585, 278.5 460.6416598101888 L 278.5 448.78331962037754 294.386309007102 439.555311698388 C 311.1609770461015 429.81127552967, 313.78477310431026 427.29160356492196, 312.5095113183274 422.1513200153505 C 312.14773752006124 420.69309400690776, 310.9066577894003 418.4875, 309.75155636130313 417.25 C 306.155717731757 413.39765405372793, 301.8060313882739 414.22695332880744, 290.08275370077104 421 C 284.37087568680363 424.3, 279.3155787347799 427, 278.8487604740516 427 C 278.3819422133232 427, 278 420.5356864113102, 278 412.63485869180056 C 278 399.7549145846415, 277.79196216194185 398.00524012992935, 275.9878140498355 395.71163747398583 C 272.01865078828234 390.6656640655482, 263.1729833974057 391.7846205406679, 260.95703908952487 397.612995757619 C 260.411374687593 399.04820189781015, 260 415.75425755881196, 260 436.4786546850212 L 260 472.8271100476935 253 476.8629093257386 L 246.00000000000003 480.8987086037837 246 472.130855529321 C 245.99999999999997 461.56687677688626, 244.06668922349303 454.44697700323934, 239.21206781947654 447.13260000676075 C 226.34114355713598 427.7401933671836, 197.26385354878832 425.67802498307907, 181.64501641801976 443.0499309089142 C 175.4484197935037 449.942037710475, 173.07025156577092 455.39656225883704, 171.76976490910826 465.6996329562582 L 170.65534839002345 474.5285679735308 159.57767419501172 480.75653991997734 L 148.5 486.9845118664239 135 486.9219706706016 C 127.575 486.8875730128993, 120.6 486.50356841410843, 119.5 486.06862711773294 C 117.216968628749 485.165913822935, 116.02046589961301 485.97328815722466, 141.86916258831306 470.97439681338733 C 150.32220201188525 466.06946015966594, 157.84539049454358 461.25615588194955, 158.58735921644268 460.27816508512876 C 160.75214370288512 457.4247573303891, 160.21451198397745 452.7291843715251, 157.17533110286345 447.9457806775472 C 140.5968836624755 421.8527609367472, 100.33523487180973 427.2737887429832, 91.00460399541016 456.8553351141634 C 89.01492575419569 463.1633500743399, 88.52844666570341 472.1554842324635, 89.91476725150541 477 C 90.56417868330368 479.26937690544725, 90.0245501594678 479.8612813885146, 84.06508722615479 483.41636177217276 C 70.00680573527647 491.8027417724227, 58.019967970647606 486.55259702140836, 57.99988656689544 472 L 57.99229701291588 466.5 68.97954637865479 456 C 82.70192607562103 442.8861639504206, 85.44366460752855 437.8070565205112, 85.44366460752858 425.5 C 85.44366460752858 411.71897460347884, 78.6716006829988 400.91928379993044, 66.16761454229037 394.75968464883533 L 59.55045477713404 391.5 36.02522738856702 391.2726020267048 C 23.086352324855156 391.14753314139244, 11.535649334921773 391.45272065132644, 10.356998522048386 391.9507964932248 M 134.64302760083106 451.3209475751429 C 137.1742587787188 452.6471936083576, 136.95693386147062 452.8232840004658, 122.35992525184662 461.2734939114079 C 106.56034234838573 470.41987421507866, 105.98341014886114 470.48904296557714, 108.00135954306938 462.99495104249655 C 110.98058515987988 451.93095176875164, 124.500474299718 446.0067268908456, 134.64302760083106 451.3209475751429 M 354.34117511830163 450.77849834800713 L 358.1823502366032 452.5045492132429 343.577263636766 460.7522746066214 C 335.54446600685554 465.28852357297967, 328.70335629895374 469, 328.37479761920645 469 C 327.48043116164826 469, 328.9801660570108 461.9366272525349, 330.4907167570219 459.0345550269585 C 334.8227988135376 450.71175261123085, 345.7640653523726 446.9243320377635, 354.34117511830163 450.77849834800713" fill="#ffffff" fill-rule="evenodd"/>
  </g>
</svg>