<?xml version="1.0" encoding="UTF-8"?>
<svg version="1.1" xmlns="http://www.w3.org/2000/svg" viewBox="0 0 800 400" width="100%" height="100%">
  <rect width="800" height="400" fill="#18181b"/>
  <g transform="translate(100, -100) scale(3)">
    <path d="M0 0 C1.32 0 2.64 0 4 0 C4.33 1.65 4.66 3.3 5 5 C6.093125 5.103125 7.18625 5.20625 8.3125 5.3125 C12 6 12 6 13.875 7.1875 C16.01874959 10.64131878 16.28556977 13.77205001 15.375 17.6875 C13.55126679 20.75468767 12.35244052 21.71608661 9 23 C6.03 22.67 3.06 22.34 0 22 C0 14.74 0 7.48 0 0 Z M5 10 C4.23283149 12.85078091 4.23283149 12.85078091 4 16 C5.31318262 17.89958081 5.31318262 17.89958081 7 19 C8.32 18.34 9.64 17.68 11 17 C11.04254356 15.00045254 11.04080783 12.99958364 11 11 C9.93354885 9.70366379 9.93354885 9.70366379 7.4375 9.9375 C6.633125 9.958125 5.82875 9.97875 5 10 Z " fill="#ffffff" transform="translate(155,92)"/><path d="M0 0 C4.87731839 1.44513138 4.87731839 1.44513138 6.375 4 C6.625 7.125 6.625 7.125 6.375 10 C5.375 11 5.375 11 3.30859375 11.09765625 C2.48488281 11.08605469 1.66117188 11.07445313 0.8125 11.0625 C-0.01378906 11.05347656 -0.84007813 11.04445313 -1.69140625 11.03515625 C-2.32949219 11.02355469 -2.96757813 11.01195313 -3.625 11 C-3.625 11.66 -3.625 12.32 -3.625 13 C0.83 12.505 0.83 12.505 5.375 12 C5.375 12.99 5.375 13.98 5.375 15 C3.375 17 3.375 17 -0.5 17.375 C-3.43350708 17.27899431 -4.53741536 17.05255079 -7.125 15.5 C-9.21901202 12.00997997 -9.50401716 8.90160249 -8.625 5 C-5.9573351 1.03892181 -4.82598436 0 0 0 Z M-2.625 4 C-2.955 4.99 -3.285 5.98 -3.625 7 C-1.975 7 -0.325 7 1.375 7 C1.045 6.01 0.715 5.02 0.375 4 C-0.615 4 -1.605 4 -2.625 4 Z " fill="#ffffff" transform="translate(67.625,97)"/><path d="M0 0 C2.62447159 0.53970988 3.42236853 1.17838082 4.9375 3.3984375 C5.44921875 6.53515625 5.44921875 6.53515625 5.625 10.0859375 C5.72361328 11.85517578 5.72361328 11.85517578 5.82421875 13.66015625 C5.86160156 14.56378906 5.89898437 15.46742187 5.9375 16.3984375 C4.00153108 16.62054866 2.06360672 16.82566742 0.125 17.0234375 C-1.49341797 17.19746094 -1.49341797 17.19746094 -3.14453125 17.375 C-6.0625 17.3984375 -6.0625 17.3984375 -9.0625 15.3984375 C-9.9375 13.5859375 -9.9375 13.5859375 -10.0625 11.3984375 C-8.625 8.6484375 -8.625 8.6484375 -7.0625 6.3984375 C-7.7225 5.4084375 -8.3825 4.4184375 -9.0625 3.3984375 C-6.66976663 -0.19066255 -3.95575266 0.04495173 0 0 Z M-6.0625 6.3984375 C-4.0825 6.3984375 -2.1025 6.3984375 -0.0625 6.3984375 C-0.0625 5.7384375 -0.0625 5.0784375 -0.0625 4.3984375 C-3.24740007 4.1210874 -3.24740007 4.1210874 -6.0625 6.3984375 Z M-5.0625 10.3984375 C-5.0625 11.3884375 -5.0625 12.3784375 -5.0625 13.3984375 C-3.4125 13.0684375 -1.7625 12.7384375 -0.0625 12.3984375 C-0.0625 11.4084375 -0.0625 10.4184375 -0.0625 9.3984375 C-2.9879644 9.1748307 -2.9879644 9.1748307 -5.0625 10.3984375 Z " fill="#ffffff" transform="translate(146.0625,97.6015625)"/><path d="M0 0 C2.45789904 2.22003784 2.94358745 3.39356509 3.25 6.6875 C3 9 3 9 2 10 C0.48071962 10.07179964 -1.04167482 10.08392007 -2.5625 10.0625 C-3.38878906 10.05347656 -4.21507813 10.04445313 -5.06640625 10.03515625 C-5.70449219 10.02355469 -6.34257813 10.01195313 -7 10 C-7 10.66 -7 11.32 -7 12 C-2.545 11.505 -2.545 11.505 2 11 C1.67 12.32 1.34 13.64 1 15 C-2.09173752 16.54586876 -4.59429552 16.29359521 -8 16 C-10.4375 14.5625 -10.4375 14.5625 -12 12 C-12.60873844 8.87016555 -12.65247963 6.125034 -12 3 C-8.43524977 -1.53695483 -5.36705517 -1.59023857 0 0 Z M-6 3 C-6.99 4.485 -6.99 4.485 -8 6 C-6.02 6 -4.04 6 -2 6 C-2.33 5.01 -2.66 4.02 -3 3 C-3.99 3 -4.98 3 -6 3 Z " fill="#ffffff" transform="translate(98,98)"/><path d="M0 0 C2.324409 1.549606 2.86629166 2.65617855 3.875 5.25 C4.04977898 9.09513756 2.75322915 11.62341052 1 15 C-2.20841035 16.60420518 -5.5193987 16.47462745 -9 16 C-11.5 14.5 -11.5 14.5 -13 12 C-13.6932981 8.11115549 -13.57095716 5.06034902 -11.6875 1.5625 C-8.02890822 -1.82508498 -4.56441173 -0.97808823 0 0 Z M-7 3 C-9.33391203 5.78114056 -9.33391203 5.78114056 -8.625 8.6875 C-8.41875 9.450625 -8.2125 10.21375 -8 11 C-6.35 11.33 -4.7 11.66 -3 12 C-1.76603959 10.2857711 -1.76603959 10.2857711 -1 8 C-1.78702351 5.2806707 -1.78702351 5.2806707 -3 3 C-4.32 3 -5.64 3 -7 3 Z " fill="#ffffff" transform="translate(44,98)"/><path d="M0 0 C3.68754757 0.49831724 5.60490662 1.10067643 8 4 C8.33 3.01 8.66 2.02 9 1 C10.98 0.67 12.96 0.34 15 0 C15 3 15 3 13.375 5.375 C11.66684202 7.91468688 11.66684202 7.91468688 12.6875 10.5625 C13.120625 11.366875 13.55375 12.17125 14 13 C14.556875 14.1446875 14.556875 14.1446875 15.125 15.3125 C15.41375 15.869375 15.7025 16.42625 16 17 C12.85375007 17.26218749 11.38162983 17.24754367 8.6875 15.5 C8.130625 15.005 7.57375 14.51 7 14 C6.01 15.485 6.01 15.485 5 17 C2.375 17.1875 2.375 17.1875 0 17 C0.309375 16.278125 0.61875 15.55625 0.9375 14.8125 C1.9636783 12.09614567 2.78277038 9.89639497 3 7 C1.62750037 4.32323453 1.62750037 4.32323453 0 2 C0 1.34 0 0.68 0 0 Z " fill="#ffffff" transform="translate(102,97)"/><path d="M0 0 C2.3125 1.375 2.3125 1.375 4 3 C4 3.66 4 4.32 4 5 C0.64896563 6.11701146 -1.59004761 5.737287 -5 5 C-6.41577477 6.18424326 -6.41577477 6.18424326 -6.0625 9.5625 C-6.041875 10.696875 -6.02125 11.83125 -6 13 C-1.545 12.505 -1.545 12.505 3 12 C3 12.99 3 13.98 3 15 C1 17 1 17 -2.875 17.375 C-5.88505365 17.28759372 -6.85265608 17.09822928 -9.4375 15.375 C-11.37231132 12.4340868 -11.92809193 10.52349544 -12 7 C-10.75038302 4.10615014 -9.70803472 2.4956243 -7.125 0.6875 C-4.53574263 -0.15020091 -2.70770442 -0.33846305 0 0 Z " fill="#ffffff" transform="translate(26,97)"/><path d="M0 0 C1.32 0.66 2.64 1.32 4 2 C4 4.97 4 7.94 4 11 C-3.13846154 13.33846154 -3.13846154 13.33846154 -7.5 11.625 C-8.7375 10.820625 -8.7375 10.820625 -10 10 C-10 7.36 -10 4.72 -10 2 C-6.5023486 0.40107364 -3.85090034 -0.39496414 0 0 Z M-5 2 C-5 2.66 -5 3.32 -5 4 C-3.68 4 -2.36 4 -1 4 C-1.33 3.34 -1.66 2.68 -2 2 C-2.99 2 -3.98 2 -5 2 Z M0 5 C1 7 1 7 1 7 Z M-5 8 C-4.67 8.66 -4.34 9.32 -4 10 C-3.01 10 -2.02 10 -1 10 C-1.33 9.34 -1.66 8.68 -2 8 C-2.99 8 -3.98 8 -5 8 Z " fill="#ffffff" transform="translate(186,90)"/><path d="M0 0 C1.65 0 3.3 0 5 0 C5 7.26 5 14.52 5 22 C4.34 22.33 3.68 22.66 3 23 C2.01 22.67 1.02 22.34 0 22 C0 14.74 0 7.48 0 0 Z " fill="#ffffff" transform="translate(129,92)"/><path d="M0 0 C3.63 0 7.26 0 11 0 C10.67 1.65 10.34 3.3 10 5 C8.68 5 7.36 5 6 5 C5.67 8.96 5.34 12.92 5 17 C3.35 17 1.7 17 0 17 C0 11.39 0 5.78 0 0 Z " fill="#ffffff" transform="translate(49,97)"/><path d="M0 0 C2.05078125 0.03255208 4.1015625 0.06510417 6.15234375 0.09765625 C6.15234375 1.41765625 6.15234375 2.73765625 6.15234375 4.09765625 C5.16234375 4.09765625 4.17234375 4.09765625 3.15234375 4.09765625 C3.15234375 7.06765625 3.15234375 10.03765625 3.15234375 13.09765625 C4.47234375 13.42765625 5.79234375 13.75765625 7.15234375 14.09765625 C6.82234375 15.08765625 6.49234375 16.07765625 6.15234375 17.09765625 C3.83984375 17.41015625 3.83984375 17.41015625 1.15234375 17.09765625 C-2.20701243 13.2749406 -2.02631356 10.01073238 -1.84765625 5.09765625 C-2.164402 3.76028531 -2.49035689 2.42476817 -2.84765625 1.09765625 C-1.84765625 0.09765625 -1.84765625 0.09765625 0 0 Z " fill="#ffffff" transform="translate(77.84765625,96.90234375)"/><path d="M0 0 C0.33 0.66 0.66 1.32 1 2 C0.67 2.66 0.34 3.32 0 4 C-2.31 4 -4.62 4 -7 4 C-7.66 6.97 -8.32 9.94 -9 13 C-9.99 13 -10.98 13 -12 13 C-13 12 -13 12 -13.25 8.1875 C-13.21431913 5.3432248 -13.0655184 4.12167703 -11.6875 1.5625 C-8.02832098 -1.82562873 -4.56908223 -0.93073897 0 0 Z " fill="#ffffff" transform="translate(44,98)"/><path d="M0 0 C0.66 0.33 1.32 0.66 2 1 C1.67 2.98 1.34 4.96 1 7 C1.33 6.34 1.66 5.68 2 5 C2.66 5.33 3.32 5.66 4 6 C3.67 7.32 3.34 8.64 3 10 C6.3 9.67 9.6 9.34 13 9 C13 9.99 13 10.98 13 12 C11 14 11 14 7.125 14.375 C4.19149292 14.27899431 3.08758464 14.05255079 0.5 12.5 C-1.71177972 8.81370046 -1.34421275 6.26823808 -1 2 C-0.67 1.34 -0.34 0.68 0 0 Z " fill="#ffffff" transform="translate(60,100)"/><path d="M0 0 C2.62447159 0.53970988 3.42236853 1.17838082 4.9375 3.3984375 C5.44921875 6.53515625 5.44921875 6.53515625 5.625 10.0859375 C5.72361328 11.85517578 5.72361328 11.85517578 5.82421875 13.66015625 C5.86160156 14.56378906 5.89898437 15.46742187 5.9375 16.3984375 C3.6275 16.3984375 1.3175 16.3984375 -1.0625 16.3984375 C-1.0625 15.4084375 -1.0625 14.4184375 -1.0625 13.3984375 C0.5875 13.7284375 2.2375 14.0584375 3.9375 14.3984375 C3.89584684 8.28894991 3.89584684 8.28894991 0.875 3.3359375 C0.235625 3.0265625 -0.40375 2.7171875 -1.0625 2.3984375 C-1.0625 3.0584375 -1.0625 3.7184375 -1.0625 4.3984375 C-3.0425 5.0584375 -5.0225 5.7184375 -7.0625 6.3984375 C-7.7225 5.4084375 -8.3825 4.4184375 -9.0625 3.3984375 C-6.66976663 -0.19066255 -3.95575266 0.04495173 0 0 Z " fill="#ffffff" transform="translate(146.0625,97.6015625)"/><path d="M0 0 C-0.70125 1.051875 -1.4025 2.10375 -2.125 3.1875 C-3.90466858 6.21811716 -3.90466858 6.21811716 -3.375 9.6875 C-2.92125 10.450625 -2.4675 11.21375 -2 12 C-1.443125 13.1446875 -1.443125 13.1446875 -0.875 14.3125 C-0.58625 14.869375 -0.2975 15.42625 0 16 C-1.65 16 -3.3 16 -5 16 C-7.11663275 12.56047179 -7 9.96576991 -7 6 C-7.66 5.34 -8.32 4.68 -9 4 C-6.73455663 -1.01633889 -5.27613404 -1.24961069 0 0 Z " fill="#ffffff" transform="translate(118,98)"/><path d="M0 0 C1.32 0.33 2.64 0.66 4 1 C4 1.66 4 2.32 4 3 C3.34 3 2.68 3 2 3 C2 5.97 2 8.94 2 12 C2.66 10.35 3.32 8.7 4 7 C4.33 7 4.66 7 5 7 C5 10.3 5 13.6 5 17 C3.35 17 1.7 17 0 17 C0 11.39 0 5.78 0 0 Z " fill="#ffffff" transform="translate(49,97)"/><path d="M0 0 C0.66 0.66 1.32 1.32 2 2 C2.66 1.67 3.32 1.34 4 1 C5.54023996 0.93049459 7.08334988 0.91547643 8.625 0.9375 C9.85089844 0.95103516 9.85089844 0.95103516 11.1015625 0.96484375 C12.04128906 0.98224609 12.04128906 0.98224609 13 1 C13 1.99 13 2.98 13 4 C10.39295102 6.60704898 8.52661759 6.23905333 4.97265625 6.265625 C3 6 3 6 0 4 C0 2.68 0 1.36 0 0 Z " fill="#ffffff" transform="translate(16,108)"/><path d="M0 0 C6.43014706 0.48529412 6.43014706 0.48529412 8.9375 2.75 C10.17893286 5.37891664 10.31080287 7.12507347 10 10 C8.33657163 11.66342837 6.2174291 11.36048097 3.9375 11.5625 C3.01839844 11.64628906 2.09929687 11.73007813 1.15234375 11.81640625 C0.44207031 11.87699219 -0.26820312 11.93757813 -1 12 C-1 11.34 -1 10.68 -1 10 C1.64 9.67 4.28 9.34 7 9 C6.67 7.02 6.34 5.04 6 3 C3.03 2.505 3.03 2.505 0 2 C0 1.34 0 0.68 0 0 Z " fill="#ffffff" transform="translate(91,97)"/><path d="M0 0 C0.33 0.99 0.66 1.98 1 3 C-1.97 2.505 -1.97 2.505 -5 2 C-5.95024979 5.69541586 -5.95024979 8.30458414 -5 12 C-7.475 11.01 -7.475 11.01 -10 10 C-10 7.36 -10 4.72 -10 2 C-6.49223216 0.39644899 -3.85645121 -0.22036864 0 0 Z " fill="#ffffff" transform="translate(186,90)"/><path d="M0 0 C1.65 0 3.3 0 5 0 C5 7.26 5 14.52 5 22 C4.01 22 3.02 22 2 22 C1.67 21.34 1.34 20.68 1 20 C1.99 20 2.98 20 4 20 C4 14.06 4 8.12 4 2 C3.01 2 2.02 2 1 2 C1 5.63 1 9.26 1 13 C0.67 13 0.34 13 0 13 C0 8.71 0 4.42 0 0 Z " fill="#ffffff" transform="translate(129,92)"/><path d="M0 0 C0.04254356 1.99954746 0.04080783 4.00041636 0 6 C-1 7 -1 7 -3.06640625 7.09765625 C-3.89011719 7.08605469 -4.71382813 7.07445313 -5.5625 7.0625 C-6.38878906 7.05347656 -7.21507813 7.04445313 -8.06640625 7.03515625 C-8.70449219 7.02355469 -9.34257813 7.01195313 -10 7 C-10.33 7.66 -10.66 8.32 -11 9 C-10.67 7.35 -10.34 5.7 -10 4 C-7.36 4 -4.72 4 -2 4 C-2.99 3.67 -3.98 3.34 -5 3 C-5 2.34 -5 1.68 -5 1 C-3 0 -3 0 0 0 Z " fill="#ffffff" transform="translate(74,101)"/><path d="M0 0 C1.65 0 3.3 0 5 0 C5.25 7.625 5.25 7.625 3 11 C2.67 10.01 2.34 9.02 2 8 C1.01 8.495 1.01 8.495 0 9 C-1.125 3.375 -1.125 3.375 0 0 Z " fill="#ffffff" transform="translate(15,101)"/><path d="M0 0 C0.66 0.33 1.32 0.66 2 1 C2 5 2 5 0 8 C-2.625 8.1875 -2.625 8.1875 -5 8 C-3.8141763 4.62496331 -2.72426311 2.35277269 0 0 Z " fill="#ffffff" transform="translate(107,106)"/><path d="M0 0 C-0.375 1.9375 -0.375 1.9375 -1 4 C-3.95664519 5.4783226 -6.74229737 5.06032783 -10 5 C-10 4.01 -10 3.02 -10 2 C-6.38026598 0.68373308 -3.90432869 0 0 0 Z " fill="#ffffff" transform="translate(100,109)"/><path d="M0 0 C0.66 0.99 1.32 1.98 2 3 C4.58380177 3.25030977 4.58380177 3.25030977 7 3 C6.67 4.32 6.34 5.64 6 7 C3.6875 7.625 3.6875 7.625 1 8 C0.01 7.34 -0.98 6.68 -2 6 C-1.125 1.125 -1.125 1.125 0 0 Z " fill="#ffffff" transform="translate(139,107)"/><path d="M0 0 C0.99 0.33 1.98 0.66 3 1 C4.125 5.75 4.125 5.75 3 8 C1.35 7.67 -0.3 7.34 -2 7 C-2 5.35 -2 3.7 -2 2 C-1.34 2 -0.68 2 0 2 C0 1.34 0 0.68 0 0 Z " fill="#ffffff" transform="translate(44,100)"/><path d="M0 0 C4.875 4.625 4.875 4.625 6 8 C4.35 8 2.7 8 1 8 C-0.42944945 5.64561267 -1.08661261 4.51967567 -0.625 1.75 C-0.41875 1.1725 -0.2125 0.595 0 0 Z " fill="#ffffff" transform="translate(112,106)"/><path d="M0 0 C3.625 -0.1875 3.625 -0.1875 7 0 C6.67 1.32 6.34 2.64 6 4 C3.39417629 4.93065133 2.35801776 5.14917407 -0.25 4.0625 C-0.8275 3.711875 -1.405 3.36125 -2 3 C-1.34 2.01 -0.68 1.02 0 0 Z " fill="#ffffff" transform="translate(161,110)"/><path d="M0 0 C0.9075 0.103125 1.815 0.20625 2.75 0.3125 C1.375 2.3125 1.375 2.3125 -0.25 4.3125 C-0.91 4.3125 -1.57 4.3125 -2.25 4.3125 C-2.58 4.9725 -2.91 5.6325 -3.25 6.3125 C-3.58 5.6525 -3.91 4.9925 -4.25 4.3125 C-4.58 4.9725 -4.91 5.6325 -5.25 6.3125 C-5.91 5.9825 -6.57 5.6525 -7.25 5.3125 C-4.05 0.38942308 -4.05 0.38942308 0 0 Z " fill="#ffffff" transform="translate(143.25,103.6875)"/><path d="M0 0 C0.33 0.99 0.66 1.98 1 3 C2.32 3 3.64 3 5 3 C5 3.66 5 4.32 5 5 C2.36 5.66 -0.28 6.32 -3 7 C-3.33 5.68 -3.66 4.36 -4 3 C-3.34 3 -2.68 3 -2 3 C-2 2.34 -2 1.68 -2 1 C-1.34 0.67 -0.68 0.34 0 0 Z " fill="#ffffff" transform="translate(185,96)"/><path d="M0 0 C2.125 0.9375 2.125 0.9375 4 2 C3.67 2.99 3.34 3.98 3 5 C-1.455 4.01 -1.455 4.01 -6 3 C-4 2 -2 1 0 0 Z " fill="#ffffff" transform="translate(41,97)"/><path d="M0 0 C0.66 0.33 1.32 0.66 2 1 C2 3.31 2 5.62 2 8 C1.01 8 0.02 8 -1 8 C-1.33 5.69 -1.66 3.38 -2 1 C-1.34 0.67 -0.68 0.34 0 0 Z " fill="#ffffff" transform="translate(78,104)"/><path d="M0 0 C0.33 0.66 0.66 1.32 1 2 C3.02463255 2.65213292 3.02463255 2.65213292 5 3 C4.67 3.99 4.34 4.98 4 6 C2.35 6 0.7 6 -1 6 C-1.33 5.34 -1.66 4.68 -2 4 C-1.34 4 -0.68 4 0 4 C0 2.68 0 1.36 0 0 Z " fill="#ffffff" transform="translate(80,108)"/><path d="M0 0 C2.31 0 4.62 0 7 0 C7.33 0.66 7.66 1.32 8 2 C6.02253397 2.73080266 4.01927511 3.39421747 2 4 C1.34 3.67 0.68 3.34 0 3 C0 2.01 0 1.02 0 0 Z " fill="#ffffff" transform="translate(61,110)"/><path d="M0 0 C0.33 0 0.66 0 1 0 C1 3.3 1 6.6 1 10 C-0.65 10 -2.3 10 -4 10 C-4 9.34 -4 8.68 -4 8 C-3.01 8 -2.02 8 -1 8 C-0.67 5.36 -0.34 2.72 0 0 Z " fill="#ffffff" transform="translate(53,104)"/><path d="M0 0 C2.64 0 5.28 0 8 0 C7.67 0.99 7.34 1.98 7 3 C5.02 3 3.04 3 1 3 C0.67 2.01 0.34 1.02 0 0 Z " fill="#ffffff" transform="translate(118,105)"/><path d="M0 0 C0.99 0 1.98 0 3 0 C2.88637738 1.4800841 2.75877092 2.95910074 2.625 4.4375 C2.52058594 5.67306641 2.52058594 5.67306641 2.4140625 6.93359375 C2.27742187 7.61550781 2.14078125 8.29742187 2 9 C1.01 9.495 1.01 9.495 0 10 C0 6.7 0 3.4 0 0 Z " fill="#ffffff" transform="translate(130,94)"/><path d="M0 0 C2.375 0.25 2.375 0.25 5 1 C6.3125 3.0625 6.3125 3.0625 7 5 C6.01 4.67 5.02 4.34 4 4 C3.01 4 2.02 4 1 4 C0.67 2.68 0.34 1.36 0 0 Z " fill="#ffffff" transform="translate(102,97)"/><path d="M0 0 C2 3 2 3 2 6 C-0.31 6 -2.62 6 -5 6 C-5 5.01 -5 4.02 -5 3 C-3.35 3.33 -1.7 3.66 0 4 C0 2.68 0 1.36 0 0 Z " fill="#ffffff" transform="translate(150,108)"/><path d="M0 0 C1.98 0 3.96 0 6 0 C5.67 1.65 5.34 3.3 5 5 C4.67 4.34 4.34 3.68 4 3 C2.68 3 1.36 3 0 3 C0 2.01 0 1.02 0 0 Z " fill="#ffffff" transform="translate(54,97)"/><path d="M0 0 C1.32 0 2.64 0 4 0 C4.33 0.99 4.66 1.98 5 3 C4.34 3.66 3.68 4.32 3 5 C2.34 4.67 1.68 4.34 1 4 C0.67 4.66 0.34 5.32 0 6 C0 4.02 0 2.04 0 0 Z " fill="#ffffff" transform="translate(155,92)"/><path d="M0 0 C1.32 0.33 2.64 0.66 4 1 C3.34 2.32 2.68 3.64 2 5 C0.35 4.67 -1.3 4.34 -3 4 C-2.01 2.68 -1.02 1.36 0 0 Z " fill="#ffffff" transform="translate(43,107)"/><path d="M0 0 C0.66 0 1.32 0 2 0 C2 2.31 2 4.62 2 7 C1.01 7.495 1.01 7.495 0 8 C-0.38063221 5.6739143 -0.71269945 3.33944736 -1 1 C-0.67 0.67 -0.34 0.34 0 0 Z " fill="#ffffff" transform="translate(33,104)"/><path d="M0 0 C0.33 0 0.66 0 1 0 C1 3.63 1 7.26 1 11 C0.01 11 -0.98 11 -2 11 C-2.33 10.34 -2.66 9.68 -3 9 C-2.01 9 -1.02 9 0 9 C0 6.03 0 3.06 0 0 Z " fill="#ffffff" transform="translate(133,103)"/>
  </g>
</svg>
