<?xml version="1.0" encoding="UTF-8"?>
<svg version="1.1" xmlns="http://www.w3.org/2000/svg" viewBox="0 0 800 400" width="100%" height="100%">
  <rect width="800" height="400" fill="#18181b"/>
  <g transform="translate(207, 15) scale(0.8)">
    <g><path style="opacity:1" fill="#f9c246" fill-opacity="0.578" d="M 161.5,92.5 C 154.791,89.8503 147.791,88.8503 140.5,89.5C 146.298,87.0375 152.298,86.8708 158.5,89C 160.063,89.7589 161.063,90.9256 161.5,92.5 Z"/></g>
    <g><path style="opacity:1" fill="#f9c246" fill-opacity="0.438" d="M 140.5,89.5 C 139.514,91.4077 137.848,92.4077 135.5,92.5C 136.659,90.7497 138.326,89.7497 140.5,89.5 Z"/></g>
    <g><path style="opacity:1" fill="#f9c246" fill-opacity="0.886" d="M 140.5,89.5 C 147.791,88.8503 154.791,89.8503 161.5,92.5C 161.833,92.5 162.167,92.5 162.5,92.5C 163.42,100.26 162.753,107.926 160.5,115.5C 159.833,115.5 159.167,115.5 158.5,115.5C 161.211,108.682 161.877,101.682 160.5,94.5C 153.055,89.6424 145.389,89.3091 137.5,93.5C 136.605,95.2464 135.938,97.0797 135.5,99C 136.32,100.8 136.986,102.634 137.5,104.5C 135.613,103.232 134.613,101.399 134.5,99C 135.077,96.863 135.41,94.6963 135.5,92.5C 137.848,92.4077 139.514,91.4077 140.5,89.5 Z"/></g>
    <g><path style="opacity:1" fill="#f9c246" fill-opacity="0.584" d="M 235.5,111.5 C 229.456,108.655 223.289,106.321 217,104.5C 216.501,100.179 216.334,95.8461 216.5,91.5C 212.5,92.8333 208.5,94.1667 204.5,95.5C 208.069,91.7545 212.403,89.5878 217.5,89C 218.143,93.7838 218.809,98.6171 219.5,103.5C 225.453,105.143 230.786,107.81 235.5,111.5 Z"/></g>
    <g><path style="opacity:1" fill="#f9c246" d="M 235.5,111.5 C 239.969,117.737 244.469,124.071 249,130.5C 252.371,134.372 256.204,137.705 260.5,140.5C 261.348,142.409 261.682,144.409 261.5,146.5C 261.5,146.833 261.5,147.167 261.5,147.5C 257.707,150.44 256.04,154.44 256.5,159.5C 254.9,160.252 253.4,161.252 252,162.5C 250.168,166.984 247.001,169.984 242.5,171.5C 237.963,173.155 233.296,174.655 228.5,176C 226.959,178.04 225.626,180.207 224.5,182.5C 222.111,183.602 220.277,185.269 219,187.5C 216.589,196.912 217.422,205.912 221.5,214.5C 223.947,218.618 225.947,222.951 227.5,227.5C 230.433,231.057 233.099,234.724 235.5,238.5C 237.649,247.597 236.649,256.264 232.5,264.5C 231.167,265.5 229.833,266.5 228.5,267.5C 227.571,268.689 227.238,270.022 227.5,271.5C 222.105,274.033 216.771,276.867 211.5,280C 197.825,284.544 183.825,285.71 169.5,283.5C 168.167,282.167 166.833,280.833 165.5,279.5C 167.829,277.951 170.496,277.117 173.5,277C 172.663,275.989 172.33,274.822 172.5,273.5C 175.652,272.959 178.152,273.959 180,276.5C 182.68,275.191 185.346,275.191 188,276.5C 193.181,275.218 198.181,273.551 203,271.5C 204.03,271.164 204.53,270.497 204.5,269.5C 209.38,266.55 213.88,262.883 218,258.5C 218.667,253.833 218.667,249.167 218,244.5C 215.274,241.714 213.607,238.381 213,234.5C 208.684,231.392 204.85,227.726 201.5,223.5C 200.583,222.873 199.583,222.539 198.5,222.5C 198.5,222.167 198.5,221.833 198.5,221.5C 190.845,209.812 183.512,197.812 176.5,185.5C 175.296,180.09 173.796,174.757 172,169.5C 171.407,158.154 171.574,146.821 172.5,135.5C 173.359,131.726 174.359,128.059 175.5,124.5C 175.5,123.833 175.833,123.5 176.5,123.5C 180.027,119.687 183.693,115.854 187.5,112C 190.876,111.693 192.21,109.86 191.5,106.5C 195.105,104.51 198.772,102.51 202.5,100.5C 203.362,99.2342 204.029,97.9008 204.5,96.5C 204.5,96.1667 204.5,95.8333 204.5,95.5C 208.5,94.1667 212.5,92.8333 216.5,91.5C 216.334,95.8461 216.501,100.179 217,104.5C 223.289,106.321 229.456,108.655 235.5,111.5 Z M 223.5,126.5 C 224.5,125.833 225.5,125.167 226.5,124.5C 233.631,123.127 236.797,126.127 236,133.5C 229.946,139.519 225.446,138.519 222.5,130.5C 223.246,129.264 223.579,127.93 223.5,126.5 Z"/></g>
    <g><path style="opacity:1" fill="#f9c246" fill-opacity="0.686" d="M 204.5,96.5 C 204.029,97.9008 203.362,99.2342 202.5,100.5C 198.772,102.51 195.105,104.51 191.5,106.5C 194.688,101.642 199.021,98.3083 204.5,96.5 Z"/></g>
    <g><path style="opacity:1" fill="#f9c246" fill-opacity="0.568" d="M 135.5,92.5 C 135.41,94.6963 135.077,96.863 134.5,99C 134.613,101.399 135.613,103.232 137.5,104.5C 140.833,105.167 144.167,105.833 147.5,106.5C 139.15,109.827 134.15,107.161 132.5,98.5C 132.759,96.0128 133.759,94.0128 135.5,92.5 Z"/></g>
    <g><path style="opacity:1" fill="#f9c246" fill-opacity="0.551" d="M 162.5,92.5 C 163.222,92.9175 163.722,93.5842 164,94.5C 165.298,102.04 164.132,109.04 160.5,115.5C 162.753,107.926 163.42,100.26 162.5,92.5 Z"/></g>
    <g><path style="opacity:1" fill="#f9c246" fill-opacity="0.595" d="M 191.5,106.5 C 192.21,109.86 190.876,111.693 187.5,112C 183.693,115.854 180.027,119.687 176.5,123.5C 180.419,116.912 185.419,111.245 191.5,106.5 Z"/></g>
    <g><path style="opacity:1" fill="#f9c246" fill-opacity="0.535" d="M 158.5,115.5 C 159.167,115.5 159.833,115.5 160.5,115.5C 158.686,121.78 156.353,127.78 153.5,133.5C 154.782,127.33 156.449,121.33 158.5,115.5 Z"/></g>
    <g><path style="opacity:1" fill="#694b95" fill-opacity="0.772" d="M 331.5,122.5 C 334.679,123.883 336.013,126.383 335.5,130C 333.9,139.424 328.567,142.091 319.5,138C 314.983,131.647 315.65,125.981 321.5,121C 324.5,120.333 327.5,120.333 330.5,121C 331.056,121.383 331.389,121.883 331.5,122.5 Z"/></g>
    <g><path style="opacity:1" fill="#f9c246" fill-opacity="0.659" d="M 235.5,111.5 C 243.276,117.446 249.443,124.779 254,133.5C 256.181,136.214 258.847,138.214 262,139.5C 262.796,142.039 262.629,144.372 261.5,146.5C 261.682,144.409 261.348,142.409 260.5,140.5C 256.204,137.705 252.371,134.372 249,130.5C 244.469,124.071 239.969,117.737 235.5,111.5 Z"/></g>
    <g><path style="opacity:1" fill="#694b95" d="M 331.5,122.5 C 333.61,125.723 334.61,129.39 334.5,133.5C 333.5,133.5 332.5,133.5 331.5,133.5C 331.804,136.233 330.637,137.899 328,138.5C 315.668,134.986 314.502,129.486 324.5,122C 326.885,121.444 329.218,121.61 331.5,122.5 Z"/></g>
    <g><path style="opacity:1" fill="#f9c246" fill-opacity="0.508" d="M 175.5,124.5 C 174.359,128.059 173.359,131.726 172.5,135.5C 171.833,136.833 171.167,138.167 170.5,139.5C 170.803,133.923 172.47,128.923 175.5,124.5 Z"/></g>
    <g><path style="opacity:1" fill="#f9c246" fill-opacity="0.686" d="M 148.5,109.5 C 146.381,117.415 144.547,125.415 143,133.5C 139.831,139.567 136.665,145.567 133.5,151.5C 138.096,137.38 143.096,123.38 148.5,109.5 Z"/></g>
    <g><path style="opacity:1" fill="#f9c246" fill-opacity="0.735" d="M 223.5,126.5 C 223.579,127.93 223.246,129.264 222.5,130.5C 225.446,138.519 229.946,139.519 236,133.5C 236.797,126.127 233.631,123.127 226.5,124.5C 230.407,121.673 233.907,122.34 237,126.5C 238.997,134.326 235.997,138.659 228,139.5C 221,138.298 218.833,134.298 221.5,127.5C 222.183,127.137 222.85,126.804 223.5,126.5 Z"/></g>
    <g><path style="opacity:1" fill="#f9c246" fill-opacity="0.643" d="M 152.5,135.5 C 149.351,143.623 146.018,151.623 142.5,159.5C 144.022,152.707 145.856,146.041 148,139.5C 149.371,137.959 150.871,136.625 152.5,135.5 Z"/></g>
    <g><path style="opacity:1" fill="#f9c246" fill-opacity="0.578" d="M 261.5,147.5 C 260.345,151.797 258.679,155.797 256.5,159.5C 256.04,154.44 257.707,150.44 261.5,147.5 Z"/></g>
    <g><path style="opacity:1" fill="#f9c246" fill-opacity="0.768" d="M 172.5,135.5 C 171.574,146.821 171.407,158.154 172,169.5C 173.796,174.757 175.296,180.09 176.5,185.5C 175.833,185.5 175.167,185.5 174.5,185.5C 174.5,185.167 174.5,184.833 174.5,184.5C 173.063,178.665 171.396,172.998 169.5,167.5C 168.865,163.581 168.532,159.581 168.5,155.5C 168.318,149.914 168.985,144.58 170.5,139.5C 171.167,138.167 171.833,136.833 172.5,135.5 Z"/></g>
    <g><path style="opacity:1" fill="#f9c246" fill-opacity="0.476" d="M 142.5,159.5 C 141.87,161.75 140.87,163.75 139.5,165.5C 139.386,162.784 140.386,160.784 142.5,159.5 Z"/></g>
    <g><path style="opacity:1" fill="#f9c246" fill-opacity="0.616" d="M 256.5,159.5 C 254.503,164.012 251.503,167.845 247.5,171C 242.181,173.934 236.848,176.767 231.5,179.5C 231.5,178.5 231.5,177.5 231.5,176.5C 235.674,175.783 239.34,174.116 242.5,171.5C 247.001,169.984 250.168,166.984 252,162.5C 253.4,161.252 254.9,160.252 256.5,159.5 Z"/></g>
    <g><path style="opacity:1" fill="#f9c246" fill-opacity="0.524" d="M 139.5,165.5 C 138.204,170.393 136.538,175.059 134.5,179.5C 134.655,174.169 136.321,169.502 139.5,165.5 Z"/></g>
    <g><path style="opacity:1" fill="#f9c246" fill-opacity="0.714" d="M 133.5,151.5 C 132.918,156.362 131.418,161.029 129,165.5C 128.667,168.5 128.333,171.5 128,174.5C 124.84,178.565 122.673,182.898 121.5,187.5C 124.132,174.938 128.132,162.938 133.5,151.5 Z"/></g>
    <g><path style="opacity:1" fill="#f9c246" fill-opacity="0.843" d="M 242.5,171.5 C 239.34,174.116 235.674,175.783 231.5,176.5C 231.5,177.5 231.5,178.5 231.5,179.5C 227.167,181.833 223.833,185.167 221.5,189.5C 220.195,191.397 219.529,193.731 219.5,196.5C 219.503,199.025 219.837,201.359 220.5,203.5C 220.724,207.179 221.058,210.846 221.5,214.5C 217.422,205.912 216.589,196.912 219,187.5C 220.277,185.269 222.111,183.602 224.5,182.5C 225.626,180.207 226.959,178.04 228.5,176C 233.296,174.655 237.963,173.155 242.5,171.5 Z"/></g>
    <g><path style="opacity:1" fill="#f9c246" fill-opacity="0.432" d="M 169.5,167.5 C 171.396,172.998 173.063,178.665 174.5,184.5C 171.461,179.353 169.794,173.687 169.5,167.5 Z"/></g>
    <g><path style="opacity:1" fill="#694b95" d="M 298.5,200.5 C 293.82,201.834 289.82,204.167 286.5,207.5C 285.178,207.67 284.011,207.337 283,206.5C 282.5,207 282,207.5 281.5,208C 282.149,211.195 282.982,214.361 284,217.5C 297.72,225.223 306.22,221.39 309.5,206C 315.08,204.739 316.913,206.906 315,212.5C 313.53,215.764 312.363,219.097 311.5,222.5C 309.565,221.85 307.565,221.517 305.5,221.5C 305.528,223.582 304.861,225.416 303.5,227C 297.69,229.122 292.023,228.789 286.5,226C 283.656,223.655 280.99,221.155 278.5,218.5C 277.451,220.528 276.451,222.528 275.5,224.5C 270.286,225.162 265.453,226.162 261,227.5C 257.326,226.413 253.826,224.913 250.5,223C 248.866,222.506 247.199,222.34 245.5,222.5C 245.5,222.167 245.5,221.833 245.5,221.5C 243.808,218.259 242.808,214.759 242.5,211C 242.191,208.336 243.025,206.17 245,204.5C 246,205.167 247,205.833 248,206.5C 248.226,209.095 248.726,211.595 249.5,214C 249.167,214.333 248.833,214.667 248.5,215C 251.328,215.637 253.328,217.304 254.5,220C 257.311,220.629 260.144,221.129 263,221.5C 264.681,221.392 265.848,220.725 266.5,219.5C 268.288,219.785 269.955,219.452 271.5,218.5C 273.04,215.921 274.707,213.421 276.5,211C 276.265,210.127 275.931,209.293 275.5,208.5C 272.924,207.718 270.924,206.218 269.5,204C 266.479,203.151 263.479,202.317 260.5,201.5C 259.73,199.065 258.063,197.731 255.5,197.5C 254.485,193.531 254.485,189.531 255.5,185.5C 270.515,182.783 285.515,182.949 300.5,186C 302.362,189.149 303.029,192.649 302.5,196.5C 299.5,196.167 298.167,197.5 298.5,200.5 Z"/></g>
    <g><path style="opacity:1" fill="#694b95" fill-opacity="0.600" d="M 296.5,182.5 C 298.553,182.402 300.22,183.069 301.5,184.5C 299.219,184.923 297.552,184.256 296.5,182.5 Z"/></g>
    <g><path style="opacity:1" fill="#694b95" fill-opacity="0.794" d="M 296.5,182.5 C 297.552,184.256 299.219,184.923 301.5,184.5C 305.889,187.785 306.555,191.785 303.5,196.5C 302.103,198.237 300.436,199.571 298.5,200.5C 298.167,197.5 299.5,196.167 302.5,196.5C 303.029,192.649 302.362,189.149 300.5,186C 285.515,182.949 270.515,182.783 255.5,185.5C 254.485,189.531 254.485,193.531 255.5,197.5C 254.542,197.047 253.708,196.381 253,195.5C 252.333,192.5 252.333,189.5 253,186.5C 254.214,184.951 255.714,183.785 257.5,183C 270.481,179.912 283.481,179.745 296.5,182.5 Z"/></g>
    <g><path style="opacity:1" fill="#f9c246" fill-opacity="0.432" d="M 221.5,189.5 C 220.617,194.103 220.283,198.77 220.5,203.5C 219.837,201.359 219.503,199.025 219.5,196.5C 219.529,193.731 220.195,191.397 221.5,189.5 Z"/></g>
    <g><path style="opacity:1" fill="#f9c246" fill-opacity="0.595" d="M 134.5,179.5 C 131.059,196.798 132.059,213.798 137.5,230.5C 135.557,228.605 134.057,226.272 133,223.5C 131.54,212.202 131.207,200.869 132,189.5C 131.917,185.689 132.75,182.355 134.5,179.5 Z"/></g>
    <g><path style="opacity:1" fill="#694b95" fill-opacity="0.689" d="M 255.5,197.5 C 258.063,197.731 259.73,199.065 260.5,201.5C 258.251,200.92 256.585,199.587 255.5,197.5 Z"/></g>
    <g><path style="opacity:1" fill="#f9c246" fill-opacity="0.589" d="M 174.5,185.5 C 175.167,185.5 175.833,185.5 176.5,185.5C 183.512,197.812 190.845,209.812 198.5,221.5C 189.002,210.507 181.002,198.507 174.5,185.5 Z"/></g>
    <g><path style="opacity:1" fill="#694b95" fill-opacity="0.761" d="M 298.5,200.5 C 295.45,204.362 291.45,206.695 286.5,207.5C 289.82,204.167 293.82,201.834 298.5,200.5 Z"/></g>
    <g><path style="opacity:1" fill="#f9c246" fill-opacity="0.714" d="M 121.5,187.5 C 121.374,200.183 121.707,212.85 122.5,225.5C 122.167,225.5 121.833,225.5 121.5,225.5C 120.248,219.084 119.248,212.584 118.5,206C 119.181,199.642 120.181,193.475 121.5,187.5 Z"/></g>
    <g><path style="opacity:1" fill="#694b95" fill-opacity="0.894" d="M 260.5,201.5 C 263.479,202.317 266.479,203.151 269.5,204C 270.924,206.218 272.924,207.718 275.5,208.5C 275.931,209.293 276.265,210.127 276.5,211C 274.707,213.421 273.04,215.921 271.5,218.5C 269.955,219.452 268.288,219.785 266.5,219.5C 270.447,216.882 272.78,213.215 273.5,208.5C 269.905,208.024 266.572,206.858 263.5,205C 261.937,204.241 260.937,203.074 260.5,201.5 Z"/></g>
    <g><path style="opacity:1" fill="#694b95" fill-opacity="0.844" d="M 266.5,219.5 C 265.848,220.725 264.681,221.392 263,221.5C 260.144,221.129 257.311,220.629 254.5,220C 253.328,217.304 251.328,215.637 248.5,215C 248.833,214.667 249.167,214.333 249.5,214C 248.726,211.595 248.226,209.095 248,206.5C 247,205.833 246,205.167 245,204.5C 243.025,206.17 242.191,208.336 242.5,211C 242.808,214.759 243.808,218.259 245.5,221.5C 241.228,217.096 239.728,211.763 241,205.5C 243.418,203.32 246.084,202.987 249,204.5C 250.489,214.836 256.322,219.836 266.5,219.5 Z"/></g>
    <g><path style="opacity:1" fill="#f9c246" fill-opacity="0.676" d="M 220.5,203.5 C 224.908,215.382 229.908,227.048 235.5,238.5C 233.099,234.724 230.433,231.057 227.5,227.5C 225.947,222.951 223.947,218.618 221.5,214.5C 221.058,210.846 220.724,207.179 220.5,203.5 Z"/></g>
    <g><path style="opacity:1" fill="#694b95" fill-opacity="0.850" d="M 311.5,222.5 C 312.363,219.097 313.53,215.764 315,212.5C 316.913,206.906 315.08,204.739 309.5,206C 306.22,221.39 297.72,225.223 284,217.5C 282.982,214.361 282.149,211.195 281.5,208C 282,207.5 282.5,207 283,206.5C 284.011,207.337 285.178,207.67 286.5,207.5C 285.602,208.158 284.602,208.824 283.5,209.5C 287.397,219.629 293.897,221.963 303,216.5C 305.126,212.615 306.96,208.615 308.5,204.5C 311.291,202.96 313.791,203.294 316,205.5C 317.421,212.053 315.921,217.719 311.5,222.5 Z"/></g>
    <g><path style="opacity:1" fill="#694b95" fill-opacity="0.839" d="M 311.5,222.5 C 304.89,229.443 296.89,231.61 287.5,229C 285.416,228.303 283.749,227.136 282.5,225.5C 282.027,224.094 281.027,223.427 279.5,223.5C 279.44,222.957 279.107,222.624 278.5,222.5C 277.735,223.612 276.735,224.279 275.5,224.5C 276.451,222.528 277.451,220.528 278.5,218.5C 280.99,221.155 283.656,223.655 286.5,226C 292.023,228.789 297.69,229.122 303.5,227C 304.861,225.416 305.528,223.582 305.5,221.5C 307.565,221.517 309.565,221.85 311.5,222.5 Z"/></g>
    <g><path style="opacity:1" fill="#f9c246" d="M 158.5,115.5 C 156.449,121.33 154.782,127.33 153.5,133.5C 153.167,134.167 152.833,134.833 152.5,135.5C 150.871,136.625 149.371,137.959 148,139.5C 145.856,146.041 144.022,152.707 142.5,159.5C 140.386,160.784 139.386,162.784 139.5,165.5C 136.321,169.502 134.655,174.169 134.5,179.5C 132.75,182.355 131.917,185.689 132,189.5C 131.207,200.869 131.54,212.202 133,223.5C 134.057,226.272 135.557,228.605 137.5,230.5C 137.757,235.201 139.09,239.535 141.5,243.5C 147.065,248.444 152.065,253.944 156.5,260C 162.566,264.395 168.9,268.395 175.5,272C 185.413,273.237 195.079,272.404 204.5,269.5C 204.53,270.497 204.03,271.164 203,271.5C 198.181,273.551 193.181,275.218 188,276.5C 185.346,275.191 182.68,275.191 180,276.5C 178.152,273.959 175.652,272.959 172.5,273.5C 172.33,274.822 172.663,275.989 173.5,277C 170.496,277.117 167.829,277.951 165.5,279.5C 156.335,277.002 149.335,271.668 144.5,263.5C 142.138,262.12 139.805,260.787 137.5,259.5C 134.633,252.266 131.133,245.266 127,238.5C 125.591,234.106 124.091,229.772 122.5,225.5C 121.707,212.85 121.374,200.183 121.5,187.5C 122.673,182.898 124.84,178.565 128,174.5C 128.333,171.5 128.667,168.5 129,165.5C 131.418,161.029 132.918,156.362 133.5,151.5C 136.665,145.567 139.831,139.567 143,133.5C 144.547,125.415 146.381,117.415 148.5,109.5C 148.443,108.391 148.11,107.391 147.5,106.5C 144.167,105.833 140.833,105.167 137.5,104.5C 136.986,102.634 136.32,100.8 135.5,99C 135.938,97.0797 136.605,95.2464 137.5,93.5C 145.389,89.3091 153.055,89.6424 160.5,94.5C 161.877,101.682 161.211,108.682 158.5,115.5 Z"/></g>
    <g><path style="opacity:1" fill="#694b95" fill-opacity="0.394" d="M 279.5,223.5 C 281.027,223.427 282.027,224.094 282.5,225.5C 280.973,225.573 279.973,224.906 279.5,223.5 Z"/></g>
    <g><path style="opacity:1" fill="#694b95" fill-opacity="0.867" d="M 245.5,222.5 C 247.199,222.34 248.866,222.506 250.5,223C 253.826,224.913 257.326,226.413 261,227.5C 265.453,226.162 270.286,225.162 275.5,224.5C 272.131,228.348 267.798,230.348 262.5,230.5C 255.607,230.218 249.94,227.551 245.5,222.5 Z"/></g>
    <g><path style="opacity:1" fill="#f9c246" fill-opacity="0.724" d="M 198.5,222.5 C 199.583,222.539 200.583,222.873 201.5,223.5C 204.85,227.726 208.684,231.392 213,234.5C 213.607,238.381 215.274,241.714 218,244.5C 218.667,249.167 218.667,253.833 218,258.5C 213.88,262.883 209.38,266.55 204.5,269.5C 205.551,268.778 206.218,267.778 206.5,266.5C 211.929,263.152 215.262,258.319 216.5,252C 216.082,247.888 214.916,244.054 213,240.5C 208.333,234.336 203.5,228.336 198.5,222.5 Z"/></g>
    <g><path style="opacity:1" fill="#f9c246" fill-opacity="0.611" d="M 137.5,230.5 C 144.543,244.704 154.543,256.537 167.5,266C 180.429,273.163 193.429,273.329 206.5,266.5C 206.218,267.778 205.551,268.778 204.5,269.5C 195.079,272.404 185.413,273.237 175.5,272C 168.9,268.395 162.566,264.395 156.5,260C 152.065,253.944 147.065,248.444 141.5,243.5C 139.09,239.535 137.757,235.201 137.5,230.5 Z"/></g>
    <g><path style="opacity:1" fill="#f9c246" fill-opacity="0.595" d="M 121.5,225.5 C 121.833,225.5 122.167,225.5 122.5,225.5C 124.091,229.772 125.591,234.106 127,238.5C 131.133,245.266 134.633,252.266 137.5,259.5C 129.51,249.516 124.177,238.182 121.5,225.5 Z"/></g>
    <g><path style="opacity:1" fill="#f9c246" fill-opacity="0.595" d="M 235.5,238.5 C 241.437,257.138 235.437,270.638 217.5,279C 202.948,286.37 187.614,288.37 171.5,285C 170.584,284.722 169.918,284.222 169.5,283.5C 183.825,285.71 197.825,284.544 211.5,280C 216.771,276.867 222.105,274.033 227.5,271.5C 227.238,270.022 227.571,268.689 228.5,267.5C 229.833,266.5 231.167,265.5 232.5,264.5C 236.649,256.264 237.649,247.597 235.5,238.5 Z"/></g>
    <g><path style="opacity:1" fill="#f9c246" fill-opacity="0.395" d="M 143.5,267.5 C 145.981,267.774 147.647,269.107 148.5,271.5C 146.251,270.92 144.585,269.587 143.5,267.5 Z"/></g>
    <g><path style="opacity:1" fill="#f9c246" fill-opacity="0.735" d="M 137.5,259.5 C 139.805,260.787 142.138,262.12 144.5,263.5C 149.335,271.668 156.335,277.002 165.5,279.5C 166.833,280.833 168.167,282.167 169.5,283.5C 161.118,281.812 154.118,277.812 148.5,271.5C 147.647,269.107 145.981,267.774 143.5,267.5C 141.115,265.116 139.115,262.45 137.5,259.5 Z"/></g>
    <g><path style="opacity:1" fill="#694b95" d="M 286.5,291.5 C 286.427,293.027 287.094,294.027 288.5,294.5C 290.687,299.66 289.353,303.66 284.5,306.5C 280.019,306.575 275.686,305.908 271.5,304.5C 271.162,301.843 271.829,299.51 273.5,297.5C 273.069,296.707 272.735,295.873 272.5,295C 276.151,290.42 280.817,289.253 286.5,291.5 Z"/></g>
    <g><path style="opacity:1" fill="#694b95" fill-opacity="0.417" d="M 286.5,291.5 C 287.906,291.973 288.573,292.973 288.5,294.5C 287.094,294.027 286.427,293.027 286.5,291.5 Z"/></g>
    <g><path style="opacity:1" fill="#694b95" fill-opacity="0.517" d="M 117.5,295.5 C 107.161,295.334 96.828,295.5 86.5,296C 85.4178,297.33 84.7512,298.83 84.5,300.5C 84.5,319.5 84.5,338.5 84.5,357.5C 83.3374,337.004 83.1707,316.337 84,295.5C 84.5,295 85,294.5 85.5,294C 95.1667,293.333 104.833,293.333 114.5,294C 115.737,294.232 116.737,294.732 117.5,295.5 Z"/></g>
    <g><path style="opacity:1" fill="#694b95" fill-opacity="0.833" d="M 286.5,291.5 C 280.817,289.253 276.151,290.42 272.5,295C 272.735,295.873 273.069,296.707 273.5,297.5C 271.829,299.51 271.162,301.843 271.5,304.5C 266.938,295.978 269.438,290.645 279,288.5C 281.819,288.982 284.319,289.982 286.5,291.5 Z"/></g>
    <g><path style="opacity:1" fill="#694b95" d="M 117.5,295.5 C 119.879,298.956 123.046,301.289 127,302.5C 127.133,305.525 128.133,308.192 130,310.5C 130.726,315.552 130.559,320.552 129.5,325.5C 128.047,326.849 127.047,328.515 126.5,330.5C 126.5,330.833 126.5,331.167 126.5,331.5C 123.893,329.678 121.893,330.178 120.5,333C 120.833,333.333 121.167,333.667 121.5,334C 114.516,334.832 107.516,335.499 100.5,336C 101.056,336.383 101.389,336.883 101.5,337.5C 101.5,337.833 101.5,338.167 101.5,338.5C 99.9014,343.845 98.7347,349.512 98,355.5C 97.5,356 97,356.5 96.5,357C 93.5184,357.498 90.5184,357.665 87.5,357.5C 87.0338,355.799 87.0338,354.299 87.5,353C 87,352.5 86.5,352 86,351.5C 85.8316,334.328 85.3316,317.328 84.5,300.5C 84.7512,298.83 85.4178,297.33 86.5,296C 96.828,295.5 107.161,295.334 117.5,295.5 Z M 101.5,311.5 C 105.182,311.335 108.848,311.501 112.5,312C 115.374,315.051 115.041,317.718 111.5,320C 108.183,320.498 104.85,320.665 101.5,320.5C 101.5,317.5 101.5,314.5 101.5,311.5 Z"/></g>
    <g><path style="opacity:1" fill="#694b95" fill-opacity="0.839" d="M 117.5,295.5 C 124.61,297.161 129.443,301.494 132,308.5C 133.01,314.38 132.51,320.046 130.5,325.5C 130.167,325.5 129.833,325.5 129.5,325.5C 130.559,320.552 130.726,315.552 130,310.5C 128.133,308.192 127.133,305.525 127,302.5C 123.046,301.289 119.879,298.956 117.5,295.5 Z"/></g>
    <g><path style="opacity:1" fill="#694b95" d="M 191.5,298.5 C 196.5,298.5 201.5,298.5 206.5,298.5C 206.183,302.702 206.517,306.702 207.5,310.5C 209.988,312.388 212.988,313.055 216.5,312.5C 216.5,315.833 216.5,319.167 216.5,322.5C 212.858,323.08 209.191,323.58 205.5,324C 206.517,325.049 206.684,326.216 206,327.5C 205.667,327.167 205.333,326.833 205,326.5C 204.446,333.573 204.946,340.573 206.5,347.5C 208.451,347.227 209.951,347.893 211,349.5C 212.402,345.864 214.902,344.864 218.5,346.5C 220.373,349.184 221.373,352.184 221.5,355.5C 213.946,357.778 206.28,357.778 198.5,355.5C 197.833,355.5 197.167,355.5 196.5,355.5C 196.611,354.883 196.944,354.383 197.5,354C 195.581,351.269 193.581,348.769 191.5,346.5C 191.28,339.12 190.28,332.12 188.5,325.5C 187.469,324.751 186.302,324.085 185,323.5C 183.734,319.605 183.234,315.605 183.5,311.5C 186.167,311.5 188.833,311.5 191.5,311.5C 191.5,307.167 191.5,302.833 191.5,298.5 Z"/></g>
    <g><path style="opacity:1" fill="#694b95" fill-opacity="0.411" d="M 191.5,298.5 C 191.5,302.833 191.5,307.167 191.5,311.5C 188.833,311.5 186.167,311.5 183.5,311.5C 185.607,310.532 187.941,310.198 190.5,310.5C 190.183,306.298 190.517,302.298 191.5,298.5 Z"/></g>
    <g><path style="opacity:1" fill="#694b95" fill-opacity="0.711" d="M 191.5,298.5 C 196.64,297.512 201.974,297.179 207.5,297.5C 207.5,301.833 207.5,306.167 207.5,310.5C 206.517,306.702 206.183,302.702 206.5,298.5C 201.5,298.5 196.5,298.5 191.5,298.5 Z"/></g>
    <g><path style="opacity:1" fill="#694b95" fill-opacity="0.744" d="M 271.5,304.5 C 275.686,305.908 280.019,306.575 284.5,306.5C 281.36,307.641 278.027,307.808 274.5,307C 273.058,306.623 272.058,305.79 271.5,304.5 Z"/></g>
    <g><path style="opacity:1" fill="#694b95" fill-opacity="0.389" d="M 327.5,311.5 C 329.81,310.836 332.31,310.503 335,310.5C 337.95,310.568 340.617,311.234 343,312.5C 343.828,328.339 343.661,344.005 342.5,359.5C 342.667,344.163 342.5,328.83 342,313.5C 337.482,311.593 332.648,310.926 327.5,311.5 Z"/></g>
    <g><path style="opacity:1" fill="#694b95" fill-opacity="0.733" d="M 389.5,314.5 C 384.145,313.482 378.812,312.482 373.5,311.5C 369.368,311.577 365.368,312.244 361.5,313.5C 370.997,308.071 380.33,308.404 389.5,314.5 Z"/></g>
    <g><path style="opacity:1" fill="#694b95" d="M 389.5,314.5 C 389.833,315.833 390.167,317.167 390.5,318.5C 390.59,321.346 391.756,323.679 394,325.5C 394.392,328.188 394.892,330.855 395.5,333.5C 394.976,336.396 393.476,337.063 391,335.5C 390.333,336.5 390.333,337.5 391,338.5C 392.356,337.62 393.856,337.286 395.5,337.5C 393.907,342.026 392.907,346.693 392.5,351.5C 387.578,354.027 382.245,355.86 376.5,357C 373.833,357.667 371.167,357.667 368.5,357C 363.558,354.873 363.558,353.206 368.5,352C 369.26,350.559 369.926,349.059 370.5,347.5C 371.325,346.614 372.325,346.281 373.5,346.5C 372.756,349.95 374.09,351.616 377.5,351.5C 377.34,349.801 377.506,348.134 378,346.5C 379.758,344.917 381.258,343.25 382.5,341.5C 382.5,340.167 382.5,338.833 382.5,337.5C 383.479,334.375 383.813,331.042 383.5,327.5C 382.5,327.5 381.5,327.5 380.5,327.5C 380.67,326.178 380.337,325.011 379.5,324C 376.447,323.821 373.447,323.321 370.5,322.5C 368.711,320.967 366.711,319.967 364.5,319.5C 364.219,325.781 364.219,331.448 364.5,336.5C 362.717,338.232 360.717,339.732 358.5,341C 359.5,341.333 360.5,341.667 361.5,342C 360.09,342.368 359.09,343.201 358.5,344.5C 359.428,345.768 359.595,347.101 359,348.5C 358.583,347.244 357.75,346.577 356.5,346.5C 356.611,345.883 356.944,345.383 357.5,345C 355.667,344.5 354.5,343.333 354,341.5C 353.667,341.833 353.333,342.167 353,342.5C 352.866,336.832 353.199,331.165 354,325.5C 356.686,321.641 359.186,317.641 361.5,313.5C 365.368,312.244 369.368,311.577 373.5,311.5C 378.812,312.482 384.145,313.482 389.5,314.5 Z M 381.5,331.5 C 382.397,341.294 378.397,344.627 369.5,341.5C 369.573,339.973 368.906,338.973 367.5,338.5C 367.5,336.5 367.5,334.5 367.5,332.5C 369.179,326.993 372.846,325.16 378.5,327C 379.883,328.271 380.883,329.771 381.5,331.5 Z"/></g>
    <g><path style="opacity:1" fill="#694b95" fill-opacity="0.617" d="M 149.5,311.5 C 148.514,313.408 146.848,314.408 144.5,314.5C 145.659,312.75 147.326,311.75 149.5,311.5 Z"/></g>
    <g><path style="opacity:1" fill="#694b95" fill-opacity="0.767" d="M 240.5,310.5 C 238.781,311.022 237.448,312.022 236.5,313.5C 233.779,313.963 231.112,314.629 228.5,315.5C 231.59,311.907 235.59,310.241 240.5,310.5 Z"/></g>
    <g><path style="opacity:1" fill="#694b95" fill-opacity="0.856" d="M 260.5,321.5 C 260.752,318.68 260.252,316.014 259,313.5C 251.714,312.376 244.214,312.376 236.5,313.5C 237.448,312.022 238.781,311.022 240.5,310.5C 247.325,308.898 253.991,309.731 260.5,313C 262.918,315.831 262.918,318.665 260.5,321.5 Z"/></g>
    <g><path style="opacity:1" fill="#694b95" fill-opacity="0.872" d="M 170.5,313.5 C 164.161,312.404 157.828,312.404 151.5,313.5C 150.585,315.98 149.085,316.647 147,315.5C 144.57,318.101 141.736,320.101 138.5,321.5C 139.348,318.112 141.348,315.779 144.5,314.5C 146.848,314.408 148.514,313.408 149.5,311.5C 156.886,308.466 163.886,309.132 170.5,313.5 Z"/></g>
    <g><path style="opacity:1" fill="#694b95" fill-opacity="0.917" d="M 327.5,311.5 C 332.648,310.926 337.482,311.593 342,313.5C 342.5,328.83 342.667,344.163 342.5,359.5C 342.741,361.898 342.074,363.898 340.5,365.5C 341.785,348.415 341.785,331.582 340.5,315C 337.564,313.955 334.564,313.121 331.5,312.5C 328.582,315.231 328.915,317.397 332.5,319C 329.901,318.801 327.401,317.967 325,316.5C 324.667,316.833 324.333,317.167 324,317.5C 322.748,313.706 320.082,312.04 316,312.5C 310.558,312.928 305.391,314.261 300.5,316.5C 308.686,308.167 317.519,307.501 327,314.5C 327.483,313.552 327.649,312.552 327.5,311.5 Z"/></g>
    <g><path style="opacity:1" fill="#694b95" fill-opacity="0.356" d="M 228.5,315.5 C 228.573,317.027 227.906,318.027 226.5,318.5C 226.427,316.973 227.094,315.973 228.5,315.5 Z"/></g>
    <g><path style="opacity:1" fill="#694b95" d="M 340.5,365.5 C 340.672,366.492 340.338,367.158 339.5,367.5C 338.094,367.973 337.427,368.973 337.5,370.5C 334.765,373.201 331.431,374.868 327.5,375.5C 321.491,375.666 315.491,375.499 309.5,375C 301.784,373.541 299.784,369.374 303.5,362.5C 309.319,361.833 314.986,361.167 320.5,360.5C 321.833,360.167 323.167,359.833 324.5,359.5C 328.75,358.442 330.084,355.942 328.5,352C 326.579,351.64 324.912,350.806 323.5,349.5C 322.707,350.355 323.04,351.189 324.5,352C 321.026,354.167 317.193,355.333 313,355.5C 308.927,353.939 304.76,352.606 300.5,351.5C 299.662,351.158 299.328,350.492 299.5,349.5C 298.931,345.04 297.931,340.373 296.5,335.5C 296.423,331.32 297.757,327.653 300.5,324.5C 299.484,321.866 299.484,319.2 300.5,316.5C 305.391,314.261 310.558,312.928 316,312.5C 320.082,312.04 322.748,313.706 324,317.5C 324.333,317.167 324.667,316.833 325,316.5C 327.401,317.967 329.901,318.801 332.5,319C 328.915,317.397 328.582,315.231 331.5,312.5C 334.564,313.121 337.564,313.955 340.5,315C 341.785,331.582 341.785,348.415 340.5,365.5 Z M 325.5,329.5 C 326.299,332.43 326.632,335.43 326.5,338.5C 325.599,339.29 324.932,340.29 324.5,341.5C 323.005,341.989 321.671,342.655 320.5,343.5C 314.213,342.545 311.213,338.878 311.5,332.5C 314.908,325.774 319.575,324.774 325.5,329.5 Z"/></g>
    <g><path style="opacity:1" fill="#694b95" d="M 260.5,321.5 C 259.849,320.909 259.182,320.243 258.5,319.5C 257.548,321.045 257.215,322.712 257.5,324.5C 252.488,324.003 247.821,322.336 243.5,319.5C 242.557,322.4 240.89,324.733 238.5,326.5C 241.266,328.129 244.266,328.795 247.5,328.5C 248.791,328.263 249.791,328.596 250.5,329.5C 253.021,331.019 255.521,332.686 258,334.5C 259.121,337.873 260.621,341.039 262.5,344C 261.993,346.541 261.326,349.041 260.5,351.5C 255.064,354.218 249.731,356.885 244.5,359.5C 242.833,359.5 241.167,359.5 239.5,359.5C 236.411,357.278 232.911,355.944 229,355.5C 227.888,353.61 227.054,351.61 226.5,349.5C 226.818,348.353 227.484,347.519 228.5,347C 227.748,346.329 227.414,345.496 227.5,344.5C 228.312,343.007 229.645,342.34 231.5,342.5C 236.317,344.573 241.317,344.906 246.5,343.5C 246.137,342.817 245.804,342.15 245.5,341.5C 244.848,340.275 243.681,339.608 242,339.5C 239.502,339.083 237.002,338.749 234.5,338.5C 234.611,337.883 234.944,337.383 235.5,337C 234.207,336.51 232.873,336.343 231.5,336.5C 231.723,333.886 230.556,332.219 228,331.5C 226.71,327.27 226.21,322.936 226.5,318.5C 227.906,318.027 228.573,317.027 228.5,315.5C 231.112,314.629 233.779,313.963 236.5,313.5C 244.214,312.376 251.714,312.376 259,313.5C 260.252,316.014 260.752,318.68 260.5,321.5 Z"/></g>
    <g><path style="opacity:1" fill="#694b95" fill-opacity="0.756" d="M 389.5,314.5 C 392.973,316.637 395.306,319.637 396.5,323.5C 394.183,322.18 392.183,320.514 390.5,318.5C 390.167,317.167 389.833,315.833 389.5,314.5 Z"/></g>
    <g><path style="opacity:1" fill="#694b95" d="M 170.5,313.5 C 170.525,316.179 171.858,317.512 174.5,317.5C 174.336,320.187 174.503,322.854 175,325.5C 175.71,326.973 176.876,327.64 178.5,327.5C 178.5,331.167 178.5,334.833 178.5,338.5C 169.5,338.5 160.5,338.5 151.5,338.5C 151.674,340.861 152.007,343.194 152.5,345.5C 156.167,345.5 159.833,345.5 163.5,345.5C 167.135,344.886 170.802,344.552 174.5,344.5C 174.5,347.833 174.5,351.167 174.5,354.5C 173.5,354.5 172.5,354.5 171.5,354.5C 171.5,355.5 171.5,356.5 171.5,357.5C 170.833,357.5 170.167,357.5 169.5,357.5C 161.381,357.886 153.381,357.219 145.5,355.5C 144.508,355.672 143.842,355.338 143.5,354.5C 141.488,350.23 139.321,345.897 137,341.5C 136.333,338.167 136.333,334.833 137,331.5C 137.029,328.633 137.862,326.133 139.5,324C 138.748,323.329 138.414,322.496 138.5,321.5C 141.736,320.101 144.57,318.101 147,315.5C 149.085,316.647 150.585,315.98 151.5,313.5C 157.828,312.404 164.161,312.404 170.5,313.5 Z M 159.5,324.5 C 160.609,324.557 161.609,324.89 162.5,325.5C 163.234,326.708 163.567,328.041 163.5,329.5C 159.833,329.5 156.167,329.5 152.5,329.5C 153.18,325.678 155.513,324.011 159.5,324.5 Z"/></g>
    <g><path style="opacity:1" fill="#694b95" fill-opacity="0.867" d="M 260.5,321.5 C 260.249,323.17 259.582,324.67 258.5,326C 254.386,326.445 250.386,325.945 246.5,324.5C 245.167,324.833 243.833,325.167 242.5,325.5C 243.947,326.935 245.614,327.935 247.5,328.5C 244.266,328.795 241.266,328.129 238.5,326.5C 240.89,324.733 242.557,322.4 243.5,319.5C 247.821,322.336 252.488,324.003 257.5,324.5C 257.215,322.712 257.548,321.045 258.5,319.5C 259.182,320.243 259.849,320.909 260.5,321.5 Z"/></g>
    <g><path style="opacity:1" fill="#694b95" fill-opacity="0.772" d="M 183.5,311.5 C 183.234,315.605 183.734,319.605 185,323.5C 186.302,324.085 187.469,324.751 188.5,325.5C 186.533,325.739 184.699,325.406 183,324.5C 182.186,319.98 182.353,315.646 183.5,311.5 Z"/></g>
    <g><path style="opacity:1" fill="#694b95" fill-opacity="0.850" d="M 207.5,310.5 C 211.106,310.211 214.606,310.544 218,311.5C 219.772,316.084 219.939,320.751 218.5,325.5C 214.894,325.211 211.394,325.544 208,326.5C 207.333,331.5 207.333,336.5 208,341.5C 208.408,343.41 209.575,344.41 211.5,344.5C 214.028,343.058 216.695,342.558 219.5,343C 221.903,346.869 223.07,351.036 223,355.5C 220.808,357.235 218.308,358.402 215.5,359C 211.167,359.667 206.833,359.667 202.5,359C 201.263,358.768 200.263,358.268 199.5,357.5C 199.167,356.833 198.833,356.167 198.5,355.5C 206.28,357.778 213.946,357.778 221.5,355.5C 221.373,352.184 220.373,349.184 218.5,346.5C 214.902,344.864 212.402,345.864 211,349.5C 209.951,347.893 208.451,347.227 206.5,347.5C 204.946,340.573 204.446,333.573 205,326.5C 205.333,326.833 205.667,327.167 206,327.5C 206.684,326.216 206.517,325.049 205.5,324C 209.191,323.58 212.858,323.08 216.5,322.5C 216.5,319.167 216.5,315.833 216.5,312.5C 212.988,313.055 209.988,312.388 207.5,310.5 Z"/></g>
    <g><path style="opacity:1" fill="#694b95" fill-opacity="0.556" d="M 129.5,325.5 C 129.833,325.5 130.167,325.5 130.5,325.5C 129.864,327.795 128.531,329.461 126.5,330.5C 127.047,328.515 128.047,326.849 129.5,325.5 Z"/></g>
    <g><path style="opacity:1" fill="#694b95" fill-opacity="0.867" d="M 361.5,313.5 C 359.186,317.641 356.686,321.641 354,325.5C 353.199,331.165 352.866,336.832 353,342.5C 353.333,342.167 353.667,341.833 354,341.5C 354.5,343.333 355.667,344.5 357.5,345C 356.944,345.383 356.611,345.883 356.5,346.5C 357.598,347.397 357.598,348.23 356.5,349C 359.05,352.047 361.717,354.88 364.5,357.5C 354.774,353.077 349.774,345.41 349.5,334.5C 350.113,328.701 351.946,323.367 355,318.5C 356.777,316.21 358.944,314.543 361.5,313.5 Z"/></g>
    <g><path style="opacity:1" fill="#694b95" fill-opacity="0.933" d="M 159.5,324.5 C 155.513,324.011 153.18,325.678 152.5,329.5C 156.167,329.5 159.833,329.5 163.5,329.5C 163.567,328.041 163.234,326.708 162.5,325.5C 164.484,325.484 165.484,326.484 165.5,328.5C 165.182,329.647 164.516,330.481 163.5,331C 158.463,331.663 153.463,331.496 148.5,330.5C 148.022,327.722 149.022,325.722 151.5,324.5C 154.309,323.2 156.976,323.2 159.5,324.5 Z"/></g>
    <g><path style="opacity:1" fill="#694b95" fill-opacity="0.844" d="M 84.5,300.5 C 85.3316,317.328 85.8316,334.328 86,351.5C 86.5,352 87,352.5 87.5,353C 87.0338,354.299 87.0338,355.799 87.5,357.5C 90.5184,357.665 93.5184,357.498 96.5,357C 97,356.5 97.5,356 98,355.5C 98.7347,349.512 99.9014,343.845 101.5,338.5C 101.666,344.842 101.5,351.175 101,357.5C 95.3966,360.153 89.8966,360.153 84.5,357.5C 84.5,338.5 84.5,319.5 84.5,300.5 Z"/></g>
    <g><path style="opacity:1" fill="#694b95" fill-opacity="0.750" d="M 226.5,318.5 C 226.21,322.936 226.71,327.27 228,331.5C 230.556,332.219 231.723,333.886 231.5,336.5C 232.873,336.343 234.207,336.51 235.5,337C 234.944,337.383 234.611,337.883 234.5,338.5C 225.13,334.435 222.463,327.769 226.5,318.5 Z"/></g>
    <g><path style="opacity:1" fill="#694b95" fill-opacity="0.822" d="M 138.5,321.5 C 138.414,322.496 138.748,323.329 139.5,324C 137.862,326.133 137.029,328.633 137,331.5C 136.333,334.833 136.333,338.167 137,341.5C 139.321,345.897 141.488,350.23 143.5,354.5C 140.023,351.56 137.523,347.893 136,343.5C 135.333,337.5 135.333,331.5 136,325.5C 136.608,323.934 137.442,322.6 138.5,321.5 Z"/></g>
    <g><path style="opacity:1" fill="#694b95" fill-opacity="0.889" d="M 390.5,318.5 C 392.183,320.514 394.183,322.18 396.5,323.5C 399.903,329.709 400.237,336.042 397.5,342.5C 395.744,343.552 395.077,345.219 395.5,347.5C 395.262,349.404 394.262,350.738 392.5,351.5C 392.907,346.693 393.907,342.026 395.5,337.5C 393.856,337.286 392.356,337.62 391,338.5C 390.333,337.5 390.333,336.5 391,335.5C 393.476,337.063 394.976,336.396 395.5,333.5C 394.892,330.855 394.392,328.188 394,325.5C 391.756,323.679 390.59,321.346 390.5,318.5 Z"/></g>
    <g><path style="opacity:1" fill="#694b95" fill-opacity="0.778" d="M 126.5,331.5 C 123.94,334.537 120.607,336.371 116.5,337C 111.511,337.499 106.511,337.666 101.5,337.5C 101.389,336.883 101.056,336.383 100.5,336C 107.516,335.499 114.516,334.832 121.5,334C 121.167,333.667 120.833,333.333 120.5,333C 121.893,330.178 123.893,329.678 126.5,331.5 Z"/></g>
    <g><path style="opacity:1" fill="#694b95" fill-opacity="0.394" d="M 260.5,334.5 C 261.906,334.973 262.573,335.973 262.5,337.5C 261.094,337.027 260.427,336.027 260.5,334.5 Z"/></g>
    <g><path style="opacity:1" fill="#694b95" fill-opacity="0.828" d="M 300.5,316.5 C 299.484,319.2 299.484,321.866 300.5,324.5C 297.757,327.653 296.423,331.32 296.5,335.5C 297.931,340.373 298.931,345.04 299.5,349.5C 298.069,348.097 296.902,346.431 296,344.5C 294.065,337.493 294.065,330.493 296,323.5C 296.84,320.659 298.34,318.325 300.5,316.5 Z"/></g>
    <g><path style="opacity:1" fill="#694b95" d="M 324.5,341.5 C 324.5,342.5 324.5,343.5 324.5,344.5C 322.325,344.682 320.325,345.349 318.5,346.5C 316.813,346.24 315.313,345.573 314,344.5C 313.667,345.167 313.333,345.833 313,346.5C 310.04,343.387 307.206,340.22 304.5,337C 305.766,336.691 306.933,336.191 308,335.5C 308.537,326.294 313.37,322.128 322.5,323C 329.414,326.77 331.247,332.27 328,339.5C 327.184,340.823 326.017,341.489 324.5,341.5 Z M 325.5,329.5 C 326.299,332.43 326.632,335.43 326.5,338.5C 325.599,339.29 324.932,340.29 324.5,341.5C 323.005,341.989 321.671,342.655 320.5,343.5C 314.213,342.545 311.213,338.878 311.5,332.5C 314.908,325.774 319.575,324.774 325.5,329.5 Z"/></g>
    <g><path style="opacity:1" fill="#694b95" fill-opacity="0.394" d="M 325.5,329.5 C 326.117,329.611 326.617,329.944 327,330.5C 327.801,333.367 327.634,336.034 326.5,338.5C 326.632,335.43 326.299,332.43 325.5,329.5 Z"/></g>
    <g><path style="opacity:1" fill="#694b95" fill-opacity="0.761" d="M 311.5,332.5 C 311.213,338.878 314.213,342.545 320.5,343.5C 311.764,344.66 308.764,340.993 311.5,332.5 Z"/></g>
    <g><path style="opacity:1" fill="#694b95" fill-opacity="0.800" d="M 170.5,313.5 C 174.235,315.407 176.735,318.407 178,322.5C 179.351,328.072 179.851,333.738 179.5,339.5C 170.475,339.168 161.475,339.502 152.5,340.5C 155.273,344.009 158.94,345.342 163.5,344.5C 163.5,344.833 163.5,345.167 163.5,345.5C 159.833,345.5 156.167,345.5 152.5,345.5C 152.007,343.194 151.674,340.861 151.5,338.5C 160.5,338.5 169.5,338.5 178.5,338.5C 178.5,334.833 178.5,331.167 178.5,327.5C 176.876,327.64 175.71,326.973 175,325.5C 174.503,322.854 174.336,320.187 174.5,317.5C 171.858,317.512 170.525,316.179 170.5,313.5 Z"/></g>
    <g><path style="opacity:1" fill="#694b95" fill-opacity="0.756" d="M 286.5,311.5 C 287.496,326.991 287.83,342.658 287.5,358.5C 286.5,358.5 285.5,358.5 284.5,358.5C 286.46,343.074 287.127,327.407 286.5,311.5 Z"/></g>
    <g><path style="opacity:1" fill="#694b95" fill-opacity="0.828" d="M 234.5,338.5 C 237.002,338.749 239.502,339.083 242,339.5C 243.681,339.608 244.848,340.275 245.5,341.5C 241.521,341.258 237.854,340.258 234.5,338.5 Z"/></g>
    <g><path style="opacity:1" fill="#694b95" d="M 382.5,337.5 C 382.795,335.265 382.461,333.265 381.5,331.5C 380.883,329.771 379.883,328.271 378.5,327C 372.846,325.16 369.179,326.993 367.5,332.5C 364.584,339.305 366.75,343.638 374,345.5C 377.181,344.798 380.014,343.465 382.5,341.5C 381.258,343.25 379.758,344.917 378,346.5C 377.506,348.134 377.34,349.801 377.5,351.5C 374.09,351.616 372.756,349.95 373.5,346.5C 372.325,346.281 371.325,346.614 370.5,347.5C 369.926,349.059 369.26,350.559 368.5,352C 363.558,353.206 363.558,354.873 368.5,357C 371.167,357.667 373.833,357.667 376.5,357C 382.245,355.86 387.578,354.027 392.5,351.5C 389.667,355.756 385.667,358.256 380.5,359C 374.895,359.923 369.561,359.423 364.5,357.5C 361.717,354.88 359.05,352.047 356.5,349C 357.598,348.23 357.598,347.397 356.5,346.5C 357.75,346.577 358.583,347.244 359,348.5C 359.595,347.101 359.428,345.768 358.5,344.5C 359.09,343.201 360.09,342.368 361.5,342C 360.5,341.667 359.5,341.333 358.5,341C 360.717,339.732 362.717,338.232 364.5,336.5C 364.219,331.448 364.219,325.781 364.5,319.5C 366.711,319.967 368.711,320.967 370.5,322.5C 373.447,323.321 376.447,323.821 379.5,324C 380.337,325.011 380.67,326.178 380.5,327.5C 381.5,327.5 382.5,327.5 383.5,327.5C 383.813,331.042 383.479,334.375 382.5,337.5 Z"/></g>
    <g><path style="opacity:1" fill="#694b95" fill-opacity="0.850" d="M 286.5,311.5 C 287.127,327.407 286.46,343.074 284.5,358.5C 279.988,359.935 275.488,359.602 271,357.5C 270.333,342.5 270.333,327.5 271,312.5C 273.383,311.234 276.05,310.568 279,310.5C 281.69,310.503 284.19,310.836 286.5,311.5 Z"/></g>
    <g><path style="opacity:1" fill="#694b95" d="M 272.5,311.5 C 276.571,311.234 280.571,311.567 284.5,312.5C 285.499,325.483 285.832,338.483 285.5,351.5C 284.127,351.343 282.793,351.51 281.5,352C 284.249,353.346 284.583,354.68 282.5,356C 279.007,357.004 275.841,356.504 273,354.5C 272.5,340.171 272.333,325.837 272.5,311.5 Z"/></g>
    <g><path style="opacity:1" fill="#694b95" fill-opacity="0.661" d="M 397.5,342.5 C 397.598,344.553 396.931,346.22 395.5,347.5C 395.077,345.219 395.744,343.552 397.5,342.5 Z"/></g>
    <g><path style="opacity:1" fill="#694b95" fill-opacity="0.761" d="M 381.5,331.5 C 382.461,333.265 382.795,335.265 382.5,337.5C 382.5,338.833 382.5,340.167 382.5,341.5C 380.014,343.465 377.181,344.798 374,345.5C 366.75,343.638 364.584,339.305 367.5,332.5C 367.5,334.5 367.5,336.5 367.5,338.5C 367.427,340.027 368.094,341.027 369.5,341.5C 378.397,344.627 382.397,341.294 381.5,331.5 Z"/></g>
    <g><path style="opacity:1" fill="#694b95" fill-opacity="0.311" d="M 367.5,338.5 C 368.906,338.973 369.573,339.973 369.5,341.5C 368.094,341.027 367.427,340.027 367.5,338.5 Z"/></g>
    <g><path style="opacity:1" fill="#694b95" fill-opacity="0.833" d="M 171.5,357.5 C 171.5,356.5 171.5,355.5 171.5,354.5C 172.5,354.5 173.5,354.5 174.5,354.5C 174.5,351.167 174.5,347.833 174.5,344.5C 170.802,344.552 167.135,344.886 163.5,345.5C 163.5,345.167 163.5,344.833 163.5,344.5C 166.227,343.423 169.06,342.423 172,341.5C 174.735,342.967 176.402,345.3 177,348.5C 178.689,353.646 176.855,356.646 171.5,357.5 Z"/></g>
    <g><path style="opacity:1" fill="#694b95" fill-opacity="0.839" d="M 191.5,346.5 C 193.581,348.769 195.581,351.269 197.5,354C 196.944,354.383 196.611,354.883 196.5,355.5C 193.55,353.272 191.884,350.272 191.5,346.5 Z"/></g>
    <g><path style="opacity:1" fill="#694b95" fill-opacity="0.844" d="M 250.5,329.5 C 254.372,330.102 257.705,331.769 260.5,334.5C 260.427,336.027 261.094,337.027 262.5,337.5C 265.826,352.192 259.826,359.525 244.5,359.5C 249.731,356.885 255.064,354.218 260.5,351.5C 261.326,349.041 261.993,346.541 262.5,344C 260.621,341.039 259.121,337.873 258,334.5C 255.521,332.686 253.021,331.019 250.5,329.5 Z"/></g>
    <g><path style="opacity:1" fill="#694b95" fill-opacity="0.883" d="M 324.5,359.5 C 324.833,358.833 325.167,358.167 325.5,357.5C 326.613,356.054 326.78,354.387 326,352.5C 325.283,353.044 324.783,353.711 324.5,354.5C 323.4,355.558 322.066,356.392 320.5,357C 312.625,358.98 305.959,357.146 300.5,351.5C 304.76,352.606 308.927,353.939 313,355.5C 317.193,355.333 321.026,354.167 324.5,352C 323.04,351.189 322.707,350.355 323.5,349.5C 324.912,350.806 326.579,351.64 328.5,352C 330.084,355.942 328.75,358.442 324.5,359.5 Z"/></g>
    <g><path style="opacity:1" fill="#694b95" fill-opacity="0.083" d="M 325.5,357.5 C 325.737,356.209 325.404,355.209 324.5,354.5C 324.783,353.711 325.283,353.044 326,352.5C 326.78,354.387 326.613,356.054 325.5,357.5 Z"/></g>
    <g><path style="opacity:1" fill="#694b95" fill-opacity="0.461" d="M 196.5,355.5 C 197.167,355.5 197.833,355.5 198.5,355.5C 198.833,356.167 199.167,356.833 199.5,357.5C 197.973,357.573 196.973,356.906 196.5,355.5 Z"/></g>
    <g><path style="opacity:1" fill="#694b95" fill-opacity="0.806" d="M 227.5,344.5 C 227.414,345.496 227.748,346.329 228.5,347C 227.484,347.519 226.818,348.353 226.5,349.5C 227.054,351.61 227.888,353.61 229,355.5C 232.911,355.944 236.411,357.278 239.5,359.5C 234.241,359.644 229.407,358.311 225,355.5C 224.13,351.361 224.963,347.694 227.5,344.5 Z"/></g>
    <g><path style="opacity:1" fill="#694b95" fill-opacity="0.783" d="M 145.5,355.5 C 153.381,357.219 161.381,357.886 169.5,357.5C 164.103,359.443 158.436,359.943 152.5,359C 149.555,358.861 147.221,357.694 145.5,355.5 Z"/></g>
    <g><path style="opacity:1" fill="#694b95" fill-opacity="0.806" d="M 320.5,360.5 C 314.986,361.167 309.319,361.833 303.5,362.5C 299.784,369.374 301.784,373.541 309.5,375C 315.491,375.499 321.491,375.666 327.5,375.5C 318.45,377.214 309.45,376.548 300.5,373.5C 298.779,368.094 299.779,363.261 303.5,359C 309.052,360.021 314.719,360.521 320.5,360.5 Z"/></g>
    <g><path style="opacity:1" fill="#694b95" fill-opacity="0.239" d="M 339.5,367.5 C 339.573,369.027 338.906,370.027 337.5,370.5C 337.427,368.973 338.094,367.973 339.5,367.5 Z"/></g>
  </g>
</svg>
