<?xml version="1.0" encoding="UTF-8"?>
<svg version="1.1" xmlns="http://www.w3.org/2000/svg" viewBox="-1019 -400 3922 2761" width="100%" height="100%">

<style>
  .logo-text { fill: #FFFFFF !important; }
</style>
<rect x="-1019" y="-400" width="3922" height="2761" fill="#18181b" />


<path d="M0 0 C0.08756305 3.70818297 0.14058015 7.41609763 0.1875 11.125 C0.22520508 12.69507813 0.22520508 12.69507813 0.26367188 14.296875 C0.31730852 19.94660172 0.29753903 24.17034968 -3 29 C-10.04808005 36.04808005 -17.88124068 37.42375499 -27.5 37.95703125 C-29.04920135 38.05896034 -29.04920135 38.05896034 -30.62969971 38.16294861 C-32.88745332 38.31079975 -35.1455546 38.45341304 -37.40393066 38.59143066 C-43.07488263 38.94005397 -48.74330664 39.3253186 -54.41184235 39.71101761 C-55.76085003 39.80272088 -57.10988513 39.89402168 -58.45894623 39.98493576 C-73.67060241 41.01112093 -88.85995268 42.27135879 -104.05099869 43.56323242 C-110.94901817 44.14910128 -117.84757144 44.72868123 -124.74609375 45.30859375 C-125.54528418 45.37582012 -126.3444746 45.44304649 -127.16788292 45.51231003 C-148.87805749 47.33707703 -170.5950341 49.07703106 -192.3125 50.8125 C-193.34236904 50.89485271 -194.37223808 50.97720543 -195.43331528 51.06205368 C-222.1983555 53.20213303 -248.96547248 55.31504509 -275.734375 57.40625 C-277.66701989 57.55726953 -277.66701989 57.55726953 -279.63870811 57.71133995 C-292.27301128 58.69849142 -304.90741029 59.68437873 -317.54219723 60.6653204 C-323.34200662 61.11578728 -329.14171738 61.56751567 -334.94140625 62.01953125 C-336.04369379 62.10531244 -337.14598133 62.19109364 -338.28167152 62.27947426 C-349.13100608 63.12494601 -359.97854313 63.98349117 -370.81982422 64.92724609 C-371.64693751 64.99917899 -372.47405081 65.07111189 -373.32622814 65.14522457 C-377.07660764 65.47272569 -380.82643136 65.80534635 -384.57557678 66.14668274 C-390.74379379 66.69604813 -396.80675564 67.15543175 -403 67 C-403.07347656 68.95486328 -403.07347656 68.95486328 -403.1484375 70.94921875 C-404.10390125 95.48978417 -405.28805665 120.03376821 -407.25195312 144.51586914 C-408.65994877 162.08716369 -409.71246377 179.68135033 -410.6875 197.28125 C-410.74788452 198.37068909 -410.80826904 199.46012817 -410.8704834 200.58258057 C-410.93191528 201.69131531 -410.99334717 202.80005005 -411.05664062 203.94238281 C-411.18355128 206.23242423 -411.31050492 208.52246326 -411.4375 210.8125 C-411.50138916 211.96488159 -411.56527832 213.11726318 -411.63110352 214.30456543 C-412.48919982 229.71432107 -413.46732428 245.10712252 -414.61984253 260.49743652 C-416.00470467 279.08833513 -417.05920539 297.69710518 -418.12909317 316.3081131 C-419.21431792 335.1755339 -420.36612565 354.03084198 -421.81201172 372.87478638 C-422.7543709 385.17529209 -423.4919703 397.47457846 -424.11630249 409.79510498 C-424.72480533 421.73218578 -425.52892864 433.64470726 -426.4375 445.5625 C-427.55368123 460.2173238 -428.49043651 474.87534282 -429.31295776 489.54959106 C-429.6835396 496.13813587 -430.06593987 502.7260098 -430.44657898 509.3139801 C-430.75425901 514.65613703 -431.05557263 519.99849717 -431.34277344 525.34179688 C-431.61218351 530.33852568 -431.90296635 535.33358538 -432.20922852 540.32818604 C-432.31818228 542.16639968 -432.41948728 544.00508561 -432.51245117 545.84417725 C-433.58135739 566.83338728 -433.58135739 566.83338728 -441.6875 574.5625 C-445.28803824 576.80067242 -447.20378766 577.11998006 -451.4453125 577.09765625 C-452.52167969 577.09443359 -453.59804688 577.09121094 -454.70703125 577.08789062 C-455.83496094 577.07951172 -456.96289062 577.07113281 -458.125 577.0625 C-459.26066406 577.05798828 -460.39632812 577.05347656 -461.56640625 577.04882812 C-464.37765638 577.03701615 -467.1888023 577.02054507 -470 577 C-470.28922577 544.15680711 -469.1011547 511.34055196 -467.80126953 478.52856445 C-466.54316833 446.73848453 -465.41845754 414.94133326 -464.60546875 383.13647461 C-464.55661577 381.22608068 -464.55661577 381.22608068 -464.50677586 379.27709293 C-464.45537094 377.26622449 -464.40396603 375.25535605 -464.35256189 373.24448758 C-462.98925061 320.06171414 -461.20953492 266.89115472 -459.47351897 213.719542 C-459.11032216 202.59368252 -458.75024236 191.46772466 -458.39159131 180.3417178 C-458.01617891 168.69657191 -457.63870334 157.05149448 -457.25909996 145.40648443 C-457.04886567 138.95576669 -456.83932921 132.50502871 -456.63189697 126.0542202 C-456.22051662 113.28355984 -455.79424983 100.5137025 -455.33390617 87.74470574 C-455.10147037 81.20596523 -454.90532102 74.6672961 -454.73641014 68.12661594 C-454.62393868 63.94952771 -454.48887638 59.77336408 -454.34888077 55.59711707 C-454.28916546 53.66440858 -454.23918775 51.73136931 -454.19997787 49.79813612 C-453.80065286 30.49966929 -453.80065286 30.49966929 -447 23 C-440.01358852 16.68356363 -433.17795627 16.59345982 -424.1875 16 C-423.53263611 15.95609131 -422.87777222 15.91218262 -422.20306396 15.86694336 C-412.66961498 15.23692562 -403.14301457 14.83661456 -393.59165955 14.61451721 C-392.77648739 14.59551424 -391.96131523 14.57651127 -391.12144089 14.55693245 C-388.76167601 14.50311696 -386.40186631 14.45192716 -384.04203796 14.40098572 C-373.90324217 14.17331756 -363.78747067 13.78037189 -353.66169739 13.22559929 C-327.85511344 11.82476818 -302.02758344 10.9653882 -276.19970703 10.06671143 C-271.253523 9.89396707 -266.307436 9.71853298 -261.36135006 9.54300594 C-240.45172882 8.80116662 -219.54237057 8.0628817 -198.62890625 7.4375 C-188.91799016 7.14542662 -179.22359802 6.75831048 -169.52548218 6.18432617 C-151.42445915 5.12819726 -133.3096107 4.54880511 -115.1875 4 C-109.75648963 3.8353122 -104.32548698 3.67038766 -98.89453125 3.50390625 C-98.22511065 3.48339706 -97.55569004 3.46288788 -96.86598396 3.4417572 C-83.03259606 3.01603943 -69.20351894 2.49839175 -55.375 1.9375 C-54.37689301 1.89729736 -53.37878601 1.85709473 -52.35043335 1.81567383 C-41.22094323 1.36557093 -30.09390808 0.88041401 -18.96969604 0.31333923 C-12.64333532 -0.0004516 -6.33445724 -0.11803336 0 0 Z " fill="#02AA8D" transform="translate(1433,994)"/>
<path d="M0 0 C1.61455078 0.00483398 1.61455078 0.00483398 3.26171875 0.00976562 C4.38964844 0.01814453 5.51757812 0.02652344 6.6796875 0.03515625 C7.81535156 0.03966797 8.95101563 0.04417969 10.12109375 0.04882812 C12.93234647 0.06064011 15.74348223 0.07795624 18.5546875 0.09765625 C18.67732268 14.52022567 18.37951168 28.86408212 17.65258789 43.26733398 C17.55523628 45.27575018 17.45835257 47.2841891 17.3618927 49.29264832 C17.10217937 54.67258962 16.83594022 60.05218901 16.56832814 65.43174243 C16.28747524 71.09925686 16.01257279 76.76706026 15.73692322 82.43482971 C15.27387738 91.93874439 14.80691004 101.44245944 14.3371582 110.94604492 C13.73608991 123.10658424 13.1411802 135.26741645 12.54833317 147.42835903 C12.03570126 157.94366864 11.5206668 168.45886035 11.0050323 178.9740231 C10.89506413 181.21729427 10.78517725 183.46056943 10.67537236 185.7038486 C10.36240827 192.09757593 10.0481579 198.49123723 9.73180962 204.88479805 C9.63664082 206.81195023 9.54190156 208.73912368 9.44764709 210.6663208 C8.96897909 220.44648377 8.44923795 230.21878775 7.76309013 239.98678875 C7.45393584 244.60159627 7.26216162 249.21822475 7.08984375 253.83984375 C7.01249633 255.81380385 6.93510185 257.78776211 6.85766602 259.76171875 C6.81860138 260.77524414 6.77953674 261.78876953 6.73928833 262.83300781 C6.52934358 268.23143707 6.30687409 273.62935509 6.0859375 279.02734375 C5.82420772 285.42851654 5.56402568 291.82970928 5.31640625 298.23144531 C5.13245015 302.97093998 4.93562456 307.70973501 4.72921753 312.44830322 C4.65528916 314.1966055 4.58595717 315.94510899 4.52151489 317.69378662 C3.71914886 339.3155223 3.71914886 339.3155223 -2.5703125 346.41015625 C-3.34761719 347.33248047 -3.34761719 347.33248047 -4.140625 348.2734375 C-11.4518594 354.06046541 -19.05480784 354.73159014 -28.1171875 354.890625 C-29.91630585 354.94516594 -29.91630585 354.94516594 -31.75177002 355.00080872 C-35.56603593 355.11304132 -39.3803559 355.19996649 -43.1953125 355.28515625 C-46.99567465 355.38645089 -50.79584964 355.49299454 -54.5960083 355.60163879 C-56.95226745 355.66722191 -59.30867646 355.72770827 -61.66522217 355.7820282 C-68.20290739 355.94413378 -74.6835151 356.32848092 -81.20074463 356.86207581 C-86.6833184 357.2601526 -92.16978478 357.38900906 -97.6640625 357.52734375 C-99.59687363 357.58070691 -101.52968449 357.63408044 -103.46248531 357.68781567 C-105.52518728 357.74480142 -107.5879214 357.80048019 -109.65066528 357.85592651 C-117.15417162 358.05866374 -124.65721246 358.27751203 -132.16015625 358.5 C-132.94512419 358.52327677 -133.73009212 358.54655354 -134.53884697 358.57053566 C-152.86598758 359.11765783 -171.18698175 359.80944037 -189.5078125 360.53515625 C-190.30004337 360.56652176 -191.09227425 360.59788727 -191.90851212 360.63020325 C-201.60329548 361.01450124 -211.29784076 361.40460303 -220.99230289 361.79691124 C-227.78451636 362.07154766 -234.57687319 362.34250285 -241.36926746 362.61262608 C-249.81793652 362.94863807 -258.26651719 363.28683151 -266.71506882 363.62578201 C-269.09943347 363.72131882 -271.48381235 363.81649353 -273.86819458 363.91159058 C-278.31454155 364.08913394 -282.76082189 364.26826164 -287.20703125 364.44921875 C-287.90473822 364.47761086 -288.60244518 364.50600296 -289.32129478 364.53525543 C-296.79241719 364.84107868 -304.2588633 365.1742583 -311.72265625 365.625 C-322.91624096 366.29618141 -334.12666385 366.57320324 -345.33413696 366.91387939 C-352.18516069 367.12231743 -359.03597855 367.33714373 -365.88671875 367.5546875 C-366.92623593 367.5876379 -366.92623593 367.5876379 -367.98675346 367.62125397 C-377.81693569 367.9341404 -387.64510136 368.28387565 -397.47265625 368.671875 C-398.6504364 368.71833664 -399.82821655 368.76479828 -401.04168701 368.81266785 C-406.56368534 369.03207397 -412.08540997 369.25700854 -417.60693359 369.48803711 C-428.894594 369.95056533 -440.14810532 370.21734414 -451.4453125 370.09765625 C-451.53287555 366.38947328 -451.58589265 362.68155862 -451.6328125 358.97265625 C-451.67051758 357.40257812 -451.67051758 357.40257812 -451.70898438 355.80078125 C-451.76257162 350.15625824 -451.75305703 345.91596327 -448.4453125 341.09765625 C-441.84022962 334.77975088 -436.21585666 333.75663573 -427.44921875 333.01953125 C-426.42744537 332.92783157 -425.405672 332.8361319 -424.35293579 332.74165344 C-420.90524397 332.43524848 -417.45663106 332.14108989 -414.0078125 331.84765625 C-411.52187703 331.63094129 -409.03595621 331.41405835 -406.55004883 331.19702148 C-380.56293241 328.95019046 -354.55290216 326.98848791 -328.54402161 325.01347351 C-326.85617029 324.88528921 -325.16831934 324.75710012 -323.48046875 324.62890625 C-322.22491212 324.53356818 -322.22491212 324.53356818 -320.94399071 324.43630409 C-302.81556716 323.0587556 -284.69245806 321.61768403 -266.5703125 320.16015625 C-265.03238998 320.03653153 -263.4944668 319.91291502 -261.95654297 319.78930664 C-258.84799082 319.53944268 -255.73943967 319.28956631 -252.63088989 319.03967285 C-251.85347569 318.9771785 -251.07606148 318.91468414 -250.27508926 318.85029602 C-248.69631838 318.72336341 -247.11754998 318.59640002 -245.53878403 318.46940613 C-232.75956991 317.44153323 -219.9795975 316.42343961 -207.19921875 315.41015625 C-205.3748928 315.26546718 -203.55056724 315.12077315 -201.72624207 314.97607422 C-187.48310069 313.84643516 -187.48310069 313.84643516 -182.38207626 313.44213867 C-161.26965926 311.7687872 -140.15855573 310.08111194 -119.05089378 308.34869576 C-116.01965005 308.0999102 -112.98838158 307.85142805 -109.95710754 307.60301208 C-101.27230463 306.89101162 -92.58761961 306.17771687 -83.9034977 305.45745277 C-80.37810192 305.16558181 -76.85252302 304.8759699 -73.32689667 304.5868988 C-71.69598685 304.45264544 -70.06516004 304.31737916 -68.43442535 304.18101501 C-66.20250181 303.99445453 -63.97031595 303.81140301 -61.73803711 303.62915039 C-60.49122665 303.52590958 -59.2444162 303.42266876 -57.95982361 303.31629944 C-54.44499945 303.09763677 -50.96593766 303.05923916 -47.4453125 303.09765625 C-47.33708412 301.97659485 -47.33708412 301.97659485 -47.22666931 300.83288574 C-43.85002317 265.89349969 -40.39096692 230.96920334 -36.51275635 196.08145142 C-34.13339556 174.66135041 -31.90889138 153.22924778 -29.7578125 131.78515625 C-25.97786939 94.11136111 -25.97786939 94.11136111 -23.86035156 76.52832031 C-22.86804572 68.18998916 -22.03698989 59.84653671 -21.26953125 51.484375 C-20.95271626 48.11404506 -20.63457994 44.74384184 -20.31622314 41.37365723 C-20.11330929 39.17714384 -19.9175921 36.9799517 -19.72967529 34.78210449 C-19.46659538 31.70697681 -19.17884694 28.63498532 -18.88671875 25.5625 C-18.8158757 24.65360519 -18.74503265 23.74471039 -18.67204285 22.80827332 C-17.89677396 15.0650537 -15.48353527 7.99456633 -9.7578125 2.53515625 C-6.15727426 0.29698383 -4.24152484 -0.02232381 0 0 Z " fill="#02AA8D" transform="translate(902.4453125,389.90234375)"/>
<path d="M0 0 C0.14607549 4.02044681 0.23433213 8.04020497 0.3125 12.0625 C0.35439453 13.19623047 0.39628906 14.32996094 0.43945312 15.49804688 C0.54503925 22.74125532 0.08462989 26.69620503 -5 32 C-9.45469952 35.49946498 -15.01985745 36.26145895 -20.51391602 36.91723633 C-21.19344361 36.99846395 -21.87297121 37.07969156 -22.57309055 37.16338062 C-33.99736298 38.50064473 -45.44572659 39.63316175 -56.88837171 40.79981756 C-59.70835036 41.0875926 -62.52820014 41.37662003 -65.3480522 41.66563249 C-73.65141418 42.51662177 -81.95513492 43.36407126 -90.25896454 44.21048355 C-94.93948933 44.6876014 -99.61992447 45.16559503 -104.300354 45.64364624 C-153.18018984 50.63510977 -202.06515179 55.57332415 -251 60 C-250.97498413 61.18263428 -250.97498413 61.18263428 -250.94946289 62.38916016 C-250.8204509 73.95857083 -251.50522548 85.45589719 -252.22680664 96.99951172 C-252.43835502 100.38869812 -252.64255585 103.77826941 -252.84570312 107.16796875 C-252.97873874 109.34898448 -253.11218771 111.52997504 -253.24609375 113.7109375 C-253.33678383 115.21120987 -253.33678383 115.21120987 -253.42930603 116.74179077 C-253.7487127 121.810525 -254.18173258 126.83954991 -254.77259827 131.88345337 C-255.14202057 135.32185956 -255.32284005 138.76594284 -255.5 142.21875 C-255.5609082 143.33292297 -255.5609082 143.33292297 -255.62304688 144.46960449 C-255.75109169 146.81294781 -255.87596629 149.15644117 -256 151.5 C-256.91587738 168.80507385 -256.91587738 168.80507385 -257.75439453 175.58349609 C-258.31762497 181.12510137 -258.52296298 186.70400339 -258.81594849 192.26559448 C-259.46209794 204.47559663 -260.23776689 216.65593013 -261.32006836 228.83618164 C-261.91592531 235.64808444 -262.3039711 242.45043762 -262.59829712 249.28134155 C-262.88597054 255.54951224 -263.38093152 261.78545966 -263.93359375 268.03515625 C-265.03099849 280.82404881 -265.81927051 293.62390947 -266.5625 306.4375 C-266.75120378 309.67889313 -266.94082559 312.92021982 -267.13328552 316.16139221 C-267.25128805 318.14916601 -267.3672213 320.13706427 -267.48060608 322.12510681 C-267.77527318 327.09503298 -268.17747952 332.02594687 -268.78125 336.96833801 C-269.18494628 340.71770665 -269.28813344 344.48353032 -269.4375 348.25 C-269.77908793 355.91264823 -270.398676 363.50417634 -271.20117188 371.13085938 C-271.78247744 376.93967192 -272.17230939 382.74142593 -272.46875 388.5703125 C-272.50811172 389.3240213 -272.54747345 390.0777301 -272.58802795 390.85427856 C-272.78387948 394.63101774 -272.9657356 398.40765102 -273.12670898 402.18603516 C-274.03098936 421.23010395 -274.03098936 421.23010395 -281 428 C-286.68900267 431.85144553 -292.2759565 431.34597457 -298.875 431.1875 C-299.94492188 431.17396484 -301.01484375 431.16042969 -302.1171875 431.14648438 C-304.74531511 431.11128624 -307.37239194 431.06204693 -310 431 C-310.53212034 403.97101575 -309.61109392 377.00419419 -308.5625 350 C-308.52866085 349.122122 -308.4948217 348.244244 -308.45995712 347.33976364 C-308.22981705 341.37212906 -307.99381821 335.40474919 -307.75390625 329.4375 C-307.70804949 328.28226176 -307.70804949 328.28226176 -307.66126633 327.10368538 C-307.29461121 317.92512175 -306.81850407 308.76212676 -306.22517395 299.59542847 C-305.93241878 294.92090785 -305.71765689 290.24634185 -305.53515625 285.56640625 C-305.49760223 284.63295883 -305.46004822 283.69951141 -305.4213562 282.73777771 C-305.29944388 279.67943743 -305.18077124 276.62098311 -305.0625 273.5625 C-305.02053497 272.49604248 -304.97856995 271.42958496 -304.93533325 270.33081055 C-304.3766554 256.08576746 -303.88930629 241.83931606 -303.4609375 227.58984375 C-303.43885412 226.8576166 -303.41677074 226.12538944 -303.39401817 225.37097359 C-303.17531287 218.108883 -302.96033871 210.84670952 -302.75656128 203.58418369 C-302.69839572 201.52573803 -302.63878785 199.46733953 -302.5786438 197.40895081 C-302.50532988 194.89066987 -302.43463084 192.37231076 -302.36715698 189.85386658 C-302.18564219 183.70514137 -301.82678065 177.62334726 -301.22413635 171.50195312 C-300.89571531 167.83590769 -300.79068406 164.1786725 -300.71875 160.5 C-300.70070313 159.7463063 -300.68265625 158.99261261 -300.6640625 158.21607971 C-300.6260796 156.62668178 -300.58955667 155.03724834 -300.55444336 153.44778442 C-300.48012155 150.10626075 -300.39774058 146.76497089 -300.31262207 143.42370605 C-300.27227813 141.83959704 -300.23334972 140.25545102 -300.19616699 138.67126465 C-300.04303991 132.53372934 -299.72737583 126.41045804 -299.36524963 120.28207397 C-298.89017462 112.19576074 -298.75612187 104.09674515 -298.5625 96 C-298.20078212 81.03277302 -297.70917039 66.07255412 -297.13204956 51.11206055 C-297.04457678 48.84354986 -296.95823789 46.57499515 -296.87307739 44.30639648 C-296.75228191 41.10385388 -296.62688196 37.90152536 -296.5 34.69921875 C-296.46458603 33.75068527 -296.42917206 32.80215179 -296.39268494 31.82487488 C-296.16158911 26.17468799 -295.6868036 20.61354626 -295 15 C-262.19872955 12.9049743 -229.40028298 10.92620016 -196.5625 9.5 C-191.08327493 9.26173868 -185.60408001 9.02282731 -180.125 8.78125 C-179.09201436 8.73570952 -179.09201436 8.73570952 -178.03816032 8.68924904 C-160.37368839 7.9066722 -142.71829333 6.95596066 -125.0625 6 C-123.47746798 5.9142535 -121.89243583 5.82850927 -120.30740356 5.74276733 C-117.16688399 5.5728253 -114.02636623 5.40284971 -110.885849 5.23286438 C-109.72962697 5.17029166 -109.72962697 5.17029166 -108.55004692 5.10645485 C-107.00110056 5.02260743 -105.45215671 4.93871349 -103.90321541 4.85477257 C-85.21513663 3.84246852 -66.52401531 2.89313619 -47.83227539 1.95117188 C-46.14455772 1.86607864 -46.14455772 1.86607864 -44.42274475 1.77926636 C-42.26011592 1.67041494 -40.09746799 1.56194225 -37.93479919 1.45388794 C-33.13031168 1.21302515 -28.32645153 0.96553924 -23.5234375 0.69677734 C-15.6750846 0.25953139 -7.86435484 -0.12892385 0 0 Z " fill="#02AA8D" transform="translate(1365,1086)"/>
<path d="M0 0 C1.6097168 0.00966797 1.6097168 0.00966797 3.25195312 0.01953125 C4.9312793 0.04466797 4.9312793 0.04466797 6.64453125 0.0703125 C7.77568359 0.07933594 8.90683594 0.08835937 10.07226562 0.09765625 C12.86739953 0.12124388 15.6621097 0.1541595 18.45703125 0.1953125 C18.79196216 12.38307622 18.09048602 24.47754779 17.30908203 36.63500977 C17.21507863 38.09911528 17.12116725 39.5632267 17.02734375 41.02734375 C16.97981964 41.76823746 16.93229553 42.50913116 16.8833313 43.2724762 C16.53415909 48.79055837 16.23034089 54.31008812 15.94921875 59.83203125 C15.90773712 60.64441757 15.86625549 61.45680389 15.82351685 62.29380798 C15.66257279 65.46327223 15.50253274 68.63276391 15.34869385 71.80258179 C14.87302264 81.59491856 14.2357658 91.36510859 13.48828125 101.140625 C12.43359929 114.98241231 11.66971689 128.8323006 10.95703125 142.6953125 C10.18480267 157.7165411 9.3139841 172.71798105 8.16896057 187.71586609 C7.42188203 197.51386092 6.82083887 207.31566318 6.27709961 217.12670898 C6.16143855 219.19792062 6.04185607 221.26887856 5.921875 223.33984375 C5.85605225 224.51909424 5.79022949 225.69834473 5.72241211 226.91333008 C5.4682973 230.05598451 4.99402875 233.09063945 4.45703125 236.1953125 C-13.09388492 238.13746512 -30.67715662 239.01734004 -48.30674982 239.84927964 C-52.47952477 240.04728225 -56.6520201 240.25102679 -60.82455444 240.45402527 C-68.85902963 240.84401923 -76.89374325 241.2288552 -84.92856264 241.61168545 C-94.18838093 242.05303206 -103.44796497 242.49920146 -112.70754468 242.94552064 C-128.42105559 243.7027594 -144.13477589 244.45554554 -159.84863281 245.20556641 C-174.72744742 245.91574113 -189.60591435 246.63274613 -204.48409849 247.35600048 C-213.82315646 247.80997758 -223.16236389 248.26079474 -232.50168705 248.70928288 C-238.05699381 248.97607633 -243.61223707 249.24403317 -249.16732788 249.51528931 C-254.26874666 249.76421815 -259.37035899 250.00871235 -264.47215652 250.24975014 C-266.27983695 250.33585608 -268.08744767 250.42344358 -269.89496994 250.51280785 C-281.78713444 251.09964228 -293.63654578 251.29308379 -305.54296875 251.1953125 C-305.68326349 247.52880678 -305.77746539 243.86369921 -305.85546875 240.1953125 C-305.89736328 239.16535156 -305.93925781 238.13539063 -305.98242188 237.07421875 C-306.07354072 231.35195543 -305.88479842 226.6764433 -302.31005669 222.01111794 C-296.40047448 215.93861228 -288.18926656 214.38202649 -280.08544922 213.72900391 C-278.58667708 213.58362844 -278.58667708 213.58362844 -277.05762672 213.43531609 C-273.75993934 213.12018611 -270.46043209 212.83351149 -267.16015625 212.546875 C-264.81457078 212.32824288 -262.46915492 212.10778446 -260.12390137 211.88562012 C-253.85470911 211.29650982 -247.58356014 210.73150082 -241.31175995 210.17093658 C-234.7958318 209.58419702 -228.28203543 208.97473969 -221.76806641 208.36669922 C-212.68324868 207.52038619 -203.59790608 206.68027543 -194.51166344 205.84939766 C-181.31984877 204.64280232 -168.13217425 203.40136826 -154.94921875 202.1015625 C-154.15926702 202.02370955 -153.3693153 201.94585659 -152.55542564 201.86564445 C-149.50530017 201.564806 -146.4552187 201.26352791 -143.40520763 200.96153164 C-121.05153819 198.74832514 -98.69019889 196.61555269 -76.31842041 194.59344482 C-73.88500435 194.37347614 -71.45169107 194.15236677 -69.01849365 193.92999268 C-65.72624297 193.62997677 -62.43354796 193.33550178 -59.140625 193.04296875 C-57.71649544 192.91232277 -57.71649544 192.91232277 -56.26359558 192.77903748 C-50.66588048 192.29027352 -45.16225136 192.11773859 -39.54296875 192.1953125 C-39.49543457 191.30682617 -39.44790039 190.41833984 -39.39892578 189.50292969 C-38.81991547 179.74464212 -37.73817442 170.12819156 -36.41796875 160.4453125 C-36.19877046 158.80848008 -35.97995172 157.1715968 -35.76147461 155.53466797 C-34.48966789 146.04033741 -33.18009072 136.55122024 -31.8671875 127.0625 C-31.42845238 123.88977216 -30.98977885 120.71703584 -30.55123901 117.54428101 C-30.25345686 115.39061496 -29.95538031 113.23698959 -29.65701294 111.08340454 C-27.56627967 95.9741432 -25.59603918 80.85416671 -23.73449707 65.71499634 C-20.24797812 37.36330921 -20.24797812 37.36330921 -18.35546875 24.6328125 C-18.21278564 23.63499756 -18.07010254 22.63718262 -17.9230957 21.60913086 C-16.68068352 13.59188014 -14.8603678 7.72303667 -8.54296875 2.1953125 C-5.14399202 -0.07067198 -3.97977702 -0.04211404 0 0 Z " fill="#02AA8D" transform="translate(810.54296875,416.8046875)"/>
<path d="M0 0 C0.89991669 0.02087677 1.79983337 0.04175354 2.72702026 0.06326294 C5.66192852 0.13300153 8.5965596 0.21072631 11.53125 0.2890625 C13.54507878 0.33942757 15.55891345 0.38955711 17.57275391 0.43945312 C28.51866462 0.71614483 39.46380122 1.0223396 50.40625 1.4140625 C51.90381836 1.46699463 51.90381836 1.46699463 53.43164062 1.52099609 C58.37141465 1.71324767 63.29140141 2.00200624 68.2199707 2.38671875 C76.20049745 2.96271094 84.18207139 3.27007184 92.17792702 3.54481506 C94.80919108 3.63524962 97.44032818 3.72883446 100.07145691 3.82312012 C105.66212479 4.02288012 111.25293027 4.21860628 116.84375 4.4140625 C123.32409485 4.64108675 129.80437312 4.8698517 136.28455162 5.10157776 C138.84368319 5.19239892 141.40289001 5.28080058 143.96211243 5.36901855 C151.4277022 5.63174125 158.88386213 5.94086652 166.33984375 6.40478516 C175.60186106 6.97964536 184.86964616 7.32942237 194.14286995 7.66924095 C197.30197065 7.78501565 200.46098112 7.90303808 203.61997986 8.02156067 C208.14597589 8.19117495 212.67200322 8.3599135 217.19805908 8.52792358 C229.02938495 8.96746426 240.86043228 9.41437852 252.69140625 9.86328125 C254.45542912 9.93018756 254.45542912 9.93018756 256.25508881 9.99844551 C277.55804307 10.80782176 298.85806806 11.67537942 320.15625 12.6015625 C320.85776058 12.6320443 321.55927116 12.66252609 322.28203964 12.69393158 C330.40698288 13.04723961 338.53171822 13.40517815 346.65637207 13.76507568 C352.2369437 14.0114347 357.81768527 14.25386538 363.3984375 14.49609375 C364.38127716 14.53876877 365.36411682 14.58144379 366.3767395 14.62541199 C368.59490704 14.72168948 370.81307807 14.8178864 373.03125 14.9140625 C373.60769562 29.04653143 373.60769562 29.04653143 371.34375 32.6015625 C368.10076636 35.84454614 365.55726009 37.73079287 360.92880219 38.28665799 C359.75508665 38.28551883 358.58137111 38.28437967 357.37208843 38.28320599 C356.71291859 38.28666752 356.05374876 38.29012905 355.37460408 38.29369548 C353.1621609 38.30164672 350.95037053 38.28816956 348.73796082 38.27482605 C347.13734624 38.27613414 345.53673228 38.27876061 343.93612176 38.28259355 C339.53492734 38.28930988 335.13395144 38.27729009 330.73278487 38.26225936 C325.9877705 38.2493198 321.24276874 38.25368699 316.4977417 38.25596619 C308.27572389 38.25754024 300.05377743 38.24811725 291.83177757 38.23125267 C279.94411569 38.20688511 268.05648836 38.1990597 256.16880421 38.1952887 C236.88245472 38.18872069 217.59614328 38.16875005 198.30981445 38.14038086 C179.57348827 38.11284933 160.83717241 38.09161131 142.10083008 38.07885742 C140.36884957 38.07767517 140.36884957 38.07767517 138.60187956 38.07646903 C132.80939722 38.07255395 127.01691481 38.06876282 121.22443235 38.06503332 C73.16001194 38.03392654 25.09563282 37.98108123 -22.96875 37.9140625 C-23.08603126 34.24767002 -23.15635891 30.5817673 -23.21875 26.9140625 C-23.26902344 25.36912109 -23.26902344 25.36912109 -23.3203125 23.79296875 C-23.41797019 16.12684032 -22.37743233 10.77723581 -17.15234375 4.85546875 C-16.57613281 4.40042969 -15.99992188 3.94539062 -15.40625 3.4765625 C-14.82746094 3.00347656 -14.24867188 2.53039062 -13.65234375 2.04296875 C-9.41497243 -0.79833128 -4.86598274 -0.13478215 0 0 Z " fill="#FECD00" transform="translate(985.96875,708.0859375)"/>
<path d="M0 0 C0.75216797 0.00451172 1.50433594 0.00902344 2.27929688 0.01367188 C4.08206815 0.02515449 5.88479686 0.04306967 7.6875 0.0625 C8.30955494 17.96385888 8.30955494 17.96385888 2.3125 24.75 C-7.1402877 31.73684308 -21.61125753 32.54533542 -32.87548828 34.46777344 C-36.69021029 35.12785746 -40.49955108 35.81592239 -44.30859375 36.5078125 C-62.26370583 39.75670601 -80.22434045 42.64001746 -98.3125 45.0625 C-98.37836304 46.33710083 -98.37836304 46.33710083 -98.44555664 47.63745117 C-99.13277109 59.74383991 -100.25811148 71.80034421 -101.41430664 83.86987305 C-101.74833894 87.35765615 -102.07859937 90.84578025 -102.40820312 94.33398438 C-102.62477862 96.61460437 -102.84156859 98.895204 -103.05859375 101.17578125 C-103.15450302 102.18683426 -103.25041229 103.19788727 -103.34922791 104.23957825 C-103.87702711 109.74004886 -104.43393244 115.23659055 -105.01966858 120.73114586 C-106.06593345 130.54660862 -107.01383363 140.36824299 -107.91383171 150.19811058 C-108.41870233 155.69077947 -108.93601102 161.18229634 -109.45053768 166.6740675 C-109.89847894 171.46265019 -110.34232695 176.25155114 -110.77807617 181.04125977 C-111.20511861 185.73251627 -111.64304374 190.4226449 -112.08828926 195.11220741 C-112.25446895 196.88314815 -112.41673808 198.65446071 -112.57487297 200.42613792 C-112.79600476 202.89740824 -113.03107357 205.36699565 -113.26928711 207.83666992 C-113.3301651 208.55416916 -113.39104309 209.2716684 -113.45376587 210.01091003 C-114.08581235 216.29859551 -115.28230349 222.66378838 -120.25 226.9375 C-125.8713871 230.83805431 -129.31438156 231.33298182 -136.0625 231.1875 C-136.85527344 231.17847656 -137.64804688 231.16945313 -138.46484375 231.16015625 C-140.41419281 231.13667012 -142.36338575 231.10080137 -144.3125 231.0625 C-143.93942755 210.4858863 -143.50714045 189.92554655 -142.375 169.375 C-141.48099417 153.02972893 -140.91641101 136.68385923 -140.43425751 120.32151794 C-139.6906912 95.11225538 -138.82690178 69.90931999 -137.84946823 44.70799255 C-137.75004401 42.12614296 -137.65258053 39.54422627 -137.55569458 36.96228027 C-137.40336036 32.90839618 -137.2462036 28.85472861 -137.08510208 24.8011837 C-137.02610588 23.29922303 -136.96870123 21.79719894 -136.91294479 20.29511452 C-136.83635237 18.24222461 -136.7532064 16.18958227 -136.66967773 14.13696289 C-136.62463608 12.98208878 -136.57959442 11.82721466 -136.53318787 10.63734436 C-136.3125 8.0625 -136.3125 8.0625 -135.3125 7.0625 C-133.97568458 6.89703391 -132.63084192 6.79572498 -131.28588867 6.72119141 C-129.98152107 6.64556976 -129.98152107 6.64556976 -128.65080261 6.56842041 C-127.68709244 6.5174823 -126.72338226 6.46654419 -125.73046875 6.4140625 C-124.71773392 6.35700134 -123.70499908 6.29994019 -122.66157532 6.2411499 C-119.27462958 6.05182794 -115.88734227 5.86957907 -112.5 5.6875 C-110.13670516 5.55704934 -107.77342411 5.42634862 -105.41015625 5.29541016 C-92.24013721 4.57148582 -79.06802027 3.89155908 -65.89453125 3.234375 C-65.2194219 3.20068691 -64.54431255 3.16699883 -63.84874535 3.13228989 C-56.60149053 2.7710814 -49.35401625 2.41476106 -42.10620117 2.06494141 C-40.88072067 2.00518127 -39.65524017 1.94542114 -38.3926239 1.8838501 C-36.12163207 1.77320004 -33.85057013 1.66397372 -31.579422 1.55657959 C-25.10925107 1.24020774 -18.65872013 0.80303249 -12.20283508 0.26799011 C-8.13013956 -0.02156063 -4.08061548 -0.04871258 0 0 Z " fill="#03AA8D" transform="translate(1290.3125,1177.9375)"/>
<path d="M0 0 C0.66570495 -0.00227836 1.3314099 -0.00455672 2.01728773 -0.00690413 C4.23638886 -0.00974124 6.45497128 0.00419881 8.67401123 0.02032471 C9.44770884 0.02317899 10.22140645 0.02603328 11.01854944 0.02897406 C28.94112137 0.1018827 46.81159937 0.97008714 64.70391369 1.94521809 C69.26685024 2.19176648 73.8303563 2.42734299 78.39379883 2.66430664 C87.06790512 3.11626469 95.74150499 3.57725184 104.41494203 4.04185843 C114.93547498 4.60501931 125.45658437 5.15707618 135.97772217 5.70880127 C139.76390043 5.90748183 143.55007324 6.10626608 147.33624268 6.30511475 C148.73895471 6.37877848 148.73895471 6.37877848 150.17000437 6.45393038 C156.75243753 6.79980758 163.33476654 7.14762412 169.91705322 7.49627686 C202.82325008 9.23846658 235.73283419 10.91019992 268.64358282 12.56387568 C279.56962864 13.11301117 290.49495839 13.67425733 301.41912842 14.25958252 C302.04993281 29.59971048 302.04993281 29.59971048 297.41912842 35.25958252 C294.25930964 37.28376814 291.76900105 37.50865946 288.05431747 37.50567818 C286.95953386 37.50966027 285.86475025 37.51364237 284.73679137 37.51774514 C283.53446687 37.51191945 282.33214237 37.50609377 281.09338379 37.50009155 C279.81589775 37.5018004 278.53841172 37.50350925 277.22221398 37.50526989 C273.6739151 37.50974759 270.12573667 37.50173397 266.57745314 37.49171376 C262.75199351 37.48308764 258.92654083 37.48599883 255.10107422 37.48751831 C248.47239316 37.48856769 241.84375143 37.48228553 235.21508026 37.47104263 C225.63110596 37.45479781 216.0471507 37.44958067 206.46316412 37.44706665 C190.91429508 37.44268795 175.36544701 37.42937409 159.81658936 37.41046143 C144.71112167 37.39210716 129.60565968 37.37794844 114.50018311 37.3694458 C113.10384552 37.36865763 113.10384552 37.36865763 111.67929909 37.36785354 C107.00935143 37.36524349 102.33940373 37.36271607 97.66945601 37.36022973 C58.91933213 37.33949178 20.16923166 37.30426148 -18.58087158 37.25958252 C-18.59618675 34.89367203 -18.60728002 32.52786289 -18.61602783 30.16192627 C-18.62255371 28.84442383 -18.62907959 27.52692139 -18.63580322 26.16949463 C-18.50793184 17.06789375 -17.86734796 10.4707916 -11.33477783 3.78302002 C-7.39769222 0.36327973 -5.12401079 0.00494956 0 0 Z " fill="#FECD01" transform="translate(985.5808715820313,619.7404174804688)"/>
<path d="M0 0 C0.80566406 0.00322266 1.61132812 0.00644531 2.44140625 0.00976562 C3.70404297 0.02233398 3.70404297 0.02233398 4.9921875 0.03515625 C5.84167969 0.03966797 6.69117188 0.04417969 7.56640625 0.04882812 C9.66669659 0.06062751 11.7669508 0.07856319 13.8671875 0.09765625 C12.03441442 43.10005235 12.03441442 43.10005235 10.61987305 63.16894531 C9.83169959 74.36580401 9.18971715 85.56874397 8.56445312 96.77563477 C8.48702808 98.16162383 8.40955488 99.5476102 8.33203125 100.93359375 C8.29467865 101.60198776 8.25732605 102.27038177 8.21884155 102.95903015 C7.80285392 110.34072014 7.33737402 117.71924959 6.8671875 125.09765625 C-0.54403353 125.99711701 -7.91002873 126.29336019 -15.37013817 126.45710754 C-31.12871808 126.81450857 -46.86936246 127.49948993 -62.61328125 128.25390625 C-63.73255131 128.30749298 -64.85182137 128.36107971 -66.0050087 128.41629028 C-72.93710928 128.74921631 -79.86897593 129.08683119 -86.80078125 129.42584229 C-93.84731846 129.76983511 -100.89405404 130.10973579 -107.94077778 130.44988251 C-113.42397392 130.71457803 -118.90713525 130.97991715 -124.3901825 131.24768066 C-137.96922801 131.90899258 -151.5499073 132.52103884 -165.1328125 133.09765625 C-165.19432449 131.07930787 -165.25583649 129.0609595 -165.31734848 127.04261112 C-165.36631665 125.54100164 -165.42681436 124.03976028 -165.49316406 122.53881836 C-165.58719094 116.2064116 -163.92889175 112.21411958 -159.6328125 107.42578125 C-148.61016626 99.50325426 -131.95354684 99.51608676 -118.9453125 97.78515625 C-116.69984357 97.48180211 -114.45440128 97.17825072 -112.20898438 96.87451172 C-96.19659546 94.72080605 -80.16924473 92.68871086 -64.1328125 90.72265625 C-63.09710114 90.59555267 -62.06138977 90.4684491 -60.99429321 90.3374939 C-58.04077019 89.97634037 -55.08689698 89.61824811 -52.1328125 89.26171875 C-51.27962936 89.15786362 -50.42644623 89.05400848 -49.54740906 88.94700623 C-43.41870508 88.21434335 -37.28201477 87.62984793 -31.1328125 87.09765625 C-30.97723877 86.30407715 -30.82166504 85.51049805 -30.66137695 84.69287109 C-27.91497574 70.72200371 -25.14842976 56.76978239 -21.89013672 42.90722656 C-20.84383906 38.40620435 -19.89101912 33.90814776 -19.07421875 29.359375 C-18.90422363 28.41457275 -18.73422852 27.46977051 -18.55908203 26.49633789 C-18.24517322 24.71496026 -17.94184159 22.93166821 -17.65185547 21.14624023 C-16.12433845 12.43730787 -13.39771623 6.30943502 -6.1328125 1.09765625 C-3.8362755 -0.05061225 -2.54968083 -0.0179555 0 0 Z " fill="#03AA8D" transform="translate(724.1328125,443.90234375)"/>
<path d="M0 0 C0.97880127 0.00080566 1.95760254 0.00161133 2.96606445 0.00244141 C10.80266556 0.06602691 18.5377707 0.60540645 26.3371582 1.33300781 C37.28660387 2.33804208 48.25455374 2.91122694 59.2331543 3.48974609 C65.44549046 3.82178595 71.62314751 4.17993498 77.80053711 4.93969727 C83.35222919 5.50134059 88.94002489 5.70968484 94.51147461 6.00317383 C105.43842379 6.58169347 116.35060381 7.20603321 127.25 8.1875 C135.91236336 8.96608058 144.57494564 9.49644332 153.25961304 9.9487915 C175.30787645 11.09994164 197.27086687 13.12540857 219.25 15.1875 C219.3314222 17.41605574 219.38938079 19.64547655 219.4375 21.875 C219.47230469 23.11636719 219.50710938 24.35773437 219.54296875 25.63671875 C219.22213541 29.52521885 218.69299382 31.18113235 216.25 34.1875 C211.05524732 38.55457235 207.08544405 38.7526785 200.60696411 38.66851807 C199.64220276 38.67193577 198.6774414 38.67535347 197.68344486 38.67887473 C194.45418729 38.68545767 191.22576289 38.66347008 187.99658203 38.64160156 C185.68045573 38.64047318 183.36432799 38.64110677 181.04820251 38.64337158 C174.761443 38.64452 168.47498829 38.62098962 162.18829966 38.59307575 C155.61797026 38.56808359 149.047634 38.56572181 142.4772644 38.56097412 C131.44963288 38.5506175 120.42210823 38.52496042 109.39453125 38.48925781 C98.03744057 38.45252668 86.68038029 38.42422033 75.32324219 38.40722656 C74.62287457 38.40617567 73.92250695 38.40512477 73.20091607 38.40404204 C69.68728332 38.39882178 66.17365036 38.39376698 62.66001725 38.38879442 C33.52327211 38.34734564 4.38663755 38.27661091 -24.75 38.1875 C-24.69769624 34.35309363 -24.60252027 30.5208665 -24.5 26.6875 C-24.47873047 25.07101562 -24.47873047 25.07101562 -24.45703125 23.421875 C-24.23560283 16.15902273 -23.40490714 10.11078739 -18.30371094 4.63500977 C-12.63570833 -0.4175639 -7.19820704 -0.00627623 0 0 Z " fill="#FECD03" transform="translate(995.75,530.8125)"/>
<path d="M0 0 C0.96390693 -0.00256327 1.92781386 -0.00512655 2.92093009 -0.0077675 C6.15316023 -0.01271177 9.38492404 0.00379847 12.61711121 0.02018738 C14.9330901 0.02103351 17.24906979 0.02055878 19.56504822 0.01885986 C25.85594411 0.01799795 32.14666895 0.03565569 38.43752503 0.05658174 C45.01053647 0.07531569 51.58355168 0.07709639 58.15658569 0.08065796 C69.19017 0.08842779 80.22369427 0.10767539 91.25724792 0.13444519 C102.62117702 0.16198786 113.98508906 0.18322042 125.3490448 0.19596863 C126.04967514 0.1967568 126.75030549 0.19754497 127.47216705 0.19835702 C130.98707052 0.20227217 134.5019741 0.20606329 138.01687777 0.20979273 C167.17036558 0.24088612 196.32379126 0.29394294 225.47721863 0.36076355 C225.53177566 3.34018353 225.57115713 6.31857886 225.60221863 9.29826355 C225.61897644 10.12906433 225.63573425 10.95986511 225.65299988 11.81584167 C225.71660234 19.98875835 225.08756656 28.01221194 219.47721863 34.36076355 C210.1533202 41.75081638 195.28625114 38.27889882 184.26237488 37.55607605 C182.91794975 37.47084348 181.57350228 37.38596266 180.22903442 37.30140686 C176.70753888 37.0789439 173.18637919 36.85154672 169.66526794 36.62309265 C166.18677113 36.39835129 162.70795506 36.17867347 159.22917175 35.9584198 C152.33201661 35.52076642 145.43543341 35.07463895 138.53904724 34.62504578 C135.85597953 34.45018643 133.1728259 34.27686937 130.48960876 34.10429382 C117.84325214 33.29091322 105.20422527 32.4557489 92.57878113 31.36076355 C78.70508374 30.16077408 64.80883241 29.3287682 50.90995789 28.48576355 C40.11597514 27.83006928 29.32263594 27.16354458 18.52981567 26.48899841 C17.1378281 26.40203476 15.74582943 26.31524849 14.3538208 26.22862244 C10.13546775 25.96587501 5.91740833 25.69904085 1.69968033 25.42643738 C-0.25058992 25.30119378 -2.20109144 25.17956806 -4.15159607 25.05802917 C-5.9119368 24.94298035 -5.9119368 24.94298035 -7.70783997 24.8256073 C-8.73766998 24.75978455 -9.7675 24.69396179 -10.82853699 24.62614441 C-13.16618211 24.39588828 -15.27076339 24.00881661 -17.52278137 23.36076355 C-17.6041728 20.96423827 -17.66345146 18.57050919 -17.71028137 16.17326355 C-17.74798645 15.16296082 -17.74798645 15.16296082 -17.78645325 14.13224792 C-17.85210029 9.64636664 -17.38252791 6.85325227 -14.52278137 3.36076355 C-9.91887145 -0.3246544 -5.62886186 -0.0546649 0 0 Z " fill="#FECD02" transform="translate(695.5227813720703,1007.6392364501953)"/>
<path d="M0 0 C0.83476868 -0.00630432 1.66953735 -0.01260864 2.52960205 -0.019104 C3.87184845 -0.01303131 3.87184845 -0.01303131 5.24121094 -0.00683594 C6.17100769 -0.00874939 7.10080444 -0.01066284 8.05877686 -0.01263428 C10.02567821 -0.01399431 11.99258859 -0.01031053 13.95947266 -0.00195312 C16.95072966 0.00870053 19.94137945 -0.00182955 22.93261719 -0.01464844 C24.84798308 -0.01332586 26.76334861 -0.01076145 28.67871094 -0.00683594 C29.56544495 -0.0108844 30.45217896 -0.01493286 31.36578369 -0.019104 C40.98558611 0.05246544 49.04223735 2.22564421 56.72558594 8.25878906 C62.9759977 15.80780235 63.47670846 23.8386858 62.9609375 33.28076172 C62.21363698 39.56149699 58.58303625 45.30086659 53.72558594 49.25878906 C54.61246094 49.89816406 55.49933594 50.53753906 56.41308594 51.19628906 C60.94412123 55.11385877 64.20837012 59.17766347 64.984375 65.30078125 C65.14531866 67.64610488 65.21071854 69.97056203 65.22558594 72.32128906 C65.23501221 73.45473755 65.23501221 73.45473755 65.24462891 74.61108398 C65.06858553 82.47065143 62.81178277 88.91828805 57.45605469 94.72363281 C49.07645935 102.1574499 38.19845074 102.5541975 27.56933594 102.45410156 C26.42646118 102.45127167 25.28358643 102.44844177 24.1060791 102.44552612 C20.47913862 102.43438931 16.85245097 102.40929647 13.22558594 102.38378906 C10.75683952 102.37375088 8.28808921 102.36462649 5.81933594 102.35644531 C-0.21199938 102.33447126 -6.24318865 102.30105863 -12.27441406 102.25878906 C-12.36712341 90.10640115 -12.43818406 77.95409747 -12.48166275 65.80142784 C-12.50253113 60.15834429 -12.53083554 54.51550282 -12.57617188 48.87255859 C-12.61965567 43.4260686 -12.64355681 37.97981136 -12.65392303 32.53316116 C-12.6613098 30.45593222 -12.67573444 28.37871592 -12.69733429 26.30158615 C-12.72640155 23.39039401 -12.73036862 20.48016174 -12.72851562 17.56884766 C-12.74289673 16.71144989 -12.75727783 15.85405212 -12.77209473 14.97067261 C-12.73521915 9.61115128 -11.93484661 6.44894298 -8.27441406 2.25878906 C-5.50232547 0.35910586 -3.32334243 0.00723521 0 0 Z " class="logo-text" transform="translate(1105.2744140625,825.7412109375)"/>
<path d="M0 0 C1.26650391 0.00966797 1.26650391 0.00966797 2.55859375 0.01953125 C3.43128906 0.03628906 4.30398438 0.05304687 5.203125 0.0703125 C6.53537109 0.08384766 6.53537109 0.08384766 7.89453125 0.09765625 C10.08100558 0.12116673 12.26692594 0.15402751 14.453125 0.1953125 C19.13669319 10.19983056 23.79547817 20.21541245 28.38989258 30.26123047 C29.06735879 31.73978933 29.74711437 33.217301 30.42895508 34.69384766 C31.43066754 36.86379103 32.42508658 39.0369423 33.41796875 41.2109375 C33.87718971 42.19988007 33.87718971 42.19988007 34.34568787 43.20880127 C35.64103571 46.06353155 36.453125 48.0203823 36.453125 51.1953125 C37.113125 51.1953125 37.773125 51.1953125 38.453125 51.1953125 C38.64364441 50.10268097 38.64364441 50.10268097 38.8380127 48.98797607 C39.42723492 46.31285573 40.22949393 44.03057445 41.29492188 41.51269531 C41.67201294 40.61536682 42.049104 39.71803833 42.43762207 38.79351807 C42.84492554 37.83814148 43.252229 36.88276489 43.671875 35.8984375 C44.08981323 34.90906189 44.50775146 33.91968628 44.93835449 32.90032959 C45.82043493 30.8149294 46.70480537 28.73049656 47.59130859 26.64697266 C48.95311207 23.4453429 50.30719112 20.24052954 51.66015625 17.03515625 C52.51777698 15.01022509 53.37583471 12.98547895 54.234375 10.9609375 C54.64167847 9.99746399 55.04898193 9.03399048 55.46862793 8.0413208 C55.84571899 7.15660095 56.22281006 6.2718811 56.61132812 5.36035156 C56.94362427 4.57823303 57.27592041 3.7961145 57.61828613 2.99029541 C58.453125 1.1953125 58.453125 1.1953125 59.453125 0.1953125 C61.45277482 0.10773247 63.4554861 0.08834674 65.45703125 0.09765625 C66.67197266 0.10087891 67.88691406 0.10410156 69.13867188 0.10742188 C70.41806641 0.11580078 71.69746094 0.12417969 73.015625 0.1328125 C74.29888672 0.13732422 75.58214844 0.14183594 76.90429688 0.14648438 C80.08728522 0.15831705 83.27018262 0.17480182 86.453125 0.1953125 C86.52266158 12.08696078 86.57595498 23.97856061 86.60856152 35.87037086 C86.62421169 41.39233206 86.64543836 46.91415406 86.67944336 52.43603516 C86.71205958 57.76580548 86.7299829 63.09544198 86.73775673 68.42530441 C86.74329614 70.45786012 86.75411327 72.49040858 86.77031517 74.52290726 C86.79211931 77.37171458 86.79509065 80.2199702 86.79370117 83.06884766 C86.804487 83.90754395 86.81527283 84.74624023 86.8263855 85.61035156 C86.80032997 90.5532675 86.16336018 93.89791578 83.453125 98.1953125 C76.52937749 104.46995868 70.73878068 102.1953125 60.453125 102.1953125 C60.123125 84.7053125 59.793125 67.2153125 59.453125 49.1953125 C54.998125 60.0853125 54.998125 60.0853125 50.453125 71.1953125 C44.4205163 78.43444293 44.4205163 78.43444293 38.453125 80.1953125 C35.10170786 80.41580047 31.80536375 80.37742607 28.453125 80.1953125 C23.29254054 69.26132418 18.3652459 58.24758453 13.453125 47.1953125 C13.123125 65.6753125 12.793125 84.1553125 12.453125 103.1953125 C4.203125 103.1953125 -4.046875 103.1953125 -12.546875 103.1953125 C-12.63726658 90.91248704 -12.71064345 78.62988273 -12.75412369 66.34679985 C-12.77499267 60.6431835 -12.80329823 54.93980664 -12.84863281 49.23632812 C-12.89211439 43.73148369 -12.91601729 38.22686953 -12.92638397 32.72186661 C-12.93377113 30.62230937 -12.94819653 28.52276465 -12.96979523 26.42330551 C-12.99885949 23.48098326 -13.00282968 20.53961082 -13.00097656 17.59716797 C-13.01535767 16.73041946 -13.02973877 15.86367096 -13.04455566 14.97065735 C-13.00773852 9.56329034 -12.14647899 6.4876483 -8.546875 2.1953125 C-5.68658231 0.212432 -3.43804826 -0.04646011 0 0 Z " class="logo-text" transform="translate(980.546875,825.8046875)"/>
<path d="M0 0 C8.37375 -0.061875 16.7475 -0.12375 25.375 -0.1875 C27.99872559 -0.21481201 30.62245117 -0.24212402 33.32568359 -0.27026367 C35.43326356 -0.27903538 37.54084866 -0.28667769 39.6484375 -0.29296875 C40.72005127 -0.30831665 41.79166504 -0.32366455 42.89575195 -0.33947754 C53.29063741 -0.3430513 62.40053105 1.48515766 70 9 C77.92931087 18.92677086 78.08157926 30.84575302 77 43 C75.2949545 50.97302527 70.88574786 57.26231401 64.25 61.9375 C62 63 62 63 60 63 C62.36438967 67.46666287 64.73057198 71.93236967 67.09838867 76.3972168 C67.90291354 77.91486163 68.70695605 79.43276228 69.51049805 80.95092773 C70.66847713 83.13854024 71.82821278 85.32521366 72.98828125 87.51171875 C73.34465164 88.18587326 73.70102203 88.86002777 74.06819153 89.55461121 C75.56180492 92.36633339 77.08089341 95.13136296 78.75073242 97.84301758 C80 100 80 100 80 102 C70.76 102 61.52 102 52 102 C51.10796875 100.20433594 50.2159375 98.40867187 49.296875 96.55859375 C48.41990654 94.79769676 47.54292282 93.03680731 46.66552734 91.27612305 C45.76648051 89.47059726 44.86954842 87.66401895 43.97265625 85.85742188 C40.43690545 78.73474328 40.43690545 78.73474328 36.578125 71.78515625 C35 69 35 69 35 67 C32.03 67 29.06 67 26 67 C26.02094727 67.75095947 26.04189453 68.50191895 26.06347656 69.27563477 C26.1470353 72.70445164 26.19878694 76.13305369 26.25 79.5625 C26.30027344 81.33463867 26.30027344 81.33463867 26.3515625 83.14257812 C26.42793507 89.95882988 26.34342069 94.58591092 22 100 C18 102 18 102 0 102 C0 68.34 0 34.68 0 0 Z " class="logo-text" transform="translate(597,826)"/>
<path d="M0 0 C5.34837002 5.41391377 8.57268709 12.75838072 12.07128906 19.4296875 C15.15465801 25.22894604 18.6555385 30.78613655 22.09869385 36.37609863 C23.93949956 39.37225073 25.75724304 42.38233934 27.578125 45.390625 C29.34096555 48.29963647 31.11306222 51.16959333 33 54 C33.33 36.18 33.66 18.36 34 0 C42.25 0 50.5 0 59 0 C59 33.66 59 67.32 59 102 C51.41 102 43.82 102 36 102 C28.90116059 93.37003836 28.90116059 93.37003836 26.97265625 89.0546875 C23.84121268 82.4776605 20.05329987 76.39769753 16.20892334 70.22302246 C14.37932516 67.27372928 12.57991571 64.30652024 10.78515625 61.3359375 C10.17551025 60.33095215 9.56586426 59.3259668 8.93774414 58.29052734 C6.54931958 54.23468934 4.26886923 50.12359839 2 46 C1.99857498 46.60055206 1.99714996 47.20110413 1.99568176 47.81985474 C1.97596376 54.08218804 1.92164502 60.34354937 1.84741211 66.60546875 C1.82424463 68.94100974 1.80983936 71.27665502 1.80444336 73.61230469 C1.79514514 76.97396747 1.75413233 80.3339927 1.70703125 83.6953125 C1.71293022 85.25658371 1.71293022 85.25658371 1.71894836 86.84939575 C1.55644299 94.96150062 1.55644299 94.96150062 -1.41918945 98.64404297 C-5.69806796 102.55012353 -9.0713868 102.12110144 -14.625 102.0625 C-15.42679688 102.05798828 -16.22859375 102.05347656 -17.0546875 102.04882812 C-19.03649006 102.03703168 -21.01825433 102.01909605 -23 102 C-23.09270935 89.84761209 -23.16377 77.69530841 -23.20724869 65.54263878 C-23.22811706 59.89955523 -23.25642148 54.25671376 -23.30175781 48.61376953 C-23.34524161 43.16727954 -23.36914275 37.7210223 -23.37950897 32.2743721 C-23.38689573 30.19714316 -23.40132037 28.11992686 -23.42292023 26.04279709 C-23.45198749 23.13160494 -23.45595456 20.22137267 -23.45410156 17.31005859 C-23.46848267 16.45266083 -23.48286377 15.59526306 -23.49768066 14.71188354 C-23.46063936 9.3282755 -22.57240001 6.27915325 -19 2 C-13.69346477 -1.7236846 -5.88251611 -2.94269703 0 0 Z " class="logo-text" transform="translate(1323,826)"/>
<path d="M0 0 C0.33 11.88 0.66 23.76 1 36 C8.71159183 26.1073519 16.40420173 16.20374294 23.9987793 6.22094727 C24.76702026 5.21245728 24.76702026 5.21245728 25.55078125 4.18359375 C26.00106689 3.59118896 26.45135254 2.99878418 26.9152832 2.38842773 C28 1 28 1 29 0 C31.14558827 -0.08775605 33.29404421 -0.10695219 35.44140625 -0.09765625 C36.74658203 -0.09443359 38.05175781 -0.09121094 39.39648438 -0.08789062 C40.7851569 -0.07953401 42.17382877 -0.07106905 43.5625 -0.0625 C44.95507656 -0.05748666 46.34765481 -0.05292347 47.74023438 -0.04882812 C51.1601987 -0.03699434 54.58007844 -0.0205088 58 0 C56.18566479 3.81179193 53.8133256 6.96575291 51.1875 10.25 C50.70611572 10.8577124 50.22473145 11.4654248 49.72875977 12.09155273 C45.46585304 17.456853 41.13151928 22.76392996 36.796875 28.07128906 C31.73663108 34.28407652 26.84226677 40.61651514 22 47 C26.70042816 57.31620285 35.14431368 66.54686423 42 75.5 C46.71517354 81.65910209 51.41079454 87.82550406 55.9375 94.125 C56.34419922 94.68638672 56.75089844 95.24777344 57.16992188 95.82617188 C58.87585688 98.22410873 60.06144125 100.18432375 61 103 C33.74374334 105.67669424 33.74374334 105.67669424 26.5 101.58935547 C22.63891358 97.85797742 20.45112072 93.25618757 18.23046875 88.42626953 C16.09663096 84.21871398 13.15449361 80.63504665 10.25 76.9375 C9.23199141 75.59425104 8.21612815 74.24937154 7.203125 72.90234375 C6.47609375 71.94457031 5.7490625 70.98679687 5 70 C2.89829794 71.03961635 2.89829794 71.03961635 1 73 C0.35402587 76.18823344 0.35402587 76.18823344 0.390625 79.85546875 C0.37408875 80.51710526 0.35755249 81.17874176 0.34051514 81.86042786 C0.29200712 83.96954601 0.27066073 86.07794323 0.25 88.1875 C0.22184223 89.61917695 0.19191505 91.05082028 0.16015625 92.48242188 C0.08291841 95.98861349 0.0424377 99.49252402 0 103 C-8.58 103 -17.16 103 -26 103 C-26.09039408 90.84755848 -26.16376988 78.69534051 -26.20724869 66.54263878 C-26.22811706 60.89955523 -26.25642148 55.25671376 -26.30175781 49.61376953 C-26.34524161 44.16727954 -26.36914275 38.7210223 -26.37950897 33.2743721 C-26.38689573 31.19714316 -26.40132037 29.11992686 -26.42292023 27.04279709 C-26.45198749 24.13160494 -26.45595456 21.22137267 -26.45410156 18.31005859 C-26.46848267 17.45266083 -26.48286377 16.59526306 -26.49768066 15.71188354 C-26.46063145 10.32712642 -25.61782948 7.24316463 -22 3 C-18 0 -18 0 0 0 Z " class="logo-text" transform="translate(1433,826)"/>
<path d="M0 0 C1.12148438 0.00322266 2.24296875 0.00644531 3.3984375 0.00976562 C4.5740625 0.01814453 5.7496875 0.02652344 6.9609375 0.03515625 C8.14429688 0.03966797 9.32765625 0.04417969 10.546875 0.04882812 C13.47661257 0.06064158 16.40625022 0.07711367 19.3359375 0.09765625 C22.18046299 8.74056974 25.0239085 17.38383766 27.8661108 26.02751541 C29.1870204 30.04454809 30.50825199 34.06147416 31.83032227 38.078125 C34.86182326 47.28894347 37.88684387 56.50184754 40.90203857 65.71801758 C41.8465687 68.60467907 42.79346428 71.49054677 43.74249268 74.37573242 C45.03179852 78.29644788 46.31139367 82.22026257 47.58984375 86.14453125 C47.97260971 87.30478821 48.35537567 88.46504517 48.7497406 89.66046143 C49.09344193 90.72093689 49.43714325 91.78141235 49.79125977 92.87402344 C50.0915358 93.79221863 50.39181183 94.71041382 50.70118713 95.65643311 C51.3359375 98.09765625 51.3359375 98.09765625 51.3359375 102.09765625 C42.4259375 102.09765625 33.5159375 102.09765625 24.3359375 102.09765625 C23.3459375 98.67390625 22.3559375 95.25015625 21.3359375 91.72265625 C21.02269531 90.6445166 20.70945312 89.56637695 20.38671875 88.45556641 C20.14308594 87.60784668 19.89945312 86.76012695 19.6484375 85.88671875 C19.39707031 85.01740723 19.14570313 84.1480957 18.88671875 83.25244141 C18.3359375 81.09765625 18.3359375 81.09765625 18.3359375 79.09765625 C8.7659375 79.42765625 -0.8040625 79.75765625 -10.6640625 80.09765625 C-11.56125 83.40796875 -11.56125 83.40796875 -12.4765625 86.78515625 C-14.22732713 93.24487403 -15.79327082 98.43578641 -21.6640625 102.09765625 C-24.04589844 102.43823242 -24.04589844 102.43823242 -26.6484375 102.390625 C-27.58300781 102.38095703 -28.51757812 102.37128906 -29.48046875 102.36132812 C-30.44855469 102.33619141 -31.41664063 102.31105469 -32.4140625 102.28515625 C-33.39761719 102.27162109 -34.38117188 102.25808594 -35.39453125 102.24414062 C-37.81829509 102.20884309 -40.24080257 102.15694663 -42.6640625 102.09765625 C-41.05817489 94.04905487 -38.62634073 86.3270415 -36.12109375 78.51953125 C-35.66959299 77.103063 -35.21840205 75.68649596 -34.76750183 74.26983643 C-33.82257731 71.30379389 -32.87509574 68.33858559 -31.92553711 65.37402344 C-30.72970708 61.6404747 -29.53844807 57.90548887 -28.34877205 54.16997528 C-26.08229965 47.05341902 -23.80222252 39.94143332 -21.50642586 32.83428192 C-20.18090453 28.72435097 -18.8841422 24.60638405 -17.60302734 20.48242188 C-17.00263057 18.58843007 -16.40191095 16.69454056 -15.80078125 14.80078125 C-15.55036575 13.97068542 -15.29995026 13.1405896 -15.04194641 12.28533936 C-13.47117178 7.40979406 -11.71329432 4.46272296 -7.6640625 1.09765625 C-5.00228029 -0.23323485 -2.97666854 -0.01503368 0 0 Z " class="logo-text" transform="translate(432.6640625,825.90234375)"/>
<path d="M0 0 C1.67739258 0.00966797 1.67739258 0.00966797 3.38867188 0.01953125 C5.13954102 0.04466797 5.13954102 0.04466797 6.92578125 0.0703125 C8.69405273 0.08384766 8.69405273 0.08384766 10.49804688 0.09765625 C13.41166151 0.12124827 16.32487017 0.1541671 19.23828125 0.1953125 C21.97136023 6.54704912 24.17397724 13.00900187 26.19770813 19.61412048 C27.86887549 25.05414059 29.63001982 30.45926519 31.4375 35.85546875 C31.85745239 37.10962334 31.85745239 37.10962334 32.28588867 38.38911438 C32.8666815 40.12167691 33.44788524 41.85410175 34.02947998 43.58639526 C38.55701608 57.08067268 43.0633154 70.5824963 47.45913696 84.12033081 C47.89262029 85.45394677 48.32764029 86.78706429 48.76425171 88.11965942 C49.3615459 89.94422757 49.95243857 91.77088769 50.54296875 93.59765625 C50.87280762 94.61335693 51.20264648 95.62905762 51.54248047 96.67553711 C52.23828125 99.1953125 52.23828125 99.1953125 52.23828125 102.1953125 C43.32828125 102.1953125 34.41828125 102.1953125 25.23828125 102.1953125 C21.23828125 91.1953125 21.23828125 91.1953125 19.23828125 79.1953125 C9.33828125 79.1953125 -0.56171875 79.1953125 -10.76171875 79.1953125 C-11.42171875 83.1553125 -12.08171875 87.1153125 -12.76171875 91.1953125 C-15.517108 98.13129233 -15.517108 98.13129233 -18.75390625 100.8984375 C-23.18475815 102.80888274 -27.30770339 102.51418642 -32.07421875 102.3828125 C-33.47124023 102.36250977 -33.47124023 102.36250977 -34.89648438 102.34179688 C-37.18549521 102.30658132 -39.47330333 102.25733349 -41.76171875 102.1953125 C-41.16558638 97.17390117 -40.098167 92.66178968 -38.53540039 87.82885742 C-38.08112691 86.41038178 -37.62695758 84.99187277 -37.17288208 83.57333374 C-36.93892353 82.84906063 -36.70496498 82.12478752 -36.46391678 81.37856674 C-35.33713452 77.87520724 -34.24376699 74.36148587 -33.14624023 70.84887695 C-30.96251355 63.88820413 -28.76497423 56.93191669 -26.56182766 49.97736835 C-25.24042721 45.8051971 -23.92333293 41.63176158 -22.61547852 37.45532227 C-21.33549447 33.36839772 -20.04485379 29.28498164 -18.74672127 25.20378685 C-18.25773392 23.66008151 -17.77253928 22.11516919 -17.29131889 20.56902504 C-16.6203222 18.41544227 -15.93572102 16.26663556 -15.24780273 14.1184082 C-14.67085915 12.28884331 -14.67085915 12.28884331 -14.08226013 10.4223175 C-11.22489814 3.43978628 -7.61444956 -0.07730406 0 0 Z " class="logo-text" transform="translate(1227.76171875,825.8046875)"/>
<path d="M0 0 C1.9216523 0.00022659 1.9216523 0.00022659 3.88212585 0.00045776 C5.28054967 0.01067105 6.67897191 0.02110304 8.07739258 0.03173828 C9.50799868 0.035469 10.93860734 0.0383157 12.36921692 0.04031372 C16.13234527 0.04794556 19.89531894 0.06759009 23.65838623 0.08972168 C27.4992056 0.11018984 31.34005 0.11931751 35.1809082 0.12939453 C42.71548388 0.15083649 50.24993217 0.18496691 57.78442383 0.22705078 C57.64181289 2.41476322 57.49517922 4.6022136 57.34692383 6.78955078 C57.22510742 8.61679687 57.22510742 8.61679687 57.10083008 10.48095703 C56.79710087 14.07696088 56.29478635 17.65451313 55.78442383 21.22705078 C41.59442383 21.22705078 27.40442383 21.22705078 12.78442383 21.22705078 C12.78442383 27.49705078 12.78442383 33.76705078 12.78442383 40.22705078 C26.31442383 40.22705078 39.84442383 40.22705078 53.78442383 40.22705078 C52.78442383 52.22705078 52.78442383 52.22705078 50.78442383 61.22705078 C38.24442383 61.22705078 25.70442383 61.22705078 12.78442383 61.22705078 C12.78442383 68.15705078 12.78442383 75.08705078 12.78442383 82.22705078 C27.63442383 82.22705078 42.48442383 82.22705078 57.78442383 82.22705078 C56.62146087 96.18260634 56.62146087 96.18260634 52.78442383 100.22705078 C48.55771813 102.72694152 45.48658873 103.59858347 40.59545898 103.56762695 C39.39466705 103.56740036 38.19387512 103.56717377 36.95669556 103.56694031 C35.67523651 103.55145645 34.39377747 103.5359726 33.07348633 103.52001953 C31.73685179 103.51441764 30.40021104 103.51015034 29.06356812 103.50715637 C25.56177479 103.49575412 22.06036041 103.46632775 18.55871582 103.43304443 C14.97905604 103.40224314 11.39933445 103.38862965 7.81958008 103.37353516 C0.8077066 103.34145282 -6.20391654 103.29031323 -13.21557617 103.22705078 C-13.30823589 90.79662299 -13.37932094 78.36627729 -13.42282486 65.93557453 C-13.44370406 60.16354999 -13.47202826 54.39176165 -13.51733398 48.61987305 C-13.56077915 43.05019495 -13.58471077 37.48074411 -13.59508514 31.91090965 C-13.60247885 29.78540659 -13.61691692 27.65991603 -13.6384964 25.53450966 C-13.66751222 22.55845842 -13.67153287 19.58334755 -13.66967773 16.60717773 C-13.68405884 15.72748322 -13.69843994 14.8477887 -13.71325684 13.94143677 C-13.68593878 9.89423628 -13.55532927 7.77358061 -11.37469482 4.26579285 C-7.45887931 0.56829442 -5.28156376 -0.02075271 0 0 Z " class="logo-text" transform="translate(713.215576171875,825.77294921875)"/>
<path d="M0 0 C0.65593165 -0.00170885 1.3118633 -0.0034177 1.98767167 -0.00517833 C4.18958957 -0.00847738 6.39120396 0.00253706 8.59309387 0.01345825 C10.16987094 0.01402228 11.74664853 0.01370598 13.32342529 0.01257324 C17.60828079 0.01199839 21.89302477 0.02377413 26.1778543 0.03772116 C30.65417783 0.05020644 35.13050379 0.05139727 39.60684204 0.05377197 C48.08534941 0.05999323 56.56380534 0.07641277 65.04229003 0.09647095 C74.69392207 0.11880989 84.34555655 0.12981833 93.997208 0.13986182 C113.85317331 0.16077844 133.70909226 0.19596694 153.5650177 0.24050903 C153.54203762 4.24174709 153.46448115 8.24019043 153.3775177 12.24050903 C153.36881653 13.92853638 153.36881653 13.92853638 153.35993958 15.65066528 C153.17422429 22.7078461 152.3754212 27.86619221 147.5650177 33.24050903 C137.00824309 41.47479323 123.40340331 37.97607159 110.95149231 36.64138794 C108.40070086 36.36799381 105.84920286 36.1023189 103.29743958 35.83816528 C95.83611278 35.05893759 88.38727489 34.23305839 80.9478302 33.26394653 C69.53754661 31.80968769 58.07875574 30.81256744 46.6275177 29.74050903 C32.25236239 28.39261519 17.89508089 27.00848423 3.5650177 25.24050903 C1.7722084 25.02822057 -0.02073524 24.8170593 -1.81388855 24.60769653 C-3.94995626 24.35639445 -6.08602397 24.10509237 -8.22209167 23.85379028 C-9.25753113 23.73197388 -9.25753113 23.73197388 -10.31388855 23.60769653 C-11.34384949 23.48652466 -12.37381042 23.36535278 -13.4349823 23.24050903 C-13.54343261 20.67686421 -13.62247974 18.11784624 -13.6849823 15.55300903 C-13.71849792 14.83177856 -13.75201355 14.1105481 -13.7865448 13.36746216 C-13.85679444 9.52129448 -13.7158195 7.68516793 -11.6068573 4.34597778 C-7.64425492 0.5045341 -5.40444574 -0.00846428 0 0 Z " fill="#FECD01" transform="translate(763.4349822998047,1096.7594909667969)"/>
<path d="M0 0 C1.22111481 0.00007553 2.44222961 0.00015106 3.7003479 0.00022888 C5.03769979 0.00533587 6.37505127 0.01055187 7.71240234 0.01586914 C9.07717843 0.01773399 10.44195518 0.01915758 11.80673218 0.02015686 C15.40049077 0.02397676 18.99420902 0.03380256 22.58795166 0.04486084 C26.25442967 0.05508628 29.92091419 0.05965691 33.58740234 0.06469727 C40.78273325 0.07542529 47.97803089 0.0924954 55.17333984 0.11352539 C55.02918786 1.92615989 54.88291348 3.73862561 54.73583984 5.55102539 C54.61402344 7.0650293 54.61402344 7.0650293 54.48974609 8.60961914 C54.11282789 12.7836392 53.63615876 16.94815513 53.17333984 21.11352539 C39.97333984 21.11352539 26.77333984 21.11352539 13.17333984 21.11352539 C13.17333984 28.37352539 13.17333984 35.63352539 13.17333984 43.11352539 C25.05333984 43.11352539 36.93333984 43.11352539 49.17333984 43.11352539 C48.17333984 58.11352539 48.17333984 58.11352539 47.17333984 64.11352539 C35.95333984 64.11352539 24.73333984 64.11352539 13.17333984 64.11352539 C13.29165868 73.38747595 13.29165868 73.38747595 13.44360352 82.66088867 C13.45109619 83.82346191 13.45858887 84.98603516 13.46630859 86.18383789 C13.48201904 87.3673584 13.49772949 88.55087891 13.51391602 89.77026367 C13.11656745 93.67083091 12.38431486 95.86836196 10.17333984 99.11352539 C4.70881469 102.96989839 0.82870358 103.65729481 -5.76416016 103.36352539 C-6.54339844 103.34547852 -7.32263672 103.32743164 -8.12548828 103.30883789 C-10.02642147 103.26218922 -11.92671185 103.19046368 -13.82666016 103.11352539 C-13.96578599 90.84810544 -14.07234559 78.58287373 -14.13753319 66.31682491 C-14.16882293 60.62092623 -14.21125387 54.92556807 -14.27929688 49.22998047 C-14.34457173 43.73158532 -14.38038393 38.2337095 -14.39592361 32.73495674 C-14.40699524 30.63897083 -14.42861607 28.5430128 -14.4610405 26.44724846 C-14.50471133 23.50718028 -14.51058975 20.56924748 -14.5078125 17.62890625 C-14.52938416 16.76575302 -14.55095581 15.90259979 -14.57318115 15.01329041 C-14.51568627 9.37415864 -13.21243778 6.49250747 -9.31052589 2.40790653 C-6.28175466 -0.23410094 -3.92209757 -0.00807016 0 0 Z " class="logo-text" transform="translate(518.82666015625,825.886474609375)"/>
<path d="M0 0 C1.12148438 0.00322266 2.24296875 0.00644531 3.3984375 0.00976562 C4.5740625 0.01814453 5.7496875 0.02652344 6.9609375 0.03515625 C8.14429688 0.03966797 9.32765625 0.04417969 10.546875 0.04882812 C13.47661257 0.06064158 16.40625022 0.07711367 19.3359375 0.09765625 C15.1869072 7.9321488 10.69656385 15.48056128 5.9609375 22.97265625 C5.30697998 24.02259766 4.65302246 25.07253906 3.97924805 26.15429688 C1.21541142 30.58521501 -1.54738358 34.9939469 -4.55859375 39.26171875 C-4.95578613 39.84195801 -5.35297852 40.42219727 -5.76220703 41.02001953 C-6.76232256 42.46841634 -7.79567456 43.89371541 -8.83203125 45.31640625 C-9.78769239 48.51091674 -9.55666309 49.01807005 -8.171875 51.91015625 C-7.36195809 53.32124689 -6.52476502 54.71695593 -5.6640625 56.09765625 C-5.26002197 56.76861328 -4.85598145 57.43957031 -4.43969727 58.13085938 C-3.10559553 60.30582917 -1.73325846 62.45262952 -0.3515625 64.59765625 C0.70364876 66.25357261 1.75830772 67.909841 2.8125 69.56640625 C3.37485352 70.448125 3.93720703 71.32984375 4.51660156 72.23828125 C7.87222806 77.51218055 11.20014696 82.80334085 14.5234375 88.09765625 C15.51307495 89.66483398 15.51307495 89.66483398 16.52270508 91.26367188 C17.13525146 92.24013672 17.74779785 93.21660156 18.37890625 94.22265625 C18.92571045 95.09148437 19.47251465 95.9603125 20.03588867 96.85546875 C21.3359375 99.09765625 21.3359375 99.09765625 22.3359375 102.09765625 C12.1059375 102.09765625 1.8759375 102.09765625 -8.6640625 102.09765625 C-14.8515625 91.09765625 -14.8515625 91.09765625 -16.77026367 87.6796875 C-19.93839936 82.06153348 -23.19400996 76.5347254 -26.6640625 71.09765625 C-28.91853002 73.98312395 -30.78992181 76.93797683 -32.58984375 80.125 C-33.13962891 81.08212891 -33.68941406 82.03925781 -34.25585938 83.02539062 C-35.39843226 85.0239205 -36.53392092 87.02651798 -37.66210938 89.03320312 C-43.68447724 99.45841967 -43.68447724 99.45841967 -48.6640625 102.09765625 C-53.31088152 102.66976441 -57.86672827 102.56833423 -62.5390625 102.41015625 C-64.43011719 102.37631836 -64.43011719 102.37631836 -66.359375 102.34179688 C-69.46215749 102.28303206 -72.56249449 102.20091476 -75.6640625 102.09765625 C-74.37450087 98.60735033 -72.86495452 95.6657366 -70.77734375 92.58984375 C-70.18099121 91.70433838 -69.58463867 90.81883301 -68.97021484 89.90649414 C-67.98335693 88.45424438 -67.98335693 88.45424438 -66.9765625 86.97265625 C-65.51569294 84.80289965 -64.0559313 82.63243521 -62.59765625 80.4609375 C-62.20676819 79.87966599 -61.81588013 79.29839447 -61.41314697 78.69950867 C-56.88640575 71.95855125 -52.43999256 65.16514697 -47.99002075 58.37338257 C-45.05746083 53.90018784 -42.11733328 49.43196385 -39.1778717 44.96330261 C-36.6376859 41.10121064 -34.09978175 37.23765712 -31.56640625 33.37109375 C-29.04632911 29.52597261 -26.51780609 25.68652913 -23.98345947 21.85079956 C-23.02882842 20.40295927 -22.07707219 18.95321893 -21.12835693 17.50149536 C-19.81192457 15.48805065 -18.48537971 13.4816401 -17.15625 11.4765625 C-16.58269775 10.59152039 -16.58269775 10.59152039 -15.99755859 9.68859863 C-11.6755325 3.22122589 -7.74114072 -0.03909667 0 0 Z " class="logo-text" transform="translate(868.6640625,825.90234375)"/>
<path d="M0 0 C0.85078125 0.00322266 1.7015625 0.00644531 2.578125 0.00976562 C3.46757813 0.01814453 4.35703125 0.02652344 5.2734375 0.03515625 C6.170625 0.03966797 7.0678125 0.04417969 7.9921875 0.04882812 C10.21100398 0.06063034 12.42968768 0.0770947 14.6484375 0.09765625 C14.71797185 12.11968875 14.77126635 24.14167334 14.80387402 36.16386604 C14.81952467 41.7463606 14.84075223 47.32871749 14.87475586 52.91113281 C14.90737034 58.29925768 14.92529503 63.68725019 14.93306923 69.07546616 C14.93860895 71.13035032 14.94942668 73.18522731 14.96562767 75.24005508 C14.98742948 78.11999371 14.99040324 80.99938656 14.98901367 83.87939453 C14.9997995 84.72744156 15.01058533 85.57548859 15.021698 86.44923401 C14.99597797 91.38097967 14.52596805 94.90258838 11.6484375 99.09765625 C7.26891751 103.03180132 2.39285166 102.44676673 -3.1640625 102.28515625 C-4.48954102 102.26485352 -4.48954102 102.26485352 -5.84179688 102.24414062 C-8.01198273 102.20894842 -10.18185283 102.1551461 -12.3515625 102.09765625 C-12.4906933 89.9626217 -12.59725042 77.82777745 -12.66243553 65.6921072 C-12.69372422 60.05673959 -12.73615314 54.42191839 -12.80419922 48.78686523 C-12.86947798 43.3468242 -12.90528707 37.90730812 -12.92082596 32.46690559 C-12.9318969 30.39324748 -12.95351641 28.31961752 -12.98594284 26.2461834 C-13.02961905 23.33724171 -13.0354919 20.43045801 -13.03271484 17.52124023 C-13.0542865 16.66743774 -13.07585815 15.81363525 -13.0980835 14.93395996 C-13.0402627 9.3218476 -11.71348518 6.46098307 -7.83542824 2.39526463 C-5.20406191 0.09419189 -3.4004738 -0.02266983 0 0 Z " class="logo-text" transform="translate(927.3515625,825.90234375)"/>
<path d="M0 0 C10.23 0 20.46 0 31 0 C38 13 38 13 37 19 C35.69311523 21.42529297 35.69311523 21.42529297 34.05859375 23.7421875 C33.47529297 24.58007812 32.89199219 25.41796875 32.29101562 26.28125 C31.67935547 27.1371875 31.06769531 27.993125 30.4375 28.875 C29.82197266 29.75414062 29.20644531 30.63328125 28.57226562 31.5390625 C27.05755328 33.69958243 25.53337378 35.85270443 24 38 C19.63846944 34.25116064 17.11172791 29.46591522 14.25 24.5625 C13.18816363 22.76523276 12.12566187 20.96835847 11.0625 19.171875 C10.54429687 18.29337891 10.02609375 17.41488281 9.4921875 16.50976562 C6.83737897 12.04454447 4.0817553 7.64297037 1.328125 3.23828125 C0 1 0 1 0 0 Z " class="logo-text" transform="translate(796,826)"/>
<path d="M0 0 C2.866875 -0.061875 5.73375 -0.12375 8.6875 -0.1875 C10.02880981 -0.22846802 10.02880981 -0.22846802 11.3972168 -0.27026367 C16.08935444 -0.3192004 19.22122733 -0.09960512 23 3 C26.11319473 7.66979209 25.72810766 12.53558808 25 18 C23.372775 21.23025335 21.27822678 23.36088661 18 25 C16.62451844 25.08308638 15.24514204 25.10736016 13.8671875 25.09765625 C13.14128418 25.09515869 12.41538086 25.09266113 11.66748047 25.09008789 C10.74596191 25.08098389 9.82444336 25.07187988 8.875 25.0625 C5.94625 25.041875 3.0175 25.02125 0 25 C0 16.75 0 8.5 0 0 Z " fill="#FAFCFC" transform="translate(623,847)"/>
<path d="M0 0 C3.361875 -0.0825 6.72375 -0.165 10.1875 -0.25 C11.23832764 -0.28641602 12.28915527 -0.32283203 13.37182617 -0.36035156 C17.74859079 -0.41239095 20.29968768 -0.42528377 24.11328125 1.890625 C26.9014485 5.00783062 27.15708004 6.77438947 27.1875 10.875 C27.20167969 11.73867188 27.21585938 12.60234375 27.23046875 13.4921875 C26.97998826 16.21775485 26.54598753 17.74685729 25 20 C21.92799899 21.91463854 19.60332121 22.23906489 16.015625 22.1953125 C15.17290039 22.19031738 14.33017578 22.18532227 13.46191406 22.18017578 C11.8720166 22.15286377 11.8720166 22.15286377 10.25 22.125 C6.8675 22.08375 3.485 22.0425 0 22 C0 14.74 0 7.48 0 0 Z " fill="#FDFEFE" transform="translate(1118,886)"/>
<path d="M0 0 C3.031875 -0.061875 6.06375 -0.12375 9.1875 -0.1875 C10.60712036 -0.22846802 10.60712036 -0.22846802 12.05541992 -0.27026367 C16.84628681 -0.31755702 20.14384415 -0.19156787 24 3 C25.13624119 5.27248238 25.26446843 6.78302764 25.375 9.3125 C25.42398437 10.07175781 25.47296875 10.83101562 25.5234375 11.61328125 C24.6848185 15.43713357 23.16886989 16.7393544 20 19 C16.53819462 19.59705422 13.18700592 19.47325469 9.6875 19.3125 C8.75615234 19.28994141 7.82480469 19.26738281 6.86523438 19.24414062 C4.57612873 19.18544561 2.28785439 19.09577065 0 19 C0 12.73 0 6.46 0 0 Z " fill="#FDFEFD" transform="translate(1118,846)"/>
<path d="M0 0 C0.66 0 1.32 0 2 0 C3.31842223 4.37323746 4.62869022 8.74887705 5.9375 13.125 C6.31068359 14.3625 6.68386719 15.6 7.06835938 16.875 C7.60493164 18.67324219 7.60493164 18.67324219 8.15234375 20.5078125 C8.48226318 21.60754395 8.81218262 22.70727539 9.15209961 23.84033203 C10 27 10 27 11 33 C4.4 33 -2.2 33 -9 33 C-6.29897147 21.89577161 -3.30341508 10.93917779 0 0 Z " fill="#F3F8F8" transform="translate(1231,852)"/>
<path d="M0 0 C2.37656937 2.37656937 2.75778887 3.98910966 3.69140625 7.19921875 C3.99626953 8.24400391 4.30113281 9.28878906 4.61523438 10.36523438 C4.92783203 11.46158203 5.24042969 12.55792969 5.5625 13.6875 C6.03719727 15.30301758 6.03719727 15.30301758 6.52148438 16.95117188 C8.09007683 22.38296441 9.19291064 27.35037445 10 33 C3.4 33 -3.2 33 -10 33 C-3.61702128 10.27659574 -3.61702128 10.27659574 0 0 Z " fill="#F5F9F9" transform="translate(436,852)"/>
</svg>
