<svg viewBox="0 0 512 512" xmlns="http://www.w3.org/2000/svg" fill-rule="evenodd" clip-rule="evenodd" stroke-linejoin="round" stroke-miterlimit="2"><g fill-rule="nonzero"><path d="M346.955 330.224c-15.875 14.088-35.7 31.619-71.647 31.619h-21.495c-26.012 0-49.672-9.455-66.607-26.593-16.543-16.747-25.649-39.665-25.649-64.545v-29.41c0-24.88 9.106-47.799 25.65-64.545 16.934-17.138 40.594-26.579 66.606-26.579h21.495c35.99 0 55.772 17.516 71.647 31.604 16.484 14.524 30.703 27.218 68.625 27.218a109.162 109.162 0 0017.269-1.38l-.13-.334a129.909 129.909 0 00-7.974-16.382L399.4 146.99c-23.232-40.234-66.304-65.098-112.763-65.096h-50.703c-46.46-.002-89.531 24.862-112.764 65.096l-25.344 43.906c-23.224 40.238-23.224 89.968 0 130.206l25.344 43.906c23.233 40.234 66.305 65.098 112.764 65.096h50.703c46.459.002 89.53-24.862 112.763-65.096l25.345-43.833a129.909 129.909 0 007.973-16.383l.13-.32a107.491 107.491 0 00-17.268-1.452c-37.922 0-52.14 12.621-68.625 27.218" fill="#006bff"/><path d="M275.308 176.823h-21.495c-39.592 0-65.605 28.278-65.605 64.471v29.411c0 36.194 26.013 64.472 65.605 64.472h21.495c57.69 0 53.158-58.822 140.272-58.822 8.254-.009 16.49.75 24.603 2.266a130.047 130.047 0 000-45.242 134.431 134.431 0 01-24.603 2.266c-87.143 0-82.583-58.822-140.272-58.822" fill="#006bff"/><path d="M490.233 300.116a121.451 121.451 0 00-50.035-21.51v.436a130.296 130.296 0 01-7.262 25.344 95.25 95.25 0 0141.364 17.037c0 .116-.072.261-.116.392-28.788 93.217-115.55 157.228-213.112 157.228-122.358 0-223.044-100.685-223.044-223.043S138.714 32.956 261.072 32.956c97.561 0 184.324 64.012 213.112 157.229 0 .13.073.276.116.392a95.073 95.073 0 01-41.364 17.022 131.112 131.112 0 017.262 25.373 3.166 3.166 0 000 .407 121.415 121.415 0 0050.035-21.495c14.262-10.56 11.503-22.483 9.339-29.542C467.34 77.803 370.064 6 260.67 6c-137.147 0-250 112.854-250 250 0 137.146 112.853 250 250 250 109.394 0 206.67-71.803 238.902-176.342 2.164-7.059 4.923-18.983-9.34-29.542" fill="#006bff"/><path d="M432.849 207.599a107.491 107.491 0 01-17.269 1.452c-37.922 0-52.14-12.62-68.61-27.217-15.89-14.089-35.672-31.619-71.662-31.619h-21.495c-26.027 0-49.672 9.455-66.607 26.593-16.543 16.746-25.649 39.665-25.649 64.545v29.41c0 24.88 9.106 47.799 25.65 64.545 16.934 17.138 40.579 26.578 66.606 26.578h21.495c35.99 0 55.772-17.515 71.661-31.604 16.47-14.524 30.69-27.217 68.611-27.217 5.783.001 11.558.463 17.269 1.38a129.303 129.303 0 007.262-25.345c.009-.145.009-.29 0-.436a134.301 134.301 0 00-24.604-2.25c-87.143 0-82.583 58.836-140.271 58.836H253.74c-39.592 0-65.604-28.293-65.604-64.487v-29.469c0-36.193 26.012-64.471 65.604-64.471h21.496c57.688 0 53.157 58.807 140.271 58.807 8.254.015 16.49-.74 24.604-2.251v-.407a131.112 131.112 0 00-7.262-25.373" fill="#0ae8f0"/><path d="M432.849 207.599a107.491 107.491 0 01-17.269 1.452c-37.922 0-52.14-12.62-68.61-27.217-15.89-14.089-35.672-31.619-71.662-31.619h-21.495c-26.027 0-49.672 9.455-66.607 26.593-16.543 16.746-25.649 39.665-25.649 64.545v29.41c0 24.88 9.106 47.799 25.65 64.545 16.934 17.138 40.579 26.578 66.606 26.578h21.495c35.99 0 55.772-17.515 71.661-31.604 16.47-14.524 30.69-27.217 68.611-27.217 5.783.001 11.558.463 17.269 1.38a129.303 129.303 0 007.262-25.345c.009-.145.009-.29 0-.436a134.301 134.301 0 00-24.604-2.25c-87.143 0-82.583 58.836-140.271 58.836H253.74c-39.592 0-65.604-28.293-65.604-64.487v-29.469c0-36.193 26.012-64.471 65.604-64.471h21.496c57.688 0 53.157 58.807 140.271 58.807 8.254.015 16.49-.74 24.604-2.251v-.407a131.112 131.112 0 00-7.262-25.373" fill="#0ae8f0"/></g></svg>
