<svg width="800" height="400" viewBox="0 0 800 400" xmlns="http://www.w3.org/2000/svg">
  <!-- Dark background to match other project cards -->
  <rect width="800" height="400" fill="#18181b"/>
  
  <!-- Center the 500x500 logo inside 800x400 -->
  <g transform="translate(275, 75) scale(0.5)">
    <path d="M 218.597081539032 21.60663016612161 C 129.7898382023114 37.64397408498118, 94.6117806126194 145.0944097455171, 156.84342032955692 210.23153600900682 C 173.04251463908835 227.1869377338138, 193.7382126405345 238.59318117526024, 216.5 243.1107107320613 C 225.61736139151233 244.9202324939394, 250.36615413256632 244.92237134732414, 259.5 243.11442690102785 C 267.26068884555826 241.5782838018995, 282.2978622328289 236.4167441821383, 289.09574257332565 232.95562950378638 C 309.4953708229596 222.5692370945062, 328.3651732696742 203.3143829664318, 339.0323796357944 182 C 355.3003796891232 149.49454624447327, 354.019050474177 109.0030464287566, 335.7068286649151 76.90870499649894 L 331.3754271866492 69.31740999299788 336.80774446608007 66.40870499649894 C 342.747939485415 63.2280596026188, 345.82049875832945 59.82158624773269, 348.9277343579862 52.97156059631778 C 350.65709374916423 49.15911837552406, 350.959313248693 46.399517036859066, 350.978037999509 34.25 L 351 20 288.75 20.089736907682166 C 239.4984776419637 20.16073577218095, 224.8497845956441 20.477479597162002, 218.597081539032 21.60663016612161 M 251.5 72.1313282694326 C 264.32038116584374 75.30558978544292, 271.6735339663094 79.53899197468536, 281.55382178718844 89.4340987138233 C 306.1170668287525 114.03418486032693, 306.0981343284967 150.67434926475607, 281.509284073705 175.62816300448458 C 246.87386912027023 210.7776589992311, 187.68640317099454 193.26323384816646, 177.3591448254711 144.8086340876789 C 168.18296719613033 101.7548051347534, 209.1099170337315 61.63575818616565, 251.5 72.1313282694326 M 229.7405240614629 110.429312439104 C 223.93379595639837 112.50137818664021, 218.75102344360482 117.4660701573903, 216.17055080319494 123.42828878088122 C 213.95449404756172 128.5485193356412, 215.02886700268402 138.93412834480716, 218.28334538977936 143.85197721079945 C 226.54290973469125 156.33302157977695, 244.0187789614364 157.6019259127464, 253.84887042099348 146.43435226928153 C 269.196513170523 128.998509341053, 251.551532836387 102.64629877219686, 229.7405240614629 110.429312439104 M 184.7451320558156 265.3669231982367 C 175.07119109868404 269.29011543920655, 166.8646225021033 272.79389258337756, 166.5083129523028 273.1530946297279 C 164.477449141828 275.20044485368305, 176.17469491428093 290.68645614710425, 185.23689393173242 297.9479072034899 C 193.6977152391469 304.72748020804437, 209.58518461176496 312.4616863223697, 219.36727395771223 314.56297582707657 C 230.29676855284077 316.91073932343113, 250.6094730524356 316.1468500050576, 260.5 313.0161187820231 C 277.52222344845586 307.6279320132003, 295.0990021029473 294.57860266325116, 304.1696362520504 280.5949637315289 C 308.64351933960324 273.6978532659652, 308.7280253556928 273.24106550651913, 305.75 272.05248535022145 C 304.5125 271.55857822461326, 296.8570060063009 268.2341224816777, 288.737791125113 264.6648059214757 L 273.975582250226 258.1751394483811 271.0832600164608 262.33756972419053 C 266.53771352597334 268.8792060990124, 262.05896054708717 272.62113191208584, 254.5 276.19261576335316 C 248.10794963728577 279.2127538504237, 246.67492549225503 279.4999349822919, 238 279.4992513788496 C 224.20038578081417 279.4981639385262, 214.44726466432732 274.65985657338877, 206.48815534606763 263.8669231982367 L 202.33411561423657 258.23384639647344 184.7451320558156 265.3669231982367 M 411.2058723073304 375.07122848894915 C 400.25223419459235 380.6357420141642, 400.316253279457 398.06260131013653, 411.30866650035216 403.0531957729279 C 416.30236248984437 405.3203514059286, 419.91095700595065 405.4818712586041, 424.3288100938354 403.6359743770761 C 427.5010700074312 402.31051955424346, 433 396.78526569754206, 433 394.9232747180565 C 433 393.12411065184136, 426.63487499554014 393.9943890779727, 424.39355487786327 396.1 C 421.157168829021 399.14042682640184, 415.4671356115838 398.9216810661292, 412.1757575757576 395.630303030303 C 410.76242424242423 394.2169696969697, 409.95470585438045 392.71196081228624, 410.3808278245492 392.28583884211747 C 410.8069497947179 391.8597168719487, 415.95808615835426 391.42696881421017, 421.82779752151885 391.3241764915873 C 427.6975088846835 391.2213841689645, 432.8967510979816 391.10639305364805, 433.38166910662585 391.0686406797729 C 433.8665871152701 391.0308883058978, 434.0120436075314 389.1264588142651, 433.7049057560954 386.8365751428113 C 432.2603627521297 376.06670284596277, 420.91987385555905 370.13645773582215, 411.2058723073304 375.07122848894915 M 332 389 L 332 404 343.5 404 L 355 404 355 401 L 355 398 347 398 L 339 398 339 386 L 339 374 335.5 374 L 332 374 332 389 M 360 389 L 360 404.12671696817625 363.25 403.8133584840881 L 366.5 403.5 366.5 389 L 366.5 374.5 363.25 374.1866415159119 L 360 373.87328303182375 360 389 M 371.44280576043434 375.75 C 371.80403661327597 376.7125, 374.6254924471693 383.4625, 377.71270761353054 390.75 C 383.2178744457268 403.7451756284341, 383.38621593268374 404, 386.46589196741525 404 C 389.5715761555173 404, 389.668564162953 403.84397175678106, 395.32376973009053 389.75 C 398.46856627128665 381.9125, 401.03222575796013 375.13398868216035, 401.0207908115872 374.6866415159119 C 401.0093558652142 374.2392943496634, 399.58301736633615 374.01429434966343, 397.8511497029692 374.1866415159119 C 394.8865440221859 374.48166485917, 394.4789005782246 375.04904674376814, 390.8842802999786 383.8835360696572 C 388.7843697917007 389.0444809079687, 386.86395330942935 393.46938002390397, 386.61668811715333 393.71664521618004 C 386.1219654952857 394.2113678380477, 382.94391501768337 387.4204067701211, 379.84655230298625 379.25 C 377.96322720487626 374.28205354060657, 377.6663784738623 374, 374.32116221402737 374 C 371.3708258617252 374, 370.8946713312695 374.28949521775087, 371.44280576043434 375.75 M 425.1215329328619 382.87087891566523 L 427.19805942594974 385.5 423.12920288745636 385.80602348915215 C 420.89133179128504 385.9743364081858, 416.97753711984507 385.9743364081858, 414.4318813953675 385.80602348915215 L 409.80341644177196 385.5 411.9216334548288 382.8169398772134 C 415.3701302625589 378.44886795099217, 421.64921562406187 378.474526315082, 425.1215329328619 382.87087891566523 M 313.44012498478236 396.451036773144 C 311.54435249640176 399.34435129870946, 312.2635528256435 402.535497916324, 315.1608652832017 404.0860924868741 C 320.3050129001911 406.8391567427516, 325.66999385734806 401.1976780907725, 322.5035151776906 396.3650207888552 C 320.36401641973004 393.0997329593412, 315.60639878349 393.14488506634984, 313.44012498478236 396.451036773144 M 186 437 L 186 473 192 473 L 198 473 198 437 L 198 401 192 401 L 186 401 186 437 M 61.86316214970243 404.5086627847912 C 46.187688142921154 409.5318328230825, 37.25109342051941 423.50989131568963, 38.19670989455573 441.5262365039704 C 39.232172970662425 461.254382873109, 53.05033973927748 474, 73.40315577515301 474 C 91.69380811633953 474, 104.60408015557441 462.1599443056959, 107.52067373805366 442.7107048089667 L 108.22708755012567 438 89.11354377506284 438 L 70 438 70 443 L 70 448 82 448 C 96.22126687561902 448, 96.81029518326045 448.6589115569362, 89.17120866771083 456.0220121971322 C 80.28040622708065 464.5916066125386, 67.6807753950344 465.30695869474823, 58.52724185829162 457.76184297126287 C 48.22204837134828 449.26743181301595, 47.262006850591284 430.80465981607534, 56.637963128066836 421.42870353859985 C 61.83250890519458 416.23415776147203, 66.21360378864273 414.74872759320175, 74.81149027277561 415.2668864123332 C 83.37309087056576 415.7828584321794, 89.13907290716367 419.0481274440854, 92.5 425.28386917650124 C 94.47500436517129 428.9482203514649, 94.57723894044177 428.9946301090197, 100.68019433961697 428.99729817102724 L 106.86038867923396 429 106.054944504397 426.1915802905934 C 103.65398561020434 417.81992587855336, 96.94030320820205 410.33172522480197, 88.22501699010064 406.3047183757261 C 81.13331984913351 403.02791113800953, 69.0525545434217 402.2048383230858, 61.86316214970243 404.5086627847912 M 130.1954124711416 421.1322991749893 C 113.67217382335011 429.3111150235199, 109.59290180987391 452.4459994833368, 122.30657752116564 465.87245979368106 C 130.33098706907492 474.34675304730416, 144.52811993272923 476.6179089090863, 155.35109805147277 471.1586860495695 C 161.26117390852892 468.17758224742454, 162 468.17846905372477, 162 471.16666666666686 C 162 472.69999999999993, 162.81818181818204 473, 167 473 L 172 473 172 446.4452088091083 L 172 419.89041761821665 167.255158722812 420.1952088091083 C 162.8562040565323 420.4777815134599, 162.4719470533194 420.7186922116265, 161.98395587079813 423.5 C 161.6319327141991 425.5063574552272, 161.1927665446997 426.07968401929793, 160.6580278341726 425.23098434770174 C 160.2182662801828 424.5330257389377, 157.65526724217386 422.8455257389377, 154.96247441637496 421.48098434770174 C 148.3367462233379 418.1234737810299, 136.60759022000403 417.9583438679285, 130.1954124711416 421.1322991749893 M 223.5 421.38329082419443 C 203.60508310978634 430.7886246922906, 203.49448728628528 461.57281851398926, 223.32073740964609 471.28078380123804 C 236.80824823711916 477.8849719916321, 253.54872244403376 472.6455486825094, 260.1208543757091 459.7631058533343 L 262.04064773081427 456 255.48893906906844 456 C 250.62750890730962 456, 248.7907334148118 456.3817650429306, 248.3693916666889 457.4797640380206 C 247.22878782283226 460.4521300091828, 241.46098970627298 463.00013686699805, 235.88196601125009 462.9962619395625 C 229.55193898018535 462.9918654005349, 224.85945500348078 460.56268285634894, 222.5485485148422 456.09388247542114 C 219.59609210318604 450.38446134481774, 219.1995072286417 450.5, 241.74947461382965 450.5 L 262.5 450.5 262.79801767961806 445.9158513560183 C 263.42036427139743 436.34283109611806, 256.46826964508983 424.96035333237353, 247.5 420.86881799017544 C 241.43150397024678 418.10022750813994, 229.92274672705838 418.34693346459574, 223.5 421.38329082419443 M 293 420.17494932601176 C 291.075 420.7219643614158, 288.072432685031 422.25263625927573, 286.3276281889579 423.576442432367 L 283.1552563779157 425.9833627470785 282.4981729231388 422.9916813735392 C 281.9047603353406 420.28989155851156, 281.46119178498606 420, 277.9205447341809 420 L 274 420 274 446.5 L 274 473 279.3846074651634 473 L 284.76921493032677 473 285.1869763411478 456.25 C 285.7403809800958 434.06143144800456, 287.178513257381 431.30649039543687, 298.5 430.74706401082045 L 303.5 430.5 303.7999038559879 424.75 L 304.0998077119758 419 300.2999038559879 419.090188267184 C 298.20995673519457 419.1397918141351, 294.925 419.62793429060764, 293 420.17494932601176 M 349.2896921630397 421.08565329528756 C 344.33264884675435 423.5393588636457, 338.4512667860833 429.738362700986, 336.2206953729137 434.86043623175533 C 335.246582685766 437.09729660814486, 334.6285936975724 441.3905319727334, 334.6172128807036 446 C 334.57495914818406 463.1136423094095, 345.0154730745788 473.980462168592, 361.5 473.980462168592 C 372.02306437769994 473.980462168592, 379.3442121904712 470.00377609264723, 385.3466387709168 461.0274937565946 C 388.1766317108139 456.7954027352217, 387.53603205855944 456, 381.2976072431483 456 C 376.2300347462967 456, 375.22552859117 456.3583136775464, 372.2744411847643 459.21862021152424 C 369.3184291319023 462.0836999007824, 368.20417155311446 462.47959075671145, 362.1302802242534 462.8227963390116 C 355.6605989707489 463.18836605399065, 355.12211760625945 463.0461176922065, 351.7423792979951 460.0786681544872 C 349.78189700099125 458.357341899219, 347.71125495348934 455.6104626418497, 347.1409525257686 453.9744920269998 L 346.1040390208218 451 367.03296748219594 451 L 387.9618959435701 451 388.575581843892 448.55488061586607 C 389.8917495529837 443.31085076837667, 386.4874859988271 433.10965970934257, 381.40605098011645 427.0707173066784 C 374.7918581808436 419.210195779226, 359.0173437620698 416.27052633902883, 349.2896921630397 421.08565329528756 M 405.27444922722884 421.04322703479875 C 399.714461167859 423.8611296352322, 396.61538461538464 428.9217988724899, 396.61538461538464 435.1831365086708 C 396.6153846153845 443.75022052311687, 401.48205060322607 447.92391533074493, 414.56461887392845 450.5765549213879 C 424.46478803118936 452.5839268775063, 427 454.09681548129976, 427 457.99737283362265 C 427 465.406480505388, 411.01514967897435 466.1738243983462, 407.80379732159514 458.91887591919647 C 406.612622789703 456.2278258889202, 406.10154141425807 456, 401.2558886242723 456 C 396.35374657063954 456, 396 456.16388049791067, 396 458.4349003388255 C 396 464.1159031442357, 400.95405130246536 470.3851898116155, 407.2470386852809 472.6678796464978 C 412.41154075126127 474.5412278118594, 423.8598488316796 474.24685631008106, 428.54137019004384 472.1203363501093 C 435.48724583412564 468.9652630169007, 438 464.98716289130596, 438 457.1457809614619 C 438 446.8495688885041, 433.96975678087915 443.151804005885, 420.3819426964875 440.9811402549612 C 411.45898147473105 439.55569033677205, 408.57477171828594 438.12517350491015, 408.2026667648738 434.9404356282846 C 407.303397790357 427.24385449396505, 424.0742215363615 426.3570488438288, 426.4915443186071 433.97335850703325 C 427.0331257843212 435.67973060637644, 427.98933828562707 436, 432.54238767055705 436 L 437.95 436 437.353153008487 432.75 C 436.5464764734237 428.3574190265918, 434.74078027404215 425.66709506028127, 430.3504354976992 422.316584481361 C 425.21674934467427 418.3987897201728, 411.833127761253 417.7191700226102, 405.27444922722884 421.04322703479875 M 312 446.5 L 312 473 318 473 L 324 473 324 446.5 L 324 420 318 420 L 312 420 312 446.5 M 243.59507078760072 431.139070083487 C 246.2267572423902 432.404511636855, 251 438.2116234706214, 251 440.14788321979177 C 251 440.6165474489063, 244.25 441, 236 441 C 219.1126042879066 441, 218.6484369810753 440.74787477222867, 224.1016048357496 434.53705970509077 C 228.8756276402792 429.099748117512, 236.56607924209138 427.75919252863156, 243.59507078760072 431.139070083487 M 368.5 430.8709041536759 C 371.1848955310825 432.0972168655121, 373.2607829189623 434.0626529876404, 374.8139847424852 436.848942153185 L 377.1279694849705 441 362.0639847424852 441 C 345.85857859133375 441, 345.3666354740262 440.81487545739196, 348.7041086503145 435.9725062434054 C 353.22596990712555 429.41169793625016, 360.9481214809344 427.4216211112035, 368.5 430.8709041536759 M 150.93054407654066 431.4640829460896 C 163.02451836593417 437.71812010963487, 162.62357022836335 456.37025464164503, 150.28211863089643 461.6288786211859 C 134.25647885687258 468.45731472026404, 119.90134589685061 450.1822519061059, 130.07157623559786 435.8994804462683 C 133.93938325766348 430.4676463671079, 144.6142084858756 428.19777886967967, 150.93054407654066 431.4640829460896" fill="#ffffff" fill-rule="evenodd" />
  </g>
</svg>