<svg width="800" height="400" viewBox="0 0 800 400" xmlns="http://www.w3.org/2000/svg">
  <!-- Dark background to match other project cards -->
  <rect width="800" height="400" fill="#18181b"/>
  
  <!-- Center the 262x193 logo inside 800x400 -->
  <g transform="translate(269, 103.5)">
    <path d="M 32 46.65958708586106 L 32 93.31917417172212 26.46439496362728 99.12267797794264 C 17.93191944704538 108.06808752425196, 15.975127620783212 115.1203035992478, 19.89742297621365 122.78983806729644 C 21.77069876918015 126.45278334815762, 29.663391089563444 135.00000000000003, 31.17256145022351 135.00000000000003 C 32.340815664200726 135.00000000000003, 97.43930974774968 117.8940235855831, 97.85571067858191 117.47762265475197 C 98.05367397241464 117.27965936091978, 95.25633481516824 115.77587458680865, 91.6394014402566 114.13587871228279 C 75.27235100644437 106.71470380875981, 76.02824547691355 98.73430221741897, 93.706001679779 92.31762168771024 C 100.05095585360189 90.01452714099032, 116.21084773660549 87.01857706036462, 122.35698880418471 87.00589511139263 C 124.4593162785727 87.00155716837124, 125.06518040650573 87.38775929241815, 124.65066275038791 88.46797498880146 C 124.34083957849806 89.27536123264225, 124.47161717022249 90.17344145212564, 124.9412796208866 90.46370880987564 C 125.8001382091657 90.99451260896186, 179.99618919844633 80.33714413488339, 180.86715359177657 79.46617974155782 C 181.1235524496348 79.209780883701, 181.06641732322933 78.99999999999999, 180.7401866442089 79 C 180.41395596518848 79, 168.53133259079016 76.97500000000001, 154.33435692332378 74.5 C 124.82202875631695 69.3550301187931, 124 69.28306748409273, 124 71.84444783182005 C 124 73.51707792603216, 122.71913216988199 73.74757076108726, 110.25 74.31876751374669 C 86.69461537446436 75.39781287331459, 65.52949584516966 79.80460393811018, 44.75 87.95652724123592 L 34.99999999999999 91.7815118702038 35 46.8907559351019 L 35 2 127 2 L 219 2 219 51.55089127977394 L 219.00000000000003 101.10178255954789 215.7244026668709 98.60336267418685 C 211.65463305790888 95.49919806364989, 200.9947002663049 90.46651775929075, 192.25382725520905 87.52262652739984 L 185.63556369654432 85.29362170877779 167.14500248166647 89.15292355432702 C 156.97519381348366 91.27553956937909, 148.4750142637972 93.19165240286866, 148.25571459347435 93.4109520731927 C 148.03641492315154 93.63025174351675, 149.3516656381241 94.1329460057053, 151.17849396008006 94.52805043361171 C 168.35487673575997 98.24293968101519, 173.2867206051355 112.17194361030506, 159.98838026719991 119.4098074881 C 154.3698486740696 122.46779561524704, 142.55797568232512 125.00000000000003, 133.91203179092756 125.00000000000001 L 128 125 128 121.5 C 128 119.04678413229597, 127.5488342079373 118, 126.49149387777217 118 C 124.03453063633918 118, 39.891437604989875 139.2247709383248, 40.38635588499275 139.7196892183259 C 40.63569743996869 139.96903077330094, 60.78827072924456 146.5913896678078, 85.16985208338359 154.43604231723003 L 129.5 168.69904713436136 129.79606647566578 163.47813216432345 L 130.0921329513316 158.25721719428554 146.29606647566578 157.7327768307871 C 178.5985582780133 156.6873065739949, 204.57901547893005 148.69080272097762, 218.97447166179978 135.36314943710266 C 226.10165082601293 128.76463865800528, 229.00000000000009 123.74500596322837, 229 117.99999999999991 C 228.99999999999997 113.76252586826038, 226.29926392342682 107.32318271501995, 223.57308798698617 105.06065764168247 C 222.17929668892333 103.90391360447113, 222 97.84223476756684, 222 51.87755528455783 L 222 0 127 0 L 32 0 32 46.65958708586106 M 66 25 L 66 30 72 30 L 78 30 78 44.5 L 78 59 84.5 59 L 91 59 91 44.5 L 91 30 97 30 L 103 30 103 25 L 103 20 84.5 20 L 66 20 66 25 M 108 39.5 L 108 59 113 59 L 118 59 118.07894736842105 45.75 C 118.12236842105264 38.4625, 118.32148306707549 32.95, 118.52142435958294 33.5 C 118.7213656520904 34.05, 120.31859972418185 40.0125, 122.07083340867504 46.75 L 125.25671283502632 59 129.99063865886131 59 L 134.7245644826963 58.99999999999999 138.11228224134817 45.75 L 141.5 32.5 141.77902514972868 45.75 L 142.05805029945734 59 147.02902514972868 59 L 152 59 152 39.45955765716927 L 152 19.91911531433855 143.8094818308742 20.209557657169277 L 135.6189636617484 20.5 133.2445728500513 30 C 131.9386579036179 35.225, 130.52436270404183 39.85252837568264, 130.1016946287712 40.28339639040587 C 129.67902655350056 40.7142644051291, 128.75144512277342 38.46720569812183, 128.04040256048867 35.28993259705638 C 127.32935999820393 32.11265949599093, 126.11195514646285 27.372631120308295, 125.3350584455085 24.756536206650512 L 123.92251898922785 20 115.96125949461393 20 L 108 20 108 39.5 M 159 39.5 L 159 59 165.5 59 L 172 59 172 51.5438095527206 L 172 44.08761910544121 179.25 43.7938095527206 L 186.5 43.5 186.807497830422 39.25 L 187.11499566084402 35 179.557497830422 35 L 172 35 172 32 L 172 29 180.5 29 L 189 29 189 24.5 L 189 20 174 20 L 159 20 159 39.5 M 32 165.03138479633873 L 32 193 127 193 L 222 193 222 165.37755528455781 C 222.00000000000003 140.93765356821626, 221.82717624932084 137.8985415428665, 220.50000000000006 139 C 219.23877472698766 140.0467240082249, 219.00000000000006 144.28456865400616, 219.00000000000003 165.62244471544216 L 219 191 127 191 L 35 191 35 164.6069888041843 C 35 142.06902507805734, 34.78090521154897 138.12990304948164, 33.5 137.63837360052304 C 32.18870079278561 137.13518088108478, 32 140.58123616737507, 32 165.03138479633873" fill="#ffffff" fill-rule="evenodd" />
  </g>
</svg>